<svg width="150" height="150" viewBox="0 0 150 150" fill="none" xmlns="http://www.w3.org/2000/svg">
<g filter="url(#filter0_d_283_476)">
<path d="M29.4546 18.3522C27.396 19.0827 25.7137 20.8314 25.1824 22.8457C25.0275 23.377 24.9832 34.2233 25.0053 53.1934L25.0718 82.6999L25.603 83.696C26.3113 85.0462 27.2853 86.0645 28.6134 86.7507L29.7202 87.3483L46.9415 87.4147L64.1408 87.459V88.7428C64.1408 91.1113 63.4767 97.8184 63.1225 99.0137C63.0119 99.3678 62.6356 99.4121 59.3816 99.4121C55.508 99.4121 54.8218 99.5449 54.4233 100.452C54.0691 101.205 54.1134 101.493 54.6447 102.157L55.0874 102.732H75.4298H95.7723L96.215 102.157C96.7462 101.493 96.7905 101.205 96.4363 100.452C96.0379 99.5449 95.3517 99.4121 91.478 99.4121C88.2241 99.4121 87.8478 99.3678 87.7371 99.0137C87.383 97.8184 86.7189 91.1113 86.7189 88.7428V87.459L103.94 87.4147L121.139 87.3483L122.246 86.7507C123.574 86.0645 124.548 85.0462 125.257 83.696L125.788 82.6999V52.7064V22.7129L125.279 21.7832C124.504 20.3223 123.53 19.3483 122.18 18.6842L120.918 18.0645L75.7619 18.0202C32.8634 17.9759 30.5392 17.9759 29.4546 18.3522ZM120.896 21.7832C121.361 22.0488 121.936 22.6244 122.158 23.0449C122.556 23.7754 122.578 24.86 122.578 47.6595V71.5215H120.365H118.151V58.9043C118.151 46.5749 118.151 46.2871 117.708 45.8444C117.155 45.291 116.137 45.2689 115.473 45.8223L114.942 46.2428L114.875 58.8822L114.831 71.5215H75.4298H36.0288V50.1608V28.8001H75.4298H114.809L114.875 34.4225C114.942 39.5801 114.986 40.0892 115.362 40.5098C115.916 41.1074 117.111 41.1296 117.708 40.5319C118.129 40.1113 118.151 39.8014 118.151 34.2233C118.151 27.627 118.085 27.2949 116.69 26.2324L115.871 25.5905H75.4298H34.9884L34.1694 26.2324C32.6199 27.4056 32.7085 26.0553 32.7085 49.9395V71.5215H30.4949H28.2814V47.6595C28.2814 24.86 28.3035 23.7754 28.702 23.0449C28.9233 22.6244 29.4988 22.0488 29.9637 21.7832L30.827 21.2741H75.4298H120.033L120.896 21.7832ZM122.534 78.4277C122.468 81.8145 122.445 82.0801 121.936 82.7884C120.896 84.2272 124.305 84.1387 75.4298 84.1387C26.5548 84.1387 29.9637 84.2272 28.9233 82.7884C28.4142 82.0801 28.3921 81.8145 28.3257 78.4277L28.2593 74.8418H75.4298H122.6L122.534 78.4277ZM83.4871 90.4915C83.6642 93.7233 84.1955 98.8809 84.4168 99.2129C84.4832 99.3236 80.7645 99.4121 75.4298 99.4121C70.0952 99.4121 66.3764 99.3236 66.4428 99.2129C66.6642 98.8809 67.1955 93.7233 67.3725 90.4915L67.5275 87.459H75.4298H83.3322L83.4871 90.4915Z" fill="#222222"/>
<path d="M66.0663 38.5616C65.4687 38.9158 48.2031 59.1254 47.9596 59.7452C47.539 60.8077 48.69 62.0694 49.8854 61.8259C50.2617 61.7595 51.5676 60.4093 54.1354 57.3767C68.9218 40.0668 68.3463 40.7752 68.3463 40.0004C68.3463 38.8494 66.996 38.0082 66.0663 38.5616Z" fill="#7557E9"/>
<path d="M53.1172 43.1221C52.2317 43.8968 48.1588 48.6117 47.9596 49.0986C47.5612 50.139 48.358 51.1572 49.5534 51.1572C50.3281 51.1572 50.5052 51.0023 53.0507 48.1468C55.3528 45.557 55.7291 45.0257 55.7291 44.3838C55.7291 42.9671 54.1575 42.2367 53.1172 43.1221Z" fill="#7557E9"/>
<path d="M70.9367 78.3171C70.2948 79.0475 70.2505 79.8223 70.8482 80.5085L71.4016 81.1504H75.4302H79.4589L80.0122 80.5085C80.6099 79.8223 80.5656 79.0475 79.9237 78.3171C79.6138 77.985 79.0825 77.9408 75.4302 77.9408C71.7779 77.9408 71.2466 77.985 70.9367 78.3171Z" fill="#7557E9"/>
<path d="M36.0946 108.687C35.5855 108.93 35.01 109.373 34.8108 109.683C34.6116 109.993 33.1949 114.154 31.6897 118.936C29.609 125.465 28.9449 127.812 29.0556 128.321C29.2327 129.339 30.0517 130.446 30.9371 130.889C31.6676 131.265 34.2574 131.287 75.4293 131.287C116.601 131.287 119.191 131.265 119.921 130.889C120.807 130.446 121.626 129.339 121.803 128.321C121.914 127.812 121.25 125.465 119.169 118.936C117.664 114.154 116.247 109.993 116.048 109.683C115.849 109.373 115.273 108.93 114.764 108.687C113.856 108.288 112.816 108.266 85.2574 108.266H56.6806L56.0829 108.731C55.3303 109.329 55.2861 110.436 56.0165 111.1L56.5256 111.587L84.9475 111.631L113.392 111.697L114.963 116.678C115.849 119.423 117 123.075 117.553 124.824L118.549 127.967H75.4293H32.3095L33.3056 124.824C33.859 123.075 35.01 119.423 35.8954 116.678L37.467 111.697L43.9749 111.587L50.4605 111.476L50.8811 110.945C51.4124 110.281 51.4124 109.572 50.8811 108.908L50.4605 108.377L43.7314 108.311C37.5334 108.266 36.9579 108.288 36.0946 108.687Z" fill="#222222"/>
<path d="M46.344 115.593C45.5914 116.19 45.5472 117.297 46.2776 117.961C46.7203 118.382 47.0524 118.448 48.5133 118.448C50.0185 118.448 50.2841 118.382 50.749 117.895C51.0589 117.607 51.3024 117.098 51.3024 116.788C51.3024 116.478 51.0589 115.969 50.749 115.681C50.2841 115.194 50.0185 115.128 48.5797 115.128C47.2516 115.128 46.831 115.216 46.344 115.593Z" fill="#222222"/>
<path d="M55.4189 115.615C54.6221 116.345 54.5557 117.275 55.2861 118.006C55.6403 118.36 56.0166 118.448 57.4111 118.448C58.3187 118.448 59.2705 118.338 59.514 118.205C60.5322 117.674 60.4437 115.881 59.359 115.371C59.0491 115.239 58.1637 115.128 57.389 115.128C56.2379 115.128 55.8838 115.216 55.4189 115.615Z" fill="#222222"/>
<path d="M64.6495 115.349C63.6092 115.77 63.41 117.076 64.2511 117.895C64.7159 118.382 64.9816 118.448 66.531 118.448C68.5896 118.448 69.2316 118.05 69.2316 116.788C69.2316 115.637 68.4347 115.128 66.5975 115.15C65.8006 115.15 64.9152 115.239 64.6495 115.349Z" fill="#222222"/>
<path d="M73.3266 115.681C72.6183 116.368 72.5962 117.319 73.2824 117.961C73.7251 118.382 74.0571 118.448 75.5844 118.448C77.2667 118.448 77.4217 118.404 77.8423 117.873C78.462 117.098 78.4178 116.345 77.7537 115.681C77.2889 115.194 77.0232 115.128 75.5402 115.128C74.0571 115.128 73.7915 115.194 73.3266 115.681Z" fill="#222222"/>
<path d="M82.4689 115.571C81.6941 116.168 81.6277 117.341 82.2918 118.006C82.6681 118.382 83.0223 118.448 84.5053 118.448C86.1212 118.448 86.3426 118.404 86.8738 117.873C87.3165 117.43 87.4051 117.187 87.2944 116.611C87.073 115.482 86.6746 115.239 84.771 115.172C83.2879 115.106 82.978 115.15 82.4689 115.571Z" fill="#222222"/>
<path d="M91.6547 115.394C90.5922 115.903 90.5258 117.674 91.5662 118.205C91.8097 118.338 92.7615 118.448 93.669 118.448C95.6391 118.448 96.2367 118.072 96.2367 116.81C96.2367 115.615 95.4399 115.128 93.6026 115.15C92.8058 115.15 91.9203 115.261 91.6547 115.394Z" fill="#7557E9"/>
<path d="M100.111 115.681C99.8011 115.969 99.5576 116.478 99.5576 116.788C99.5576 117.098 99.8011 117.607 100.111 117.895C100.576 118.382 100.841 118.448 102.391 118.448C103.918 118.448 104.184 118.382 104.604 117.939C105.291 117.209 105.246 116.168 104.516 115.593C104.029 115.216 103.608 115.128 102.28 115.128C100.841 115.128 100.576 115.194 100.111 115.681Z" fill="#7557E9"/>
<path d="M46.3438 121.569C45.5469 122.189 45.5469 123.34 46.3438 123.96C46.8307 124.336 47.2513 124.425 48.5794 124.425C50.0182 124.425 50.2839 124.358 50.7487 123.871C51.0586 123.584 51.3021 123.075 51.3021 122.765C51.3021 122.455 51.0586 121.946 50.7487 121.658C50.2839 121.171 50.0182 121.104 48.5794 121.104C47.2513 121.104 46.8307 121.193 46.3438 121.569Z" fill="#222222"/>
<path d="M55.4413 121.37C54.8437 121.835 54.6444 122.698 54.9543 123.451C55.3085 124.314 55.6184 124.425 57.4999 124.425C59.3593 124.425 59.647 124.314 60.0676 123.495C60.3554 122.942 60.3554 122.72 60.134 122.189C60.0012 121.813 59.6913 121.437 59.47 121.326C58.8944 120.994 55.884 121.06 55.4413 121.37Z" fill="#222222"/>
<path d="M64.2515 121.658C63.5431 122.344 63.5431 123.185 64.2515 123.871C64.7163 124.358 64.9819 124.425 66.4207 124.425C68.4351 124.425 69.2319 123.96 69.2319 122.765C69.2319 121.569 68.4351 121.104 66.4207 121.104C64.9819 121.104 64.7163 121.171 64.2515 121.658Z" fill="#222222"/>
<path d="M73.3271 121.658C72.6188 122.344 72.6188 123.185 73.3271 123.871C73.792 124.358 74.0576 124.425 75.5407 124.425C77.0238 124.425 77.2894 124.358 77.7542 123.871C78.0641 123.584 78.3076 123.075 78.3076 122.765C78.3076 122.455 78.0641 121.946 77.7542 121.658C77.2894 121.171 77.0238 121.104 75.5407 121.104C74.0576 121.104 73.792 121.171 73.3271 121.658Z" fill="#222222"/>
<path d="M82.4246 121.569C81.672 122.167 81.6277 123.274 82.3582 123.938C82.8009 124.358 83.1329 124.425 84.5496 124.425C86.6303 124.425 87.2501 124.049 87.2501 122.765C87.2501 121.503 86.6303 121.104 84.616 121.104C83.3322 121.104 82.9116 121.193 82.4246 121.569Z" fill="#222222"/>
<path d="M91.6333 121.26C91.4784 121.326 91.2127 121.658 91.0135 122.034C90.7257 122.588 90.7257 122.809 90.9471 123.34C91.0799 123.717 91.3898 124.093 91.6112 124.204C92.2088 124.536 95.175 124.469 95.6177 124.115C96.5031 123.451 96.481 122.079 95.6177 121.415C95.2414 121.127 92.2531 121.016 91.6333 121.26Z" fill="#222222"/>
<path d="M100.111 121.658C99.8011 121.946 99.5576 122.455 99.5576 122.765C99.5576 123.075 99.8011 123.584 100.111 123.871C100.576 124.358 100.841 124.425 102.28 124.425C104.295 124.425 105.091 123.96 105.091 122.765C105.091 121.569 104.295 121.104 102.28 121.104C100.841 121.104 100.576 121.171 100.111 121.658Z" fill="#222222"/>
</g>
<defs>
<filter id="filter0_d_283_476" x="-4" y="0" width="158" height="158" filterUnits="userSpaceOnUse" color-interpolation-filters="sRGB">
<feFlood flood-opacity="0" result="BackgroundImageFix"/>
<feColorMatrix in="SourceAlpha" type="matrix" values="0 0 0 0 0 0 0 0 0 0 0 0 0 0 0 0 0 0 127 0" result="hardAlpha"/>
<feOffset dy="4"/>
<feGaussianBlur stdDeviation="2"/>
<feComposite in2="hardAlpha" operator="out"/>
<feColorMatrix type="matrix" values="0 0 0 0 0 0 0 0 0 0 0 0 0 0 0 0 0 0 0.25 0"/>
<feBlend mode="normal" in2="BackgroundImageFix" result="effect1_dropShadow_283_476"/>
<feBlend mode="normal" in="SourceGraphic" in2="effect1_dropShadow_283_476" result="shape"/>
</filter>
</defs>
</svg>
