<svg width="150" height="150" viewBox="0 0 150 150" fill="none" xmlns="http://www.w3.org/2000/svg">
<g filter="url(#filter0_d_283_497)">
<path d="M79.0523 23.3576C73.241 24.9385 67.2961 29.592 63.266 35.6705C61.2621 38.7209 58.9688 43.6861 58.9688 45.0221C58.9688 45.601 60.1488 46.7588 60.75 46.7588C61.4848 46.7588 62.4199 45.6678 62.8652 44.3096C63.7559 41.5264 66.2941 37.0955 68.3648 34.6686L69.0996 33.8225L70.3242 34.4904C72.0609 35.4256 75.8906 36.6725 77.9613 36.9396C78.9187 37.0732 80.7891 37.1846 82.125 37.1846C83.4609 37.1846 85.3312 37.0732 86.2887 36.9396C88.3148 36.6725 92.1891 35.4256 93.859 34.535L95.0168 33.9115L95.5512 34.4904C95.8406 34.8021 96.5309 35.6705 97.043 36.4053C98.6238 38.565 99.0469 38.9658 99.8262 38.9658C100.739 38.9658 101.496 38.1643 101.496 37.2068C101.496 35.9154 98.1562 31.6627 95.0836 29.0131C89.4281 24.1592 83.6613 22.1107 79.0523 23.3576ZM85.7766 27.3432C87.7805 28.1225 90.0961 29.4807 91.3652 30.5717L92.2559 31.351L90.9867 31.9299C88.2035 33.1768 86.3555 33.4885 82.125 33.5107C77.9168 33.5107 76.4473 33.2436 73.2633 31.9299C71.6379 31.2396 71.6379 31.2174 73.9535 29.7033C78.7406 26.5416 82.0137 25.8959 85.7766 27.3432Z" fill="#222222"/>
<path d="M80.9004 39.5225C80.3883 40.0123 80.3437 40.235 80.3437 42.1943V44.3096H79.1191C77.6273 44.3096 76.7812 44.9553 76.7812 46.0908C76.7812 47.2264 77.6273 47.8721 79.1191 47.8721H80.3437V49.6533V51.4346H79.1191C77.6273 51.4346 76.7812 52.0803 76.7812 53.2158C76.7812 54.3514 77.6273 54.9971 79.1191 54.9971H80.3437V56.7783V58.5596H79.1191C77.6273 58.5596 76.7812 59.2053 76.7812 60.3408C76.7812 61.4764 77.6273 62.1221 79.1191 62.1221H80.3437V63.3467C80.3437 64.8385 80.9895 65.6846 82.125 65.6846C83.2605 65.6846 83.9062 64.8385 83.9062 63.3467V62.1221H85.1309C86.6227 62.1221 87.4687 61.4764 87.4687 60.3408C87.4687 59.2053 86.6227 58.5596 85.1309 58.5596H83.9062V56.7783V54.9971H85.1309C86.6227 54.9971 87.4687 54.3514 87.4687 53.2158C87.4687 52.0803 86.6227 51.4346 85.1309 51.4346H83.9062V49.6533V47.8721H85.1309C86.6227 47.8721 87.4687 47.2264 87.4687 46.0908C87.4687 44.9553 86.6227 44.3096 85.1309 44.3096H83.9062V42.1943C83.9062 40.235 83.8617 40.0123 83.3496 39.5225C83.0156 39.1662 82.548 38.9658 82.125 38.9658C81.702 38.9658 81.2344 39.1662 80.9004 39.5225Z" fill="#7557E9"/>
<path d="M101.407 41.2156C100.65 41.8167 100.672 42.3734 101.585 45.0898C102.721 48.4296 103.3 51.6804 103.433 55.7773C103.567 59.0949 103.611 59.362 104.079 59.8296C105.036 60.787 106.64 60.2527 106.973 58.8499C107.218 57.937 106.907 52.2148 106.484 49.8769C106.083 47.4945 104.814 43.1304 104.168 41.8613C103.545 40.6367 102.476 40.3695 101.407 41.2156Z" fill="#222222"/>
<path d="M45.9435 48.1176C42.5592 48.5852 38.5068 49.8543 35.3896 51.4129C31.8939 53.1941 27.5744 56.7121 25.1252 59.7848C23.3662 61.9891 21.5627 64.9949 21.5627 65.7297C21.5627 66.9988 23.0767 67.8672 24.2346 67.2437C24.4572 67.1324 24.9471 66.4422 25.3478 65.7519C25.7486 65.0394 26.3053 64.1266 26.617 63.7258L27.1514 63.0133L28.4873 64.082C33.0963 67.8227 39.2861 70.0937 47.0123 70.9176L48.2814 71.0512V74.6137V78.1539H34.9221H21.5404L21.6963 76.9738C21.7631 76.3504 22.0303 74.9031 22.2752 73.8121C23.01 70.5391 23.01 70.45 22.3642 69.8266C21.6517 69.0918 20.6053 69.0695 19.9373 69.7375C19.0467 70.6504 18.0224 75.9273 18.0002 79.7125C17.9334 99.7738 36.0353 114.959 55.874 111.463C59.5033 110.818 65.3369 108.546 65.849 107.589C66.2498 106.832 66.1385 106.008 65.5373 105.429C64.8248 104.717 64.1346 104.739 62.576 105.518C59.9486 106.854 56.2525 107.901 52.9127 108.302L51.8439 108.435V100.42V92.3816L53.358 92.5375C55.874 92.7601 59.1693 93.4949 61.8412 94.4078C64.5576 95.343 65.0697 95.343 65.7377 94.3633C66.2275 93.673 66.183 92.9828 65.6041 92.3148C65.0475 91.6914 62.1975 90.6449 59.2139 89.9324C57.5439 89.5316 53.2244 88.8637 52.2447 88.8414C51.8885 88.8414 51.8439 88.5297 51.8439 85.2789V81.7164H58.4123H65.0029L65.5373 81.1598C65.8935 80.8258 66.0939 80.3582 66.0939 79.9351C66.0939 79.5121 65.8935 79.0445 65.5373 78.7105L65.0029 78.1539H58.4123H51.8439V74.6137V71.0512L53.1353 70.9176C58.7463 70.2941 62.8209 69.2031 66.6506 67.3105C68.4764 66.3976 71.5935 64.3715 72.1947 63.7035C72.4396 63.4363 72.7514 63.2359 72.9072 63.2359C73.0408 63.2359 73.7088 64.0598 74.3322 65.0617C74.9779 66.0859 75.6682 67.0434 75.8463 67.1769C76.826 67.9562 78.5627 67.0211 78.5627 65.7297C78.5627 64.9949 76.7592 61.9891 75.0002 59.7848C70.5025 54.1516 63.3553 49.8543 56.0299 48.4293C53.8256 47.984 48.1256 47.8059 45.9435 48.1176ZM48.2814 59.4508V67.4664L47.0123 67.3328C40.3326 66.6648 34.2541 64.3492 30.2463 60.9426L29.5115 60.3191L30.7139 59.0945C32.0498 57.7141 35.1447 55.5766 37.349 54.441C40.3326 52.9492 43.8506 51.9695 48.0142 51.4574C48.2146 51.4352 48.2814 53.1719 48.2814 59.4508ZM55.5846 52.0141C60.3939 52.8602 66.2053 55.8437 69.4115 59.0945C70.8365 60.5195 70.8588 60.4305 68.4096 62.1227C64.3127 64.9727 59.3475 66.6648 53.1353 67.3551L51.8439 67.4887V59.473V51.4352L52.8014 51.5687C53.3135 51.6355 54.5603 51.8359 55.5846 52.0141ZM48.2814 85.2566V88.8191L47.0123 88.9527C39.2861 89.7543 33.0963 92.0476 28.4428 95.7883L27.1291 96.857L26.283 95.5656C23.9006 92.0699 22.2529 87.4609 21.6963 82.7629L21.5627 81.7164H34.9221H48.2814V85.2566ZM48.2814 100.42V108.435L47.3463 108.302C41.8467 107.545 38.0392 106.164 34.0982 103.492C32.5174 102.446 29.5783 99.8629 29.5783 99.5289C29.5783 99.1726 33.2076 96.7457 35.256 95.7437C39.0857 93.8734 43.2271 92.7824 47.9029 92.4262C48.2592 92.4039 48.2814 92.916 48.2814 100.42Z" fill="#222222"/>
<path d="M95.4848 62.4342C86.7789 63.7924 79.498 68.112 74.3101 75.0143C71.4824 78.7995 69.5676 83.0522 68.5211 87.9506C67.8086 91.2682 67.8086 97.0795 68.4988 100.33C70.8144 111.107 77.6722 119.546 87.4246 123.665C99.5594 128.786 113.23 126.114 122.537 116.785C127.169 112.176 129.93 107.077 131.377 100.464C132.023 97.5694 132.067 91.2682 131.488 88.3292C130.241 82.117 127.325 76.5061 123.027 72.0085C120.311 69.1585 119.532 68.7799 118.329 69.7151C117.884 70.0491 117.75 70.3608 117.75 70.9842C117.75 71.7413 117.951 72.0085 119.955 73.9901C121.157 75.1924 122.27 76.417 122.426 76.7065C122.671 77.1518 122.515 77.753 121.291 81.4268L119.91 85.6573L115.39 87.1491L110.87 88.6409L106.306 85.5905L101.719 82.5401V78.1538V73.7674L106.128 70.8284C108.555 69.2253 110.648 67.9116 110.804 67.9116C110.959 67.9116 111.672 68.201 112.407 68.5795C114.01 69.3811 114.7 69.4256 115.412 68.6909C115.991 68.1342 116.125 67.2881 115.746 66.5534C115.257 65.6405 110.136 63.5698 106.506 62.7905C103.656 62.1893 98.1789 62.0112 95.4848 62.4342ZM103.745 65.9299C104.77 66.0635 105.749 66.2417 105.905 66.3307C106.083 66.442 105.081 67.2213 103.077 68.5795L99.9379 70.6503L96.8207 68.5795C95.1062 67.444 93.748 66.442 93.8148 66.3753C94.082 66.1303 97.4441 65.7295 99.6262 65.7073C100.851 65.685 102.721 65.7963 103.745 65.9299ZM93.748 70.8284L98.1566 73.7674V78.1538V82.5401L93.6144 85.5682L89.0723 88.5963L84.6637 87.1268C82.2144 86.3252 80.2105 85.6573 80.1883 85.635C80.0992 85.5682 78.7855 76.0385 78.7855 75.4596C78.7855 74.3241 83.2164 70.6948 86.957 68.8022C87.8922 68.3124 88.8273 67.9116 89.0055 67.9116C89.2058 67.9116 91.3211 69.2253 93.748 70.8284ZM76.1137 82.4733C76.3586 84.1432 76.559 85.7241 76.559 85.9467C76.559 86.2362 75.7129 87.06 74.1988 88.2846C72.8851 89.3311 71.7719 90.1549 71.7273 90.0881C71.5715 89.9323 72.0836 87.6389 72.707 85.6127C73.2414 83.8983 75.4012 79.1557 75.5793 79.3338C75.6238 79.3784 75.8687 80.7811 76.1137 82.4733ZM126.902 85.0784C127.725 87.5276 128.282 90.2885 127.904 89.9991C125.721 88.3292 123.539 86.5034 123.539 86.303C123.539 86.1917 123.918 84.9448 124.363 83.5643L125.187 81.0483L125.699 82.0502C125.989 82.6069 126.523 83.9651 126.902 85.0784ZM104.302 88.5741L108.555 91.4018L107.508 95.0756C106.929 97.1018 106.284 99.3284 106.083 100.019L105.705 101.31H99.9379H94.1711L93.7926 100.019C93.5922 99.3284 92.9465 97.1018 92.3676 95.0756L91.3211 91.4018L95.5738 88.5741C97.9117 86.9932 99.8711 85.7241 99.9379 85.7241C100.005 85.7241 101.964 86.9932 104.302 88.5741ZM83.2387 90.4221C85.5098 91.1792 87.4691 91.8917 87.625 92.0475C87.7586 92.1811 88.5379 94.5858 89.3394 97.4135L90.809 102.535L87.8031 105.54L84.7973 108.546L80.5445 109.281C77.739 109.749 76.1805 109.927 76.0246 109.793C75.468 109.326 73.6422 105.54 72.9074 103.314C72.0613 100.776 71.4379 97.6139 71.4379 95.9885L71.4601 94.9643L75.1785 92.0252C77.2269 90.3999 78.9414 89.0639 79.0082 89.0639C79.075 89.0639 80.9676 89.6874 83.2387 90.4221ZM124.764 92.0698C127.614 94.3186 128.416 95.0756 128.438 95.4987C128.46 96.8569 127.659 100.976 126.991 103.024C126.256 105.251 125.12 107.723 124.074 109.37L123.539 110.216H118.418H113.32L111.204 106.676C110.024 104.739 109.067 102.958 109.089 102.713C109.089 102.49 109.757 99.9963 110.581 97.1909L112.073 92.0698L116.414 90.578C118.797 89.7764 120.845 89.1085 120.934 89.1307C121.046 89.1752 122.76 90.4889 124.764 92.0698ZM108.221 108.635L110.425 112.287L108.844 117.03L107.263 121.772L105.66 122.128C102.521 122.863 96.5312 122.796 93.4586 122.017C92.6793 121.794 92.657 121.75 90.475 116.74C89.2726 113.935 88.1816 111.441 88.048 111.151C87.8476 110.684 88.0926 110.372 90.7199 107.745L93.5922 104.873L99.8043 104.917L106.039 104.984L108.221 108.635ZM86.3113 116.094C87.2019 118.165 87.8922 119.902 87.8254 119.969C87.625 120.169 84.107 118.009 82.2367 116.562C80.4109 115.115 78.6297 113.423 78.8078 113.244C78.9414 113.111 83.9512 112.265 84.3519 112.309C84.5301 112.309 85.3316 113.846 86.3113 116.094ZM120.534 114.001C120.467 114.113 119.465 114.981 118.329 115.939C116.37 117.586 113.431 119.501 112.139 119.991L111.561 120.214L112.54 117.274C113.075 115.649 113.564 114.202 113.631 114.046C113.698 113.846 114.633 113.779 117.194 113.779C119.376 113.779 120.623 113.868 120.534 114.001Z" fill="#222222"/>
</g>
<defs>
<filter id="filter0_d_283_497" x="-4" y="0" width="158" height="158" filterUnits="userSpaceOnUse" color-interpolation-filters="sRGB">
<feFlood flood-opacity="0" result="BackgroundImageFix"/>
<feColorMatrix in="SourceAlpha" type="matrix" values="0 0 0 0 0 0 0 0 0 0 0 0 0 0 0 0 0 0 127 0" result="hardAlpha"/>
<feOffset dy="4"/>
<feGaussianBlur stdDeviation="2"/>
<feComposite in2="hardAlpha" operator="out"/>
<feColorMatrix type="matrix" values="0 0 0 0 0 0 0 0 0 0 0 0 0 0 0 0 0 0 0.25 0"/>
<feBlend mode="normal" in2="BackgroundImageFix" result="effect1_dropShadow_283_497"/>
<feBlend mode="normal" in="SourceGraphic" in2="effect1_dropShadow_283_497" result="shape"/>
</filter>
</defs>
</svg>
