<svg width="150" height="150" viewBox="0 0 150 150" fill="none" xmlns="http://www.w3.org/2000/svg">
<g filter="url(#filter0_d_283_435)">
<path d="M62.1495 16.7133C59.0671 18.3692 51.7304 23.3877 51.2209 24.2029C50.7369 24.9926 50.7114 25.5021 50.7114 32.3038C50.7114 38.9781 50.7624 39.615 51.1954 40.3538C51.603 41.0161 65.0791 50.7729 72.7215 55.9188C74.5811 57.1925 75.8803 57.1161 78.1476 55.5876C85.8409 50.3143 86.3249 49.8303 85.0767 48.2509C84.1086 47.0281 83.3444 47.2829 79.1156 50.2634C77.0267 51.7409 75.1925 52.9128 75.0652 52.8618C74.9378 52.8109 70.2759 49.5756 64.697 45.6525L54.5581 38.5451L54.5326 32.3038V26.0625L59.1945 23.0565C61.7419 21.4007 63.9582 20.076 64.0856 20.1015C64.2384 20.1269 66.2764 21.8847 68.6201 23.9991C70.9892 26.1135 73.1546 27.9731 73.4603 28.1514C74.199 28.559 76.1606 28.559 76.8993 28.1514C77.205 27.9731 79.4213 26.0625 81.8414 23.8972C84.236 21.7318 86.2485 19.9486 86.3249 19.9741C86.3759 19.9741 88.5412 21.3497 91.1142 23.031L95.8015 26.0625V32.3038V38.5451L92.3369 40.9652C88.6686 43.5381 88.1846 44.0985 88.6686 45.3213C88.9998 46.0856 90.1716 46.697 90.8849 46.4677C91.8529 46.162 98.5018 41.2709 99.0622 40.4557C99.6227 39.6405 99.6227 39.4622 99.6227 32.3293C99.6227 25.5021 99.5972 24.9926 99.1132 24.2029C98.5527 23.2858 89.764 17.3502 87.5987 16.4331C85.6371 15.5924 85.0257 15.8981 79.8544 20.5345C77.4088 22.7253 75.2944 24.534 75.1671 24.534C75.0397 24.534 73.0272 22.8018 70.6835 20.7128C66.6076 17.019 65.2065 16.0255 64.0601 16C63.7544 16 62.8883 16.3312 62.1495 16.7133Z" fill="#7557E9"/>
<path d="M32.3694 21.0954C31.9618 21.503 31.8599 21.936 31.8599 23.2607C31.8599 25.2223 32.3694 25.9355 33.7195 25.9355C35.0442 25.9355 35.5537 25.1968 35.5537 23.2607C35.5537 22.0379 35.4263 21.5284 35.0697 21.1208C34.4328 20.433 33.0572 20.4076 32.3694 21.0954Z" fill="#222222"/>
<path d="M115.519 21.1208C115.162 21.5284 115.035 22.0379 115.035 23.2607C115.035 25.1968 115.544 25.9355 116.869 25.9355C118.219 25.9355 118.728 25.2223 118.728 23.2607C118.728 21.936 118.627 21.503 118.219 21.0954C117.531 20.4076 116.156 20.433 115.519 21.1208Z" fill="#222222"/>
<path d="M25.7204 27.7442C25.0836 27.9735 24.4722 28.8905 24.4722 29.6038C24.4722 29.7822 24.7014 30.2407 25.0071 30.6228C25.4912 31.2342 25.6949 31.2852 27.2744 31.2852C28.8538 31.2852 29.0576 31.2342 29.5416 30.6228C30.153 29.8331 30.204 29.5274 29.7964 28.6358C29.3123 27.5913 27.2999 27.1583 25.7204 27.7442Z" fill="#222222"/>
<path d="M121.76 27.7442C121.124 27.9735 120.512 28.8905 120.512 29.6038C120.512 29.7822 120.741 30.2407 121.047 30.6228C121.531 31.2342 121.735 31.2852 123.314 31.2852C124.894 31.2852 125.098 31.2342 125.582 30.6228C126.193 29.8331 126.244 29.5274 125.836 28.6358C125.352 27.5913 123.34 27.1583 121.76 27.7442Z" fill="#222222"/>
<path d="M37.8725 28.2538C37.0064 28.9416 36.9554 30.2154 37.7961 30.9796C38.2801 31.4381 38.6877 31.54 39.9614 31.54C41.8466 31.54 42.5598 31.0305 42.5598 29.6549C42.5598 28.3812 41.6173 27.7188 39.885 27.7188C38.917 27.7188 38.3565 27.8717 37.8725 28.2538Z" fill="#222222"/>
<path d="M108.693 28.2534C107.852 28.9158 107.775 30.2659 108.54 31.0302C109.329 31.8199 112.055 31.7689 112.819 30.9537C113.609 30.1131 113.558 28.9158 112.718 28.2534C112.234 27.8713 111.673 27.7185 110.705 27.7185C109.737 27.7185 109.177 27.8713 108.693 28.2534Z" fill="#222222"/>
<path d="M32.2409 33.7053C31.7059 34.2148 31.604 34.5714 31.604 35.8706C31.604 37.1698 31.7059 37.5265 32.2409 38.036C32.572 38.3926 33.158 38.6729 33.5146 38.6729C33.8712 38.6729 34.4572 38.3926 34.7883 38.036C35.3233 37.5265 35.4252 37.1698 35.4252 35.8706C35.4252 34.5714 35.3233 34.2148 34.7883 33.7053C34.4572 33.3487 33.8712 33.0684 33.5146 33.0684C33.158 33.0684 32.572 33.3487 32.2409 33.7053Z" fill="#222222"/>
<path d="M115.799 33.7053C115.264 34.2148 115.162 34.5714 115.162 35.8706C115.162 37.1698 115.264 37.5265 115.799 38.036C116.13 38.3926 116.716 38.6729 117.073 38.6729C117.429 38.6729 118.015 38.3926 118.346 38.036C118.881 37.5265 118.983 37.1698 118.983 35.8706C118.983 34.5714 118.881 34.2148 118.346 33.7053C118.015 33.3487 117.429 33.0684 117.073 33.0684C116.716 33.0684 116.13 33.3487 115.799 33.7053Z" fill="#222222"/>
<path d="M33.0318 53.7026C31.7581 54.0847 30.4334 55.2056 29.7201 56.4793C29.1852 57.4983 29.0578 58.0587 29.0578 59.6127V61.4723L27.8095 61.9309C24.88 62.9499 22.1287 65.5228 20.8804 68.3505C20.5748 69.0638 18.8934 75.9674 17.1866 83.7372C14.4354 96.0414 14.0787 97.952 14.3589 98.5124C14.9194 99.7097 17.0083 99.8881 17.5942 98.8181C17.7216 98.5379 19.2246 92.1438 20.9059 84.5523C22.5872 76.9864 24.1921 70.2611 24.4978 69.6242C25.2366 68.0703 27.4529 66.0832 29.1087 65.4973C30.3061 65.0897 31.3505 65.0388 38.356 65.0388C46.0239 65.0388 46.2786 65.0643 47.5014 65.6247C50.4055 66.9494 51.7047 68.6817 52.8511 72.6812C53.5644 75.1013 53.9975 75.891 55.1438 76.7316C55.8316 77.2411 56.1628 77.2666 68.9511 77.343L82.045 77.4194L82.6819 76.7826C83.4971 75.9674 83.4971 74.9994 82.6819 74.2096L82.0705 73.5728H69.5879H57.1054L56.5704 71.7131C56.2647 70.7196 55.959 69.6752 55.908 69.4204C55.7807 69.0128 56.8251 68.9873 75.1669 68.9873C93.5086 68.9873 94.553 69.0128 94.4257 69.4204C94.3747 69.6752 94.069 70.7196 93.7633 71.7131L93.2284 73.5728H91.063C89.1015 73.5728 88.8467 73.6237 88.2863 74.2096C87.4711 74.9994 87.4711 75.9674 88.2863 76.7826C88.9232 77.4194 89.025 77.4449 91.7254 77.343C94.0435 77.2921 94.604 77.1902 95.1899 76.7316C96.3363 75.891 96.7948 75.1013 97.4826 72.6812C98.629 68.6817 99.9282 66.9494 102.832 65.6247C104.055 65.0643 104.31 65.0388 111.978 65.0388C118.958 65.0388 120.028 65.0897 121.199 65.4973C122.881 66.0832 124.919 67.8919 125.734 69.5223C126.575 71.1782 136.561 115.988 136.561 118.077C136.535 123.707 132.332 128.623 126.651 129.617C122.32 130.407 117.48 128.343 115.111 124.751C114.627 123.987 112.946 120.573 111.392 117.16C108.615 111.02 108.59 110.919 108.972 110.154C109.736 108.677 110.347 106.537 110.5 104.728C110.628 103.021 110.602 102.869 109.991 102.257C108.666 100.933 106.755 101.875 106.755 103.811C106.755 105.212 106.093 107.581 105.303 109.033C103.8 111.785 100.183 114.205 97.0496 114.561C90.7318 115.326 85.4077 111.122 84.4906 104.652C84.2613 102.97 84.083 102.461 83.599 102.079C83.2678 101.799 82.8602 101.595 82.6564 101.595C81.9431 101.595 81.0515 102.206 80.7713 102.869C80.3382 103.913 80.8732 107.174 81.8922 109.543L82.7328 111.504L81.8157 111.963C81.026 112.371 80.1854 112.422 75.1669 112.422C70.1484 112.422 69.3077 112.371 68.518 111.963L67.6009 111.504L68.4416 109.543C69.4605 107.174 69.9955 103.913 69.5624 102.869C69.2822 102.206 68.3906 101.595 67.6773 101.595C67.4735 101.595 67.0659 101.799 66.7348 102.079C66.2507 102.461 66.0724 102.97 65.8431 104.652C64.9261 111.122 59.6019 115.326 53.2842 114.561C50.1508 114.205 46.5334 111.785 45.0304 109.033C44.2407 107.581 43.5783 105.212 43.5783 103.811C43.5783 101.875 41.6677 100.933 40.3431 102.257C39.7317 102.869 39.7062 103.021 39.8336 104.728C39.9864 106.537 40.5978 108.677 41.362 110.18C41.7442 110.919 41.7187 111.02 39.0184 116.905C35.4774 124.649 35.401 124.777 33.7706 126.407C31.0448 129.133 26.9179 130.356 23.2241 129.541C17.6706 128.267 13.7985 123.554 13.773 118.077C13.773 117.262 14.2825 114.358 14.9194 111.479C15.5563 108.651 16.0657 106.027 16.0657 105.62C16.0657 104.117 13.9259 103.251 12.9324 104.346C12.3719 104.958 10.2066 114.612 10.0283 117.262C9.77352 121.312 11.251 125.465 14.0533 128.471C16.0403 130.585 17.9509 131.833 20.6512 132.776C22.5108 133.413 23.1986 133.54 25.4914 133.54C27.351 133.54 28.6247 133.413 29.6947 133.081C33.0318 132.088 36.1907 129.923 38.1013 127.324C38.8401 126.305 43.0179 117.669 44.1133 114.867L44.368 114.256L45.0559 114.893C46.2786 116.064 48.2402 117.134 50.2782 117.771C54.8381 119.223 60.6209 118.179 64.0599 115.249L65.0534 114.434L66.8367 115.326L68.6199 116.243H75.1669H81.7138L83.4971 115.326L85.2803 114.434L86.2738 115.249C89.7129 118.179 95.4956 119.223 100.056 117.771C102.094 117.134 104.055 116.064 105.278 114.893L105.966 114.256L106.22 114.867C107.316 117.669 111.494 126.305 112.232 127.324C114.143 129.923 117.302 132.088 120.639 133.081C121.709 133.413 122.983 133.54 124.842 133.54C127.135 133.54 127.823 133.413 129.683 132.776C132.383 131.833 134.293 130.585 136.28 128.471C139.057 125.49 140.56 121.312 140.305 117.262C140.204 115.963 138.318 106.945 135.083 92.3476C130.931 73.7002 129.835 69.1402 129.199 67.841C128.078 65.5738 125.989 63.5867 123.543 62.4149L121.556 61.4723L121.531 59.5872C121.531 58.0587 121.403 57.4983 120.868 56.4793C120.13 55.1546 118.83 54.1102 117.429 53.7026C116.257 53.3714 106.883 53.3714 105.66 53.7281C104.412 54.0592 102.73 55.5877 102.144 56.8869C101.813 57.6002 101.66 58.5173 101.66 59.9693V62.0328L100.591 62.5168C99.9791 62.7715 98.8837 63.4848 98.1704 64.0707L96.8203 65.1662H75.1414H53.488L52.2907 64.1726C51.6283 63.6377 50.6093 62.9499 50.0234 62.6442L48.928 62.1092V59.9948C48.928 58.5173 48.7752 57.6002 48.444 56.8869C47.8581 55.5877 46.1767 54.0592 44.9285 53.7281C43.7821 53.3969 34.1018 53.3969 33.0318 53.7026ZM44.4445 57.804C45.0049 58.2625 45.1068 58.5173 45.1068 59.7146V61.0902H38.9929H32.879V59.7655C32.879 58.772 33.0064 58.3135 33.4394 57.8549C33.9744 57.2945 34.1018 57.269 38.8655 57.269C43.4255 57.269 43.8076 57.2945 44.4445 57.804ZM117.047 57.804C117.608 58.2625 117.709 58.5173 117.709 59.7146V61.0902H111.596H105.482V59.7146C105.482 58.5173 105.584 58.2625 106.144 57.804C106.781 57.2945 107.163 57.269 111.596 57.269C116.028 57.269 116.41 57.2945 117.047 57.804Z" fill="#222222"/>
<path d="M108.616 70.8728C103.699 73.1655 105.355 80.6805 110.781 80.706C116.716 80.7315 118.041 72.4522 112.386 70.5416C111.087 70.1086 110.068 70.2105 108.616 70.8728ZM111.851 74.5921C112.462 75.2035 112.488 75.5601 111.953 76.3244C111.494 76.9867 110.297 77.0886 109.813 76.5027C109.354 75.9422 109.431 74.8214 109.966 74.4138C110.603 73.9297 111.265 74.0062 111.851 74.5921Z" fill="#222222"/>
<path d="M34.0249 72.401C32.1907 73.0888 31.35 74.6173 31.35 77.3176V78.6677H29.7451C27.7326 78.6677 26.1023 79.432 25.3635 80.7057C24.9304 81.4699 24.854 82.0558 24.854 84.5269C24.854 86.9979 24.9304 87.5838 25.3635 88.3226C26.2551 89.8256 27.0703 90.2332 29.2866 90.3351L31.2736 90.437L31.401 92.2966C31.5284 94.3346 32.0378 95.481 33.2097 96.3471C33.8211 96.8056 34.356 96.8821 36.8525 96.9585C39.4 97.0349 39.884 96.984 40.8775 96.5C42.406 95.7612 43.0684 94.4365 43.0684 92.0928V90.386H44.7752C47.1188 90.386 48.4435 89.7237 49.1823 88.1952C49.6663 87.2017 49.7172 86.7177 49.6408 84.1702C49.5899 81.6992 49.488 81.1388 49.0294 80.5528C48.0104 79.1772 47.2971 78.846 45.1318 78.7187L43.1193 78.6168L43.0174 76.6043C42.941 74.4899 42.5843 73.7511 41.1832 72.7067C40.5973 72.2736 40.0369 72.1717 37.7696 72.1207C35.859 72.0698 34.7382 72.1462 34.0249 72.401ZM39.2981 78.4384C39.3745 80.9604 39.3745 81.0114 40.2152 81.7501C41.0049 82.4634 41.1578 82.4889 43.4505 82.4889H45.8706V84.5269V86.5649H43.7052C40.0369 86.5649 39.2472 87.3546 39.2472 91.0229V93.1883H37.2092H35.1712V90.7427C35.1712 88.2971 35.1712 88.2971 34.3051 87.431C33.4389 86.5649 33.4389 86.5649 30.9934 86.5649H28.5223L28.5988 84.5778L28.6752 82.6163L31.0953 82.4889C32.42 82.4125 33.7192 82.2342 33.9739 82.1323C34.8146 81.7501 35.1712 80.5783 35.1712 78.3365C35.1712 77.1647 35.2476 76.1203 35.3495 76.0438C35.426 75.9419 36.3431 75.8655 37.362 75.8655H39.1962L39.2981 78.4384Z" fill="#222222"/>
<path d="M99.2648 79.8145C98.7298 79.9928 97.8891 80.5278 97.4306 80.9863C94.0679 84.2216 96.3607 89.877 101.023 89.877C105.786 89.877 108.003 84.0687 104.462 80.8589C102.959 79.5088 101.175 79.1267 99.2648 79.8145ZM101.965 83.6866C102.882 84.5273 102.296 86.0558 101.023 86.0558C99.7743 86.0558 99.1883 84.6547 100.054 83.7121C100.564 83.1517 101.354 83.1262 101.965 83.6866Z" fill="#7557E9"/>
<path d="M118.883 79.8142C116.946 80.502 115.443 82.6164 115.418 84.6799C115.418 86.1574 116.513 88.2208 117.762 89.0615C119.239 90.0295 121.506 90.1314 123.06 89.3162C126.066 87.6859 126.754 83.8647 124.512 81.2917C123.035 79.6104 120.971 79.0754 118.883 79.8142ZM121.583 83.6864C122.474 84.5015 121.914 86.0555 120.717 86.0555C119.468 86.0555 118.832 84.6289 119.672 83.7118C120.182 83.1514 120.971 83.1259 121.583 83.6864Z" fill="#222222"/>
<path d="M64.0851 85.4182C63.7285 85.7494 63.4482 86.3353 63.4482 86.6919C63.4482 87.0486 63.7285 87.6345 64.0851 87.9657C64.6201 88.5261 64.9258 88.6025 66.5052 88.6025C68.0846 88.6025 68.3903 88.5261 68.9253 87.9657C69.2819 87.6345 69.5621 87.0486 69.5621 86.6919C69.5621 86.3353 69.2819 85.7494 68.9253 85.4182C68.3903 84.8578 68.0846 84.7813 66.5052 84.7813C64.9258 84.7813 64.6201 84.8578 64.0851 85.4182Z" fill="#222222"/>
<path d="M81.6627 85.4182C81.3061 85.7494 81.0259 86.3353 81.0259 86.6919C81.0259 87.0486 81.3061 87.6345 81.6627 87.9657C82.1977 88.5261 82.5034 88.6025 84.0828 88.6025C85.6623 88.6025 85.968 88.5261 86.5029 87.9657C86.8596 87.6345 87.1398 87.0486 87.1398 86.6919C87.1398 86.3353 86.8596 85.7494 86.5029 85.4182C85.968 84.8578 85.6623 84.7813 84.0828 84.7813C82.5034 84.7813 82.1977 84.8578 81.6627 85.4182Z" fill="#222222"/>
<path d="M109.175 88.8834C104.691 90.5647 104.462 96.8314 108.844 98.6656C111.773 99.8629 115.187 98.0797 115.926 94.9718C116.41 92.9083 115.518 90.7175 113.659 89.4947C112.512 88.7305 110.398 88.4503 109.175 88.8834ZM111.85 92.9338C112.461 93.5452 112.487 93.9019 111.952 94.6661C111.493 95.3284 110.296 95.4303 109.812 94.8444C109.353 94.284 109.43 93.1631 109.965 92.7555C110.602 92.2715 111.264 92.3479 111.85 92.9338Z" fill="#7557E9"/>
<path d="M51.5268 97.0351C48.2151 98.6909 46.7121 102.155 47.7565 105.722C48.9539 109.9 53.9978 112.091 57.9464 110.155C62.4809 107.938 63.4999 101.901 59.9334 98.3598C57.7171 96.118 54.3799 95.6085 51.5268 97.0351ZM56.9274 100.831C59.0928 102.741 58.5833 105.824 55.9594 106.817C52.9024 107.989 50.2021 104.932 51.6542 101.926C52.2146 100.729 53.3355 100.067 54.8385 100.067C55.8065 100.067 56.2141 100.219 56.9274 100.831Z" fill="#222222"/>
<path d="M92.5919 96.8313C88.0065 99.0221 86.8346 104.728 90.1718 108.55C92.1843 110.842 95.8781 111.53 98.7058 110.155C103.215 107.938 104.285 102.308 100.922 98.4872C99.0625 96.3728 95.1903 95.6085 92.5919 96.8313ZM97.483 100.551C98.8332 101.391 99.521 103.633 98.8332 104.983C97.8906 106.792 96.1583 107.505 94.3751 106.817C91.7512 105.824 91.2417 102.741 93.4071 100.831C94.1204 100.219 94.528 100.067 95.496 100.067C96.2093 100.067 96.999 100.27 97.483 100.551Z" fill="#222222"/>
<path d="M71.983 97.5192C71.7282 97.7994 71.5244 98.3854 71.5244 98.7929C71.5244 99.2005 71.7282 99.7865 71.983 100.067C72.3906 100.525 72.7727 100.576 75.422 100.576C78.0714 100.576 78.4535 100.525 78.8611 100.067C79.1159 99.7865 79.3196 99.2005 79.3196 98.7929C79.3196 98.3854 79.1159 97.7994 78.8611 97.5192C78.4535 97.0607 78.0714 97.0097 75.422 97.0097C72.7727 97.0097 72.3906 97.0607 71.983 97.5192Z" fill="#222222"/>
</g>
<defs>
<filter id="filter0_d_283_435" x="-4" y="0" width="158" height="158" filterUnits="userSpaceOnUse" color-interpolation-filters="sRGB">
<feFlood flood-opacity="0" result="BackgroundImageFix"/>
<feColorMatrix in="SourceAlpha" type="matrix" values="0 0 0 0 0 0 0 0 0 0 0 0 0 0 0 0 0 0 127 0" result="hardAlpha"/>
<feOffset dy="4"/>
<feGaussianBlur stdDeviation="2"/>
<feComposite in2="hardAlpha" operator="out"/>
<feColorMatrix type="matrix" values="0 0 0 0 0 0 0 0 0 0 0 0 0 0 0 0 0 0 0.25 0"/>
<feBlend mode="normal" in2="BackgroundImageFix" result="effect1_dropShadow_283_435"/>
<feBlend mode="normal" in="SourceGraphic" in2="effect1_dropShadow_283_435" result="shape"/>
</filter>
</defs>
</svg>
