<svg width="45" height="46" viewBox="0 0 45 46" fill="none" xmlns="http://www.w3.org/2000/svg">
<g clip-path="url(#clip0_1_779)">
<path d="M44.9763 23.4211C44.9763 21.5774 44.8232 20.2321 44.4919 18.8369H22.9482V27.1581H35.5939C35.339 29.2261 33.9623 32.3404 30.9028 34.433L30.8599 34.7116L37.6716 39.8682L38.1435 39.9143C42.4776 36.0027 44.9763 30.2475 44.9763 23.4211Z" fill="#4285F4"/>
<path d="M22.9481 45.3454C29.1434 45.3454 34.3444 43.3522 38.1433 39.9141L30.9026 34.4329C28.965 35.7534 26.3644 36.6752 22.9481 36.6752C16.8802 36.6752 11.7302 32.7638 9.89433 27.3574L9.62524 27.3798L2.54233 32.7363L2.44971 32.9879C6.22299 40.3126 13.9736 45.3454 22.9481 45.3454Z" fill="#34A853"/>
<path d="M9.89457 27.3572C9.41016 25.9621 9.12982 24.4671 9.12982 22.9225C9.12982 21.3777 9.41016 19.883 9.86908 18.4878L9.85625 18.1906L2.68459 12.748L2.44994 12.8571C0.894791 15.8967 0.00244141 19.31 0.00244141 22.9225C0.00244141 26.5351 0.894791 29.9482 2.44994 32.9877L9.89457 27.3572Z" fill="#FBBC05"/>
<path d="M22.9481 9.17006C27.2567 9.17006 30.1632 10.9888 31.8204 12.5086L38.2962 6.32991C34.3191 2.71737 29.1434 0.5 22.9481 0.5C13.9736 0.5 6.22299 5.53261 2.44971 12.8573L9.86884 18.488C11.7302 13.0816 16.8802 9.17006 22.9481 9.17006Z" fill="#EB4335"/>
</g>
<defs>
<clipPath id="clip0_1_779">
<rect width="45" height="45" fill="white" transform="translate(0 0.5)"/>
</clipPath>
</defs>
</svg>
