<svg width="150" height="150" viewBox="0 0 150 150" fill="none" xmlns="http://www.w3.org/2000/svg">
<g filter="url(#filter0_d_283_457)">
<path d="M26.0453 18.3844C25.5362 18.9378 25.5362 21.1292 26.0232 21.6162C26.5101 22.1253 27.3513 22.0589 27.7497 21.4834C28.2588 20.7529 28.2146 18.9821 27.6612 18.4287C27.1078 17.8753 26.5101 17.8532 26.0453 18.3844Z" fill="#7557E9"/>
<path d="M45.8783 18.451C44.2402 18.9602 42.9121 19.9341 41.7832 21.4172C40.3665 23.2766 40.2337 23.9406 40.0345 29.4966C39.9238 32.2414 39.791 35.1854 39.7025 36.0708C39.5918 37.3768 39.6582 37.8417 40.0345 38.705C40.3001 39.2583 40.4993 39.7675 40.4993 39.8117C40.4993 39.856 39.2819 39.9003 37.7767 39.9003C33.7038 39.9003 31.7116 40.5422 29.6087 42.5122C27.9928 44.0175 27.0632 45.8104 26.6647 48.1346L26.5319 48.9758H25.3366C24.0085 48.9758 23.4551 49.33 23.4551 50.1932C23.4551 50.481 23.6986 50.8794 23.9863 51.1229C24.2962 51.3443 24.9603 52.4732 25.4694 53.6242L26.3991 55.7271L28.2363 71.1112C29.2546 79.5669 30.14 86.7831 30.2285 87.1594C30.4277 88.1333 31.3132 89.7935 32.0879 90.6568L32.752 91.4315L31.9772 92.007C31.5566 92.3391 30.959 93.0253 30.6712 93.5344C30.0072 94.6633 24.5618 116.179 24.5618 117.64C24.5618 119.61 26.1113 121.779 28.1699 122.687L29.2103 123.152V126.738C29.2103 129.637 29.2767 130.434 29.5645 130.833C29.8965 131.32 29.985 131.32 34.8327 131.32C38.7285 131.32 39.8353 131.253 40.1895 131.01C40.5658 130.722 40.61 130.346 40.6764 126.915L40.7428 123.129H47.0293C53.2715 123.129 53.3158 123.129 53.6478 122.642C54.1126 121.978 54.0905 121.668 53.5592 121.137C53.1165 120.695 52.8288 120.695 41.2077 120.695C29.7415 120.695 29.2988 120.672 28.5905 120.252C27.6608 119.676 26.9967 118.57 26.9967 117.596C26.9967 117.175 28.2363 111.907 29.7415 105.908C32.6413 94.3534 32.6634 94.3313 34.1243 93.5565C34.6113 93.313 36.3822 93.2466 43.4876 93.2466C51.9434 93.2466 52.2533 93.2245 52.6738 92.8039C53.2272 92.2505 53.2493 91.6529 52.7181 91.188C52.3418 90.856 51.4564 90.8117 44.6608 90.8117C36.4043 90.8117 35.9616 90.7675 34.4342 89.5943C34.0358 89.2844 33.4603 88.576 33.1283 88.0005C32.6191 87.0487 32.4642 86.119 31.6673 79.4341C31.1582 75.3169 30.7598 71.8195 30.7598 71.6425C30.7598 71.3768 33.1061 71.3326 45.8118 71.3326H60.8639V71.9745C60.8639 72.5057 60.6868 72.7271 59.8457 73.2141C59.1374 73.6346 58.6947 74.0773 58.4069 74.7193C58.0085 75.6047 57.9863 76.5786 57.9863 98.3378V121.027L58.4954 121.912C58.8053 122.488 59.3145 122.974 59.9785 123.284C60.8639 123.749 61.2624 123.793 64.3392 123.793H67.7259V127.335C67.7259 130.589 67.748 130.877 68.1465 131.098C68.4121 131.231 70.2715 131.32 72.6842 131.32C78.0189 131.32 77.6868 131.607 77.6868 127.114V123.793H92.6283H107.57V127.202C107.57 130.014 107.636 130.678 107.924 130.965C108.212 131.253 108.942 131.32 112.462 131.32C117.885 131.32 117.531 131.607 117.531 127.114V123.793H120.807C123.751 123.793 124.171 123.749 125.057 123.307C125.61 123.019 126.274 122.465 126.562 122.045L127.049 121.292L127.005 98.0943C126.938 75.0734 126.938 74.8964 126.473 74.2766C126.23 73.9445 125.588 73.4354 125.057 73.1477L124.083 72.6607H93.6908H63.2988V72.1294C63.2988 71.8417 63.5866 69.119 63.9629 66.1086C64.3171 63.076 64.627 60.4198 64.627 60.1984C64.627 59.8664 64.8704 59.8221 66.9069 59.8221C68.6335 59.8221 69.3861 59.9328 70.0723 60.2427C71.1569 60.7297 71.9316 61.8807 71.9316 63.0096C71.9316 64.2492 72.2637 64.6919 73.1491 64.6919C74.1673 64.6919 74.4551 64.1164 74.3001 62.5227C74.0566 60.2206 72.1751 58.1177 69.9395 57.6307C69.3197 57.4979 67.9694 57.3872 66.9512 57.3872C64.7819 57.3872 64.9368 57.6307 65.291 54.7089C65.6895 51.5435 65.7116 51.4107 66.1322 51.4107C66.752 51.4107 67.5046 50.7688 67.5046 50.2154C67.5046 49.4849 66.8184 48.9758 65.8887 48.9758C65.1361 48.9758 65.0918 48.9315 64.959 48.1346C64.2506 43.9732 61.3288 40.8742 57.3223 40.1216C56.6803 40.0109 54.821 39.9003 53.2051 39.9003H50.2611L50.7259 39.1034C51.0137 38.5943 51.2129 37.7974 51.3014 36.8234C51.4121 35.0526 50.8587 33.5253 49.6634 32.3521C48.9108 31.6216 48.9108 31.5995 48.9108 29.6737V27.7258H56.6361H64.3613L64.6048 28.3677C64.959 29.2089 66.11 30.2714 67.0397 30.5813C67.5267 30.7362 70.1608 30.8247 74.7428 30.8247C80.498 30.8247 81.8262 30.7583 82.4902 30.4927C83.5527 30.05 84.0618 29.5852 84.571 28.5448L84.9915 27.7258H93.2923H101.593V42.6229C101.593 56.7896 101.615 57.5643 101.992 57.8964C102.523 58.3833 103.209 58.3612 103.652 57.8742C104.006 57.4979 104.028 56.0591 104.028 41.826C104.028 26.4641 104.028 26.1763 103.585 25.7336C103.165 25.313 102.855 25.2909 94.0671 25.2909H84.9915V22.856V20.4211L94.1335 20.4432C100.531 20.4432 103.475 20.5318 103.962 20.7089C105.29 21.1958 106.551 22.3026 107.238 23.5422L107.902 24.7375L108.012 44.8365C108.123 64.4263 108.145 64.9576 108.544 65.2675C109.141 65.688 109.473 65.6659 110.005 65.1346C110.447 64.6919 110.447 64.4042 110.447 45.1464C110.447 23.6529 110.469 24.0734 109.097 21.9263C108.322 20.731 107.038 19.5135 105.976 18.9602C104.072 17.9862 104.493 17.9862 75.1413 18.0083C48.0475 18.0083 47.2064 18.0305 45.8783 18.451ZM64.4056 22.856V25.2909H55.8835C45.6569 25.2909 46.4759 25.0253 46.4759 28.3456V30.5149L45.3249 30.537C44.6829 30.537 43.7754 30.6919 43.3327 30.8912L42.4915 31.2453V28.1906C42.4915 25.2245 42.5137 25.0917 43.1777 23.7857C43.9082 22.3247 45.0371 21.2622 46.4095 20.7531C47.0736 20.5096 49.0436 20.4432 55.8392 20.4432L64.4056 20.4211V22.856ZM82.5566 23.9628C82.5566 27.2167 82.5124 27.5487 82.1139 27.9471C81.6934 28.3677 81.3835 28.3899 74.7207 28.3899C68.2129 28.3899 67.748 28.3677 67.2611 27.9693C66.752 27.5487 66.7298 27.4159 66.6634 23.9849L66.597 20.4211H74.5658H82.5566V23.9628ZM47.5163 33.6138C48.5788 34.4328 48.9772 35.3182 48.8665 36.6906C48.5345 40.6307 43.0671 41.0734 42.0488 37.2219C41.6061 35.5617 42.735 33.5695 44.3952 33.0383C45.347 32.7284 46.6973 32.994 47.5163 33.6138ZM58.6947 43.0656C60.709 44.0617 62.1256 45.9432 62.502 48.1346L62.6569 48.9758H45.8118C32.0436 48.9758 28.9889 48.9315 28.9889 48.688C28.9889 47.9576 29.6973 46.0982 30.2949 45.2792C31.1582 44.0839 32.3092 43.2206 33.7038 42.7336C34.7663 42.3794 35.7624 42.3352 46.1439 42.4016L57.4329 42.4458L58.6947 43.0656ZM63.2324 52.0083C63.1881 52.3625 62.7012 56.2805 62.1699 60.7518L61.2181 68.8977H45.7676C31.5345 68.8977 30.3171 68.8755 30.3171 68.5214C30.3171 68.3221 29.9629 65.2232 29.5423 61.6151C28.7897 55.4615 28.7012 54.9966 27.9928 53.3807C27.5723 52.451 27.2181 51.632 27.2181 51.5435C27.2181 51.4771 35.3418 51.4107 45.2806 51.4107H63.3431L63.2324 52.0083ZM107.348 98.2271V121.359H84.2832C63.1439 121.359 61.196 121.336 60.8197 120.982C60.4434 120.65 60.4212 119.654 60.4212 98.2714C60.4212 77.774 60.4434 75.8703 60.7975 75.494C61.1296 75.1177 62.1478 75.0956 84.2611 75.0956H107.348V98.2271ZM124.193 75.3169C124.614 75.5383 124.614 76.0474 124.614 98.2271C124.614 120.407 124.614 120.916 124.193 121.137C123.906 121.27 121.161 121.359 116.778 121.359H109.783V98.2271V75.0956H116.778C121.161 75.0956 123.906 75.1841 124.193 75.3169ZM38.2858 126.007V128.885H34.9655H31.6452V126.007V123.129H34.9655H38.2858V126.007ZM75.252 126.339V128.885H72.5957H69.9395V126.339V123.793H72.5957H75.252V126.339ZM115.096 126.339V128.885H112.55H110.005V126.339V123.793H112.55H115.096V126.339Z" fill="#222222"/>
<path d="M65.5576 80.2314C65.1813 80.6077 65.1813 115.847 65.5576 116.224C65.7568 116.423 70.1175 116.489 83.7972 116.489C99.8454 116.489 101.815 116.445 102.125 116.135C102.435 115.825 102.479 113.899 102.479 98.2275C102.479 82.5557 102.435 80.6299 102.125 80.32C101.815 80.0101 99.8454 79.9658 83.7972 79.9658C70.1175 79.9658 65.7568 80.0322 65.5576 80.2314ZM100.045 98.2275V114.054H83.7751H67.5055V98.2275V82.4007H83.7751H100.045V98.2275Z" fill="#222222"/>
<path d="M112.994 80.7625C112.484 81.2716 112.662 82.2234 113.326 82.5555C114.012 82.9096 120.453 82.9539 121.073 82.6219C121.826 82.2234 122.047 81.5594 121.626 80.9396C121.294 80.4083 121.272 80.4083 117.31 80.4083C113.968 80.4083 113.304 80.4526 112.994 80.7625Z" fill="#222222"/>
<path d="M112.883 90.17C112.507 90.8341 112.706 91.5424 113.326 91.8523C114.012 92.2065 120.454 92.2508 121.073 91.9187C121.826 91.5203 122.047 90.8562 121.627 90.2364C121.295 89.7052 121.273 89.7052 117.2 89.7052C113.304 89.7052 113.105 89.7273 112.883 90.17Z" fill="#222222"/>
<path d="M112.883 99.4229C112.596 99.9984 112.596 100.618 112.928 100.95C113.105 101.127 114.389 101.216 117.244 101.216H121.295L121.649 100.662C121.981 100.153 121.981 100.065 121.649 99.5557L121.295 99.0023H117.2C113.393 99.0023 113.105 99.0244 112.883 99.4229Z" fill="#222222"/>
<path d="M115.208 107.546C113.415 108.52 112.529 110.136 112.706 112.084C113.083 116.002 118.129 117.441 120.808 114.408C122.534 112.438 122.114 109.45 119.9 107.923C119.17 107.414 118.749 107.303 117.443 107.237C116.314 107.192 115.695 107.281 115.208 107.546ZM118.085 109.716C119.103 110.158 119.613 110.977 119.435 111.951C118.971 114.364 115.097 114.099 115.097 111.641C115.097 110.69 115.407 110.225 116.314 109.738C117.133 109.339 117.156 109.339 118.085 109.716Z" fill="#7557E9"/>
<path d="M21.3972 23.0329C20.4675 24.0511 21.2422 25.0693 22.9688 25.0693C23.8763 25.0693 24.1641 24.9808 24.4297 24.5824C24.8946 23.9183 24.8724 23.6084 24.3412 23.0771C23.7435 22.4795 21.9063 22.4574 21.3972 23.0329Z" fill="#7557E9"/>
<path d="M29.3439 22.9886C29.1447 23.1657 28.9897 23.5641 28.9897 23.8519C28.9897 24.6709 29.5653 25.0693 30.7384 25.0693C32.0002 25.0693 32.5978 24.693 32.5978 23.8519C32.5978 23.4977 32.4207 23.0993 32.1772 22.9222C31.6239 22.5238 29.7645 22.5459 29.3439 22.9886Z" fill="#7557E9"/>
<path d="M26.0227 26.3095C25.5136 26.8186 25.5357 28.8772 26.067 29.3421C26.6204 29.829 27.1295 29.8069 27.6607 29.2756C28.2141 28.7223 28.2584 27.1728 27.7493 26.4423C27.3508 25.8668 26.5097 25.8004 26.0227 26.3095Z" fill="#7557E9"/>
<path d="M122.976 47.0503C122.378 47.493 122.223 49.4409 122.71 50.1935C123.109 50.7912 124.105 50.9461 124.57 50.4813C124.725 50.3263 124.835 49.618 124.835 48.8433C124.835 47.6479 124.769 47.4045 124.348 47.1167C123.751 46.6961 123.485 46.674 122.976 47.0503Z" fill="#7557E9"/>
<path d="M118.461 51.5658C117.907 51.7871 117.708 52.7389 118.084 53.3145C118.372 53.7572 118.615 53.8457 119.545 53.8457C120.165 53.8457 120.851 53.735 121.095 53.6243C121.692 53.2923 121.648 52.2077 121.028 51.765C120.563 51.4329 119.08 51.3223 118.461 51.5658Z" fill="#7557E9"/>
<path d="M126.164 51.8535C125.633 52.3848 125.611 52.6947 126.076 53.3587C126.341 53.7572 126.629 53.8457 127.603 53.8457C128.931 53.8457 129.484 53.4915 129.484 52.6283C129.484 51.8978 128.688 51.4108 127.559 51.4108C126.895 51.4108 126.474 51.5436 126.164 51.8535Z" fill="#7557E9"/>
<path d="M122.845 55.1735C122.291 55.7269 122.247 57.2764 122.756 58.0068C123.155 58.5824 123.996 58.6488 124.483 58.1396C124.992 57.6305 124.97 55.5719 124.438 55.1071C123.885 54.6201 123.376 54.6422 122.845 55.1735Z" fill="#7557E9"/>
<path d="M102.126 62.5231C100.687 63.2093 101.218 65.3564 102.812 65.3564C104.229 65.3564 104.804 63.6077 103.675 62.7223C103.011 62.2132 102.812 62.1911 102.126 62.5231Z" fill="#222222"/>
<path d="M71.645 68.012C71.2466 68.344 71.0474 68.6982 71.0474 69.1409C71.0474 70.5797 72.8182 71.1995 73.7036 70.0706C74.8104 68.6539 73.0617 66.9052 71.645 68.012Z" fill="#222222"/>
<path d="M44.5509 99.0238C42.1825 99.3337 39.6369 101.237 38.508 103.539C38.021 104.491 37.9546 104.956 37.9546 106.97C37.9546 109.782 38.3752 110.844 40.2788 112.748C41.8504 114.341 43.4442 114.983 45.8127 114.983C48.9338 114.983 51.3908 113.5 52.9181 110.689C53.6486 109.361 53.6707 109.206 53.6707 106.97C53.6707 104.735 53.6486 104.58 52.9181 103.252C51.1916 100.086 48.159 98.5368 44.5509 99.0238ZM44.7059 106.97C44.7059 111.353 44.6395 112.504 44.4181 112.504C44.2632 112.504 43.5991 112.172 42.9351 111.774C40.965 110.601 39.8361 108.276 40.1903 106.085C40.4338 104.602 41.5627 102.964 42.9351 102.167C43.5991 101.769 44.2632 101.437 44.4181 101.437C44.6395 101.437 44.7059 102.588 44.7059 106.97ZM48.646 102.123C52.3426 104.226 52.3426 109.715 48.646 111.818C48.0041 112.194 47.34 112.504 47.2072 112.504C46.9858 112.504 46.9194 111.243 46.9194 106.97C46.9194 102.698 46.9858 101.437 47.2072 101.437C47.34 101.437 48.0041 101.746 48.646 102.123Z" fill="#7557E9"/>
</g>
<defs>
<filter id="filter0_d_283_457" x="-4" y="0" width="158" height="158" filterUnits="userSpaceOnUse" color-interpolation-filters="sRGB">
<feFlood flood-opacity="0" result="BackgroundImageFix"/>
<feColorMatrix in="SourceAlpha" type="matrix" values="0 0 0 0 0 0 0 0 0 0 0 0 0 0 0 0 0 0 127 0" result="hardAlpha"/>
<feOffset dy="4"/>
<feGaussianBlur stdDeviation="2"/>
<feComposite in2="hardAlpha" operator="out"/>
<feColorMatrix type="matrix" values="0 0 0 0 0 0 0 0 0 0 0 0 0 0 0 0 0 0 0.25 0"/>
<feBlend mode="normal" in2="BackgroundImageFix" result="effect1_dropShadow_283_457"/>
<feBlend mode="normal" in="SourceGraphic" in2="effect1_dropShadow_283_457" result="shape"/>
</filter>
</defs>
</svg>
