<svg width="479" height="100" viewBox="0 0 479 100" fill="none" xmlns="http://www.w3.org/2000/svg">
<rect x="396.843" y="18.0714" width="21.913" height="21.913" fill="#fff"/>
<rect x="455.277" y="18.0714" width="21.913" height="21.913" fill="#fff"/>
<path d="M396.843 53.1322H418.756C418.756 72.7079 432.147 76.3844 438.843 75.7757C453.159 75.7757 455.764 60.68 455.277 53.1322H477.19C477.19 88.4852 451.625 96.5931 438.843 96.2279C403.782 97.3965 396.234 67.9844 396.843 53.1322Z" fill="#fff" stroke="#fff" stroke-width="0.730435"/>
<rect x="288.349" y="16.0349" width="10.7234" height="10.7234" fill="#fff"/>
<rect x="316.944" y="16.0349" width="10.7234" height="10.7234" fill="#fff"/>
<path d="M288.349 33.1923H299.072C299.072 42.7718 305.625 44.571 308.902 44.2731C315.908 44.2731 317.183 36.8859 316.944 33.1923H327.668C327.668 50.4927 315.157 54.4603 308.902 54.2816C291.744 54.8535 288.051 40.4603 288.349 33.1923Z" fill="#fff" stroke="#fff" stroke-width="0.357446"/>
<path d="M260.438 15.2689C263.294 15.2689 265.804 15.8446 267.969 16.9961C270.134 18.1016 271.838 19.5524 273.082 21.3488V15.8907H282.823V54.4429C282.823 57.9895 282.109 61.1446 280.681 63.9082C279.254 66.7178 277.112 68.9287 274.256 70.5408C271.4 72.199 267.946 73.028 263.893 73.028C258.458 73.028 253.99 71.7614 250.489 69.2281C247.035 66.6948 245.077 63.2403 244.617 58.8646H254.22C254.727 60.6149 255.809 61.9967 257.467 63.01C259.171 64.0694 261.221 64.5991 263.616 64.5991C266.426 64.5991 268.706 63.747 270.456 62.0427C272.206 60.3846 273.082 57.8513 273.082 54.4429V48.5011C271.838 50.2975 270.111 51.7944 267.9 52.992C265.735 54.1895 263.248 54.7883 260.438 54.7883C257.214 54.7883 254.266 53.9592 251.595 52.3011C248.923 50.6429 246.804 48.3169 245.238 45.323C243.718 42.283 242.958 38.8055 242.958 34.8904C242.958 31.0214 243.718 27.5899 245.238 24.596C246.804 21.6021 248.9 19.2991 251.526 17.687C254.197 16.0749 257.168 15.2689 260.438 15.2689ZM273.082 35.0286C273.082 32.6795 272.621 30.6759 271.7 29.0178C270.779 27.3135 269.535 26.0239 267.969 25.1487C266.403 24.2275 264.722 23.7669 262.925 23.7669C261.129 23.7669 259.471 24.2045 257.951 25.0796C256.431 25.9548 255.187 27.2445 254.22 28.9487C253.299 30.6068 252.838 32.5874 252.838 34.8904C252.838 37.1934 253.299 39.22 254.22 40.9703C255.187 42.6745 256.431 43.9872 257.951 44.9084C259.517 45.8296 261.175 46.2902 262.925 46.2902C264.722 46.2902 266.403 45.8527 267.969 44.9775C269.535 44.0563 270.779 42.7667 271.7 41.1085C272.621 39.4043 273.082 37.3776 273.082 35.0286Z" fill="#fff"/>
<path d="M241.84 34.1995C241.84 35.5813 241.748 36.8249 241.564 37.9304H213.582C213.812 40.694 214.78 42.8588 216.484 44.4248C218.188 45.9909 220.284 46.7739 222.771 46.7739C226.364 46.7739 228.92 45.2309 230.44 42.1448H240.873C239.767 45.8296 237.649 48.8696 234.516 51.2647C231.384 53.6138 227.538 54.7883 222.978 54.7883C219.294 54.7883 215.977 53.9823 213.029 52.3702C210.128 50.712 207.848 48.386 206.19 45.3921C204.577 42.3982 203.771 38.9437 203.771 35.0286C203.771 31.0674 204.577 27.5899 206.19 24.596C207.802 21.6021 210.059 19.2991 212.96 17.687C215.862 16.0749 219.202 15.2689 222.978 15.2689C226.617 15.2689 229.864 16.0519 232.72 17.6179C235.622 19.184 237.856 21.4179 239.422 24.3196C241.034 27.1754 241.84 30.4686 241.84 34.1995ZM231.822 31.4359C231.776 28.9487 230.878 26.9681 229.127 25.4942C227.377 23.9742 225.235 23.2142 222.702 23.2142C220.307 23.2142 218.28 23.9512 216.622 25.4251C215.01 26.8529 214.02 28.8565 213.651 31.4359H231.822Z" fill="#fff"/>
<path d="M172.561 21.4179C173.805 19.6676 175.509 18.2167 177.674 17.0652C179.885 15.8676 182.395 15.2689 185.205 15.2689C188.475 15.2689 191.423 16.0749 194.048 17.687C196.72 19.2991 198.815 21.6021 200.335 24.596C201.901 27.5438 202.684 30.9753 202.684 34.8904C202.684 38.8055 201.901 42.283 200.335 45.323C198.815 48.3169 196.72 50.6429 194.048 52.3011C191.423 53.9592 188.475 54.7883 185.205 54.7883C182.395 54.7883 179.908 54.2126 177.743 53.0611C175.624 51.9096 173.897 50.4587 172.561 48.7084V72.4062H162.889V15.8907H172.561V21.4179ZM192.804 34.8904C192.804 32.5874 192.321 30.6068 191.354 28.9487C190.432 27.2445 189.189 25.9548 187.623 25.0796C186.103 24.2045 184.445 23.7669 182.648 23.7669C180.898 23.7669 179.24 24.2275 177.674 25.1487C176.154 26.0239 174.91 27.3135 173.943 29.0178C173.022 30.722 172.561 32.7256 172.561 35.0286C172.561 37.3316 173.022 39.3352 173.943 41.0394C174.91 42.7436 176.154 44.0563 177.674 44.9775C179.24 45.8527 180.898 46.2902 182.648 46.2902C184.445 46.2902 186.103 45.8296 187.623 44.9084C189.189 43.9872 190.432 42.6745 191.354 40.9703C192.321 39.2661 192.804 37.2395 192.804 34.8904Z" fill="#fff"/>
<path d="M117.031 34.8904C117.031 31.0214 117.791 27.5899 119.311 24.596C120.877 21.6021 122.973 19.2991 125.598 17.687C128.27 16.0749 131.241 15.2689 134.511 15.2689C137.367 15.2689 139.854 15.8446 141.973 16.9961C144.137 18.1476 145.865 19.5985 147.154 21.3488V15.8907H156.896V54.1665H147.154V48.5702C145.911 50.3666 144.184 51.8635 141.973 53.0611C139.808 54.2126 137.298 54.7883 134.442 54.7883C131.218 54.7883 128.27 53.9592 125.598 52.3011C122.973 50.6429 120.877 48.3169 119.311 45.323C117.791 42.283 117.031 38.8055 117.031 34.8904ZM147.154 35.0286C147.154 32.6795 146.694 30.6759 145.773 29.0178C144.851 27.3135 143.608 26.0239 142.042 25.1487C140.476 24.2275 138.794 23.7669 136.998 23.7669C135.202 23.7669 133.544 24.2045 132.024 25.0796C130.504 25.9548 129.26 27.2445 128.293 28.9487C127.372 30.6068 126.911 32.5874 126.911 34.8904C126.911 37.1934 127.372 39.22 128.293 40.9703C129.26 42.6745 130.504 43.9872 132.024 44.9084C133.59 45.8296 135.248 46.2902 136.998 46.2902C138.794 46.2902 140.476 45.8527 142.042 44.9775C143.608 44.0563 144.851 42.7667 145.773 41.1085C146.694 39.4043 147.154 37.3776 147.154 35.0286Z" fill="#fff"/>
<path d="M99.9714 54.7883C96.8393 54.7883 94.0296 54.2356 91.5424 53.1301C89.0551 51.9786 87.0746 50.4356 85.6006 48.5011C84.1728 46.5666 83.3898 44.4248 83.2516 42.0758H92.9933C93.1775 43.5497 93.8914 44.7703 95.1351 45.7375C96.4247 46.7048 98.0138 47.1884 99.9023 47.1884C101.745 47.1884 103.173 46.8199 104.186 46.083C105.245 45.346 105.775 44.4018 105.775 43.2503C105.775 42.0067 105.13 41.0855 103.84 40.4867C102.597 39.8418 100.593 39.1509 97.8296 38.414C94.9739 37.7231 92.6248 37.0092 90.7824 36.2722C88.9861 35.5352 87.42 34.4068 86.0843 32.8868C84.7946 31.3668 84.1498 29.3171 84.1498 26.7378C84.1498 24.619 84.7485 22.6845 85.9461 20.9342C87.1897 19.184 88.94 17.8022 91.1969 16.7888C93.4999 15.7755 96.1944 15.2689 99.2805 15.2689C103.84 15.2689 107.479 16.4204 110.197 18.7234C112.914 20.9803 114.411 24.0433 114.688 27.9123H105.429C105.291 26.3923 104.646 25.1948 103.495 24.3196C102.39 23.3984 100.893 22.9378 99.0041 22.9378C97.2538 22.9378 95.895 23.2603 94.9278 23.9051C94.0066 24.5499 93.546 25.4481 93.546 26.5996C93.546 27.8893 94.1908 28.8796 95.4805 29.5705C96.7702 30.2153 98.7738 30.8832 101.491 31.5741C104.255 32.265 106.535 32.9789 108.331 33.7159C110.128 34.4528 111.671 35.6043 112.96 37.1704C114.296 38.6903 114.987 40.717 115.033 43.2503C115.033 45.4612 114.411 47.4417 113.168 49.192C111.97 50.9423 110.22 52.3241 107.917 53.3374C105.66 54.3047 103.011 54.7883 99.9714 54.7883Z" fill="#fff"/>
<path d="M81.7186 34.1995C81.7186 35.5813 81.6265 36.8249 81.4423 37.9304H53.4609C53.6912 40.694 54.6584 42.8588 56.3626 44.4248C58.0669 45.9909 60.1626 46.7739 62.6498 46.7739C66.2425 46.7739 68.7988 45.2309 70.3188 42.1448H80.7514C79.6459 45.8296 77.5272 48.8696 74.3951 51.2647C71.263 53.6138 67.417 54.7883 62.8571 54.7883C59.1723 54.7883 55.856 53.9823 52.9081 52.3702C50.0064 50.712 47.7264 48.386 46.0682 45.3921C44.4561 42.3982 43.6501 38.9437 43.6501 35.0286C43.6501 31.0674 44.4561 27.5899 46.0682 24.596C47.6803 21.6021 49.9373 19.2991 52.839 17.687C55.7408 16.0749 59.0802 15.2689 62.8571 15.2689C66.4958 15.2689 69.7431 16.0519 72.5988 17.6179C75.5005 19.184 77.7345 21.4179 79.3005 24.3196C80.9126 27.1754 81.7186 30.4686 81.7186 34.1995ZM71.7006 31.4359C71.6545 28.9487 70.7564 26.9681 69.0061 25.4942C67.2558 23.9742 65.114 23.2142 62.5807 23.2142C60.1856 23.2142 58.159 23.9512 56.5008 25.4251C54.8887 26.8529 53.8984 28.8565 53.5299 31.4359H71.7006Z" fill="#fff"/>
<path d="M0.279968 34.8904C0.279968 31.0214 1.03996 27.5899 2.55994 24.596C4.12597 21.6021 6.24473 19.2991 8.91621 17.687C11.5877 16.0749 14.5586 15.2689 17.8288 15.2689C20.316 15.2689 22.6881 15.8216 24.9451 16.927C27.202 17.9864 28.9984 19.4143 30.3341 21.2106V3.03995H40.1449V54.1665H30.3341V48.5011C29.1365 50.3896 27.4553 51.9096 25.2905 53.0611C23.1257 54.2126 20.6154 54.7883 17.7597 54.7883C14.5355 54.7883 11.5877 53.9592 8.91621 52.3011C6.24473 50.6429 4.12597 48.3169 2.55994 45.323C1.03996 42.283 0.279968 38.8055 0.279968 34.8904ZM30.4032 35.0286C30.4032 32.6795 29.9426 30.6759 29.0214 29.0178C28.1002 27.3135 26.8566 26.0239 25.2905 25.1487C23.7245 24.2275 22.0433 23.7669 20.247 23.7669C18.4506 23.7669 16.7925 24.2045 15.2725 25.0796C13.7525 25.9548 12.5089 27.2445 11.5416 28.9487C10.6204 30.6068 10.1598 32.5874 10.1598 34.8904C10.1598 37.1934 10.6204 39.22 11.5416 40.9703C12.5089 42.6745 13.7525 43.9873 15.2725 44.9085C16.8385 45.8297 18.4967 46.2902 20.247 46.2902C22.0433 46.2902 23.7245 45.8527 25.2905 44.9775C26.8566 44.0563 28.1002 42.7667 29.0214 41.1085C29.9426 39.4043 30.4032 37.3776 30.4032 35.0286Z" fill="#fff"/>
<path fill-rule="evenodd" clip-rule="evenodd" d="M381.627 54.1665V15.8907H371.954V54.1665H381.627Z" fill="#fff"/>
<path d="M368.349 34.1995C368.349 35.5813 368.256 36.8249 368.072 37.9304H340.091C340.321 40.694 341.288 42.8588 342.993 44.4248C344.697 45.9909 346.792 46.7739 349.28 46.7739C352.872 46.7739 355.429 45.2309 356.949 42.1448H367.381C366.276 45.8296 364.157 48.8696 361.025 51.2647C357.893 53.6138 354.047 54.7883 349.487 54.7883C345.802 54.7883 342.486 53.9823 339.538 52.3702C336.636 50.712 334.356 48.386 332.698 45.3921C331.086 42.3982 330.28 38.9437 330.28 35.0286C330.28 31.0674 331.086 27.5899 332.698 24.596C334.31 21.6021 336.567 19.2991 339.469 17.687C342.371 16.0749 345.71 15.2689 349.487 15.2689C353.126 15.2689 356.373 16.0519 359.229 17.6179C362.13 19.184 364.364 21.4179 365.93 24.3196C367.542 27.1754 368.349 30.4686 368.349 34.1995ZM358.33 31.4359C358.284 28.9487 357.386 26.9681 355.636 25.4942C353.886 23.9742 351.744 23.2142 349.211 23.2142C346.815 23.2142 344.789 23.9512 343.131 25.4251C341.519 26.8529 340.528 28.8565 340.16 31.4359H358.33Z" fill="#fff"/>
<path d="M379.574 98.9919C378.646 98.9919 377.861 98.6427 377.218 97.9443C376.576 97.2459 376.254 96.3923 376.254 95.3835C376.254 94.3746 376.576 93.521 377.218 92.8226C377.861 92.1242 378.646 91.775 379.574 91.775C380.467 91.775 381.217 92.1242 381.823 92.8226C382.466 93.521 382.787 94.3746 382.787 95.3835C382.787 96.3923 382.466 97.2459 381.823 97.9443C381.217 98.6427 380.467 98.9919 379.574 98.9919Z" fill="#fff"/>
<path d="M374.267 81.4734C374.267 82.4822 374.213 83.5492 374.106 84.6744H350.652C350.83 87.8173 351.812 90.2811 353.597 92.066C355.418 93.812 357.613 94.685 360.183 94.685C362.29 94.685 364.039 94.1612 365.431 93.1136C366.859 92.0272 367.859 90.5916 368.43 88.8067H373.678C372.892 91.872 371.322 94.3746 368.965 96.3147C366.609 98.2159 363.682 99.1665 360.183 99.1665C357.399 99.1665 354.9 98.4875 352.687 97.1295C350.509 95.7714 348.795 93.8508 347.546 91.3676C346.296 88.8455 345.672 85.9355 345.672 82.6374C345.672 79.3393 346.279 76.4487 347.492 73.9654C348.706 71.4822 350.402 69.581 352.58 68.2617C354.793 66.9037 357.328 66.2247 360.183 66.2247C362.968 66.2247 365.431 66.8843 367.573 68.2035C369.715 69.5228 371.357 71.3464 372.5 73.6744C373.678 75.9637 374.267 78.5633 374.267 81.4734ZM369.233 80.3676C369.233 78.3499 368.823 76.6233 368.002 75.1877C367.18 73.7132 366.056 72.6074 364.628 71.8702C363.236 71.0942 361.683 70.7062 359.969 70.7062C357.506 70.7062 355.4 71.5598 353.651 73.267C351.937 74.9743 350.955 77.3411 350.705 80.3676H369.233Z" fill="#fff"/>
<path d="M330.289 66.1665C332.573 66.1665 334.608 66.6903 336.393 67.7379C338.178 68.7468 339.588 70.2794 340.624 72.3358C341.659 74.3923 342.176 76.8949 342.176 79.8438V98.6427H337.357V80.6004C337.357 77.4187 336.625 74.9937 335.162 73.3252C333.734 71.618 331.788 70.7644 329.325 70.7644C326.79 70.7644 324.773 71.6568 323.274 73.4416C321.774 75.1877 321.025 77.7291 321.025 81.066V98.6427H316.205V80.6004C316.205 77.4187 315.473 74.9937 314.01 73.3252C312.582 71.618 310.636 70.7644 308.173 70.7644C305.638 70.7644 303.621 71.6568 302.122 73.4416C300.623 75.1877 299.873 77.7291 299.873 81.066V98.6427H295V66.7485H299.873V71.3464C300.837 69.678 302.122 68.3975 303.728 67.5051C305.371 66.6127 307.173 66.1665 309.137 66.1665C311.6 66.1665 313.778 66.7679 315.67 67.9707C317.562 69.1736 318.972 70.939 319.9 73.267C320.721 71.0166 322.078 69.2706 323.97 68.0289C325.862 66.7873 327.968 66.1665 330.289 66.1665Z" fill="#fff"/>
</svg>
