<svg width="150" height="150" viewBox="0 0 150 150" fill="none" xmlns="http://www.w3.org/2000/svg">
<g filter="url(#filter0_d_283_422)">
<path d="M30.8008 17.4751C29.043 18.0904 26.7871 20.229 25.8203 22.1919L25 23.8619V74.6919V125.522L25.7617 127.133C26.8164 129.389 27.7539 130.385 29.8926 131.557L31.7383 132.553L36.8066 132.641C41.084 132.729 41.9629 132.7 42.5781 132.29C43.457 131.704 43.5449 130.649 42.7832 129.975C42.3145 129.565 41.5234 129.477 37.8613 129.477C32.5586 129.477 31.5332 129.213 29.9219 127.573C28.3398 125.932 28.0176 124.379 28.1348 119.37L28.2227 115.561L38.125 115.415C46.5039 115.297 48.0566 115.21 48.291 114.829C48.7012 114.213 48.6426 113.569 48.1738 112.895C47.7637 112.368 47.2656 112.338 37.9199 112.251L28.0762 112.163L28.1348 68.2759L28.2227 24.3892L29.1016 22.983C29.6875 22.0455 30.4199 21.3423 31.2695 20.8736C32.5293 20.229 32.793 20.1998 40 20.1998H47.4121V22.3677C47.4121 24.7115 47.9395 25.854 49.5508 27.0552C50.3418 27.6412 50.7812 27.6705 59.9512 27.7583C65.2246 27.8169 69.9414 27.7583 70.4688 27.6705C71.6113 27.4654 73.0469 26.3228 73.6621 25.1216C73.8965 24.6529 74.1895 23.3345 74.2773 22.2212L74.4531 20.1998H81.8359H89.248L90.6543 21.1373C91.4453 21.6939 92.2949 22.6021 92.6465 23.2759C93.2617 24.4185 93.2617 24.8873 93.3496 43.4029L93.4082 62.3872L94.1699 62.856C95.0781 63.4712 96.25 63.0611 96.4844 62.0357C96.5723 61.6548 96.6016 52.9244 96.5723 42.6119L96.4844 23.8619L95.7812 22.3091C94.9023 20.3755 92.4707 18.0904 90.5957 17.4458C89.3359 17.0357 86.1426 16.9771 60.625 17.0064C36.0156 17.0064 31.8555 17.0943 30.8008 17.4751ZM71.084 21.9869C70.9961 23.3052 70.791 23.8912 70.4102 24.1841C69.9707 24.5064 67.9785 24.5943 60.7129 24.5943C50.1367 24.5943 50.6348 24.7408 50.6348 21.9283V20.1998H60.918H71.2012L71.084 21.9869Z" fill="#222222"/>
<path d="M40.1758 40.415C39.1797 40.8252 38.9746 42.1436 39.7949 42.8174C40.3809 43.2861 41.084 43.3447 46.9727 43.3447C53.0078 43.3447 53.5059 43.3154 53.9746 42.7881C54.6485 42.0264 54.4727 40.9424 53.5645 40.5029C52.6856 40.0635 41.2305 40.0049 40.1758 40.415Z" fill="#7557E9"/>
<path d="M58.8387 41.0007C58.1649 41.6745 58.1063 42.1725 58.6336 42.8171C59.2781 43.6374 60.0106 43.6667 60.743 42.9049C61.5047 42.1725 61.4754 41.4401 60.6551 40.7663C60.0106 40.2682 59.5125 40.3268 58.8387 41.0007Z" fill="#7557E9"/>
<path d="M74.0718 61.3623C73.8374 61.4209 72.6655 61.626 71.4644 61.8018C63.6714 63.0908 56.3472 67.6611 51.396 74.3994C48.9937 77.6514 46.3569 83.4521 46.5913 85.0049C46.7085 85.8838 47.8804 86.4697 48.73 86.0596C49.1987 85.8545 49.6089 85.1807 50.0484 83.8037C51.4253 79.7607 54.0034 75.7471 57.2847 72.6123C60.1558 69.8877 61.6499 68.833 65.1069 67.1924C73.1343 63.4131 82.4507 63.6182 90.3901 67.8076C96.8648 71.2061 101.845 76.9775 104.13 83.6865C105.332 87.2607 105.712 89.5166 105.712 93.3838C105.712 103.726 99.9702 113.306 90.7417 118.345L88.5737 119.517H77.148H65.7222L63.5249 118.315C60.5952 116.733 58.6616 115.21 56.1128 112.485C52.2749 108.384 49.7261 103.022 48.7886 97.1631C48.5542 95.7275 48.2319 94.4385 48.0562 94.2627C47.5581 93.7646 46.1812 93.9111 45.7417 94.4971C45.2437 95.1709 45.273 96.0791 45.8003 98.9209C47.2651 106.597 51.6011 113.687 57.812 118.579L58.9839 119.487L51.1909 119.517C44.5698 119.517 43.3394 119.575 43.0171 119.956C42.7534 120.278 42.6948 121.011 42.7827 122.3C43.1636 126.929 46.6792 130.767 51.4546 131.792C52.3042 131.968 55.6734 132.114 58.9253 132.114C63.8179 132.114 64.9605 132.026 65.5171 131.646C66.2202 131.147 66.396 129.741 65.7808 129.243C65.5757 129.067 62.7046 128.892 58.5444 128.833C50.9859 128.716 50.4878 128.599 48.437 126.812C47.4116 125.903 46.8257 124.995 46.2398 123.472L45.9468 122.739H77.148H108.349L107.91 123.823C107.177 125.552 105.947 126.899 104.218 127.866L102.636 128.745L89.8042 128.833L77.0015 128.921L76.562 129.595C76.0054 130.444 76.4448 131.675 77.4116 131.938C77.7339 132.026 88.1343 132.114 100.527 132.114C122.617 132.114 122.998 132.114 123.584 131.528C124.14 130.972 124.169 130.562 124.169 119.429C124.169 110.142 124.082 107.798 123.759 107.358C123.466 106.978 122.88 106.772 121.562 106.685L119.775 106.567V92.9736C119.775 79.7607 119.746 79.3506 119.189 78.7939C118.867 78.4717 118.398 78.208 118.164 78.208C117.783 78.208 117.724 77.1533 117.724 70.5029C117.724 62.0361 117.636 61.5088 116.025 61.5088C115.38 61.5088 114.267 62.4756 110.4 66.3428L105.566 71.1768L105.419 74.6045L105.273 78.0615L104.072 76.1572C99.2085 68.3936 90.9761 63.0322 81.8062 61.6553C79.2573 61.2744 75.3316 61.1279 74.0718 61.3623ZM114.501 72.6416V78.208H111.572H108.642V75.5127V72.7881L111.484 69.9463C113.066 68.3643 114.384 67.0752 114.414 67.0752C114.472 67.0752 114.501 69.5654 114.501 72.6416ZM116.552 94.0283V106.626H111.308H106.064L106.884 104.487C109.345 98.1592 109.609 89.5166 107.47 83.3643C107.148 82.3975 106.884 81.5771 106.884 81.5186C106.884 81.4893 109.052 81.4307 111.718 81.4307H116.552V94.0283ZM120.947 119.37V128.892H114.765C109.931 128.892 108.642 128.804 108.818 128.511C108.964 128.335 109.433 127.632 109.873 127.017C111.484 124.761 112.187 120.454 111.015 119.81C110.693 119.663 108.584 119.517 106.328 119.517H102.197V116.235V112.954L103.281 111.401L104.335 109.849H112.656H120.947V119.37ZM98.8862 119.429C98.7983 119.487 97.978 119.517 97.0405 119.458L95.3413 119.37L97.0698 117.993L98.8276 116.587L98.9155 117.935C98.9741 118.667 98.9448 119.341 98.8862 119.429Z" fill="#222222"/>
<path d="M111.924 91.2744C111.309 91.6846 111.279 91.9189 111.279 95.4639C111.279 99.4775 111.426 99.8877 112.744 99.8877C114.062 99.8877 114.209 99.4775 114.209 95.4639C114.209 91.9189 114.18 91.6846 113.564 91.2744C113.213 91.0107 112.832 90.8057 112.744 90.8057C112.656 90.8057 112.275 91.0107 111.924 91.2744Z" fill="#7557E9"/>
<path d="M71.4362 70.6192C60.6843 73.4317 53.3308 83.3926 53.9753 94.3204C54.1511 97.6895 54.7077 99.9161 56.0847 102.787C58.7214 108.441 63.2038 112.66 68.7702 114.799C71.9343 116.029 74.4538 116.381 78.4382 116.234C81.2214 116.117 82.3054 115.912 84.3855 115.209C91.9147 112.602 97.4226 106.772 99.6198 99.0958C100.557 95.8438 100.557 90.4532 99.6198 87.2012C97.2468 78.8809 90.948 72.6993 82.7448 70.5899C79.6101 69.7989 74.5124 69.7989 71.4362 70.6192ZM81.3386 73.4024C88.78 74.9258 94.7858 80.6973 96.778 88.3145C97.3933 90.629 97.3933 95.668 96.778 97.9825C94.9616 104.897 90.0105 110.199 83.3015 112.397C81.3093 113.07 80.4304 113.188 77.2956 113.188C73.3698 113.217 70.9089 112.69 67.9206 111.166C62.9694 108.647 58.78 103.373 57.4909 97.9239C56.8464 95.3458 56.8464 90.9512 57.4909 88.3731C60.0105 77.8262 70.5866 71.1758 81.3386 73.4024Z" fill="#7557E9"/>
<path d="M73.604 80.9912C73.1646 81.665 73.1646 81.7822 73.604 82.4561C73.897 82.8955 74.3657 83.1885 74.8052 83.1885C75.2446 83.1885 75.7134 82.8955 76.0063 82.4561C76.4458 81.7822 76.4458 81.665 76.0063 80.9912C75.7134 80.5518 75.2446 80.2588 74.8052 80.2588C74.3657 80.2588 73.897 80.5518 73.604 80.9912Z" fill="#7557E9"/>
<path d="M77.2363 86.3525C74.541 89.0479 72.3145 91.4795 72.3145 91.7725C72.3145 92.417 73.3398 93.4424 73.9844 93.4424C74.6289 93.4424 84.0039 84.126 84.2383 83.2471C84.4434 82.4268 83.623 81.4307 82.7441 81.4307C82.3633 81.4307 80.4004 83.1592 77.2363 86.3525Z" fill="#7557E9"/>
<path d="M66.2207 88.2568C63.7891 90.7178 61.7676 92.915 61.7676 93.1787C61.7676 93.7939 62.7051 94.6143 63.4082 94.6143C64.1992 94.6143 72.6074 86.1475 72.6074 85.3564C72.6074 84.6826 71.7578 83.7744 71.1133 83.7744C70.8789 83.7744 68.6816 85.7959 66.2207 88.2568Z" fill="#7557E9"/>
<path d="M45.9473 89.0479C45.625 89.3701 45.3613 89.8389 45.3613 90.0732C45.3613 90.3076 45.625 90.7764 45.9473 91.0986C46.2695 91.4209 46.7383 91.6846 46.9727 91.6846C47.207 91.6846 47.6758 91.4209 47.998 91.0986C48.3203 90.7764 48.584 90.3076 48.584 90.0732C48.584 89.8389 48.3203 89.3701 47.998 89.0479C47.6758 88.7256 47.207 88.4619 46.9727 88.4619C46.7383 88.4619 46.2695 88.7256 45.9473 89.0479Z" fill="#7557E9"/>
<path d="M70.0884 129.624C69.6489 130.298 69.6489 130.415 70.0884 131.089C70.3813 131.528 70.8501 131.821 71.2896 131.821C71.729 131.821 72.1978 131.528 72.4907 131.089C72.9302 130.415 72.9302 130.298 72.4907 129.624C72.1978 129.185 71.729 128.892 71.2896 128.892C70.8501 128.892 70.3813 129.185 70.0884 129.624Z" fill="#7557E9"/>
</g>
<defs>
<filter id="filter0_d_283_422" x="-4" y="0" width="158" height="158" filterUnits="userSpaceOnUse" color-interpolation-filters="sRGB">
<feFlood flood-opacity="0" result="BackgroundImageFix"/>
<feColorMatrix in="SourceAlpha" type="matrix" values="0 0 0 0 0 0 0 0 0 0 0 0 0 0 0 0 0 0 127 0" result="hardAlpha"/>
<feOffset dy="4"/>
<feGaussianBlur stdDeviation="2"/>
<feComposite in2="hardAlpha" operator="out"/>
<feColorMatrix type="matrix" values="0 0 0 0 0 0 0 0 0 0 0 0 0 0 0 0 0 0 0.25 0"/>
<feBlend mode="normal" in2="BackgroundImageFix" result="effect1_dropShadow_283_422"/>
<feBlend mode="normal" in="SourceGraphic" in2="effect1_dropShadow_283_422" result="shape"/>
</filter>
</defs>
</svg>
