<svg width="150" height="150" viewBox="0 0 150 150" fill="none" xmlns="http://www.w3.org/2000/svg">
<g filter="url(#filter0_d_283_504)">
<path fill-rule="evenodd" clip-rule="evenodd" d="M61.4111 24.4212C62.0264 23.3753 62.8467 22.6985 63.9951 22.2884C64.5898 22.0833 69.7988 22.0218 89.4658 22.0013C113.318 22.0013 115.243 21.9393 116.309 22.866C116.469 23.0053 116.61 23.1671 116.803 23.3548C117.168 23.7094 117.44 23.9665 117.645 24.2691C118.269 25.1912 118.269 26.5364 118.361 32.3577L118.484 39.3304L121.725 46.2005L124.985 53.0706L125.149 56.0442C125.252 57.6848 125.765 72.8606 126.277 89.7591C127.18 119.044 127.2 120.562 126.872 121.772C126.462 123.31 125.375 124.807 124.021 125.709C123.794 125.864 123.639 126 123.472 126.12C122.133 127.082 120.044 127.001 73.9824 127.001C41.498 127.001 26.7529 126.94 26.2197 126.776C24.5791 126.324 23.0205 124.294 23 122.633C23 121.792 25.9736 104.545 26.2813 103.52C26.5889 102.576 27.6963 101.366 28.6191 100.936C29.1113 100.71 29.9316 100.546 30.6289 100.546C31.7568 100.546 31.8184 100.526 31.9209 99.972C32.208 98.5979 32.9258 96.6702 33.5 95.6448C34.8945 93.2044 37.1504 91.0716 38.3193 91.0511C38.9551 91.0511 39.8164 91.9329 39.8164 92.5686C39.8164 92.7942 39.0781 93.7581 38.1553 94.7425C36.4531 96.5471 35.4072 98.3108 35.1611 99.8079L35.0381 100.546H55.0742H75.1309L74.9873 99.8694C74.5977 98.0237 72.793 95.8294 70.9063 94.9065C68.5479 93.7581 65.9639 93.8811 63.3799 95.2552L61.8213 96.096L60.3857 95.3577C58.54 94.4143 57.0225 94.1477 54.9512 94.4348L53.3926 94.6604L52.3877 93.9427C50.1729 92.3225 48.4502 91.7278 45.5996 91.6253C44.3281 91.5843 43.8154 91.4817 43.5078 91.2151C42.9746 90.7434 42.9746 89.595 43.4873 89.0823C44.4922 88.0774 48.9834 88.5286 51.7725 89.9231C52.2236 90.1487 52.6133 90.2718 52.6748 90.2307C52.7158 90.1692 52.9004 86.2317 53.0439 81.4944C53.2285 76.1419 53.4131 72.6966 53.5566 72.4505C54.0898 71.4661 55.71 71.5276 56.1816 72.553C56.3457 72.9016 56.3252 75.4856 56.1201 81.72C56.0637 83.3625 56.0098 84.9179 55.9632 86.2593C55.8743 88.8203 55.8125 90.6018 55.8125 90.7229C55.8125 90.9895 56.1816 91.1126 57.5557 91.2766C58.5195 91.3997 59.8525 91.7278 60.5293 92.0149L61.7598 92.5071L63.1953 91.9124C65.9639 90.7434 69.4707 90.7639 71.8496 91.9534C72.2803 92.179 72.6904 92.343 72.7725 92.343C73.6629 93.0508 75.4825 94.553 76.0147 95.1927C76.0402 95.2261 76.0669 95.2605 76.0947 95.2962C76.874 96.2805 77.5508 97.6751 77.9609 99.1721C78.2891 100.362 78.3096 100.382 79.376 100.751C80.627 101.161 81.6524 102.084 82.1856 103.253L82.5547 104.074L83.0879 107.293C83.0879 107.375 83.6416 110.616 84.3184 114.491C85.1387 119.126 85.5488 121.977 85.5078 122.756L85.4463 123.925L103.432 123.884L121.396 123.823L122.278 123.207C122.791 122.838 123.365 122.182 123.652 121.628L124.145 120.664L123.201 89.8411C122.688 72.8811 122.176 57.8079 122.073 56.3518L121.909 53.6858L118.813 47.1233C117.131 43.5139 115.634 40.1917 115.511 39.7405C115.367 39.2278 115.285 36.5208 115.285 32.6038V26.2669L114.69 25.6722L114.096 25.0774H89.6504C71.46 25.0774 65.1025 25.139 64.7744 25.3235C63.8313 25.8156 63.8311 25.8977 63.8106 32.3523L63.8106 32.3577C63.8106 37.013 63.749 38.7972 63.5234 39.638C63.3594 40.2532 61.8213 43.76 60.1191 47.4104L57.002 54.0755L56.7969 60.4329C56.5713 67.2005 56.5098 67.5696 55.5459 67.9182C54.9717 68.1438 54.0078 67.7952 53.7412 67.2825C53.5772 66.9954 53.5566 65.1907 53.6592 61.4993C53.7703 57.2856 53.757 55.4219 54.1663 53.6563C54.5877 51.8385 55.4569 50.1245 57.3711 46.0569L60.6318 39.1253L60.7344 32.2552L60.8369 25.385L61.4111 24.4212ZM80.9551 113.097C79.8272 106.678 79.335 104.32 79.0684 104.012C78.7197 103.622 78.207 103.622 54.3975 103.643C41.0264 103.643 29.9521 103.704 29.8086 103.766C29.665 103.807 29.46 104.032 29.3574 104.258C29.1318 104.648 26.0762 121.751 26.0762 122.51C26.0762 122.736 26.3018 123.146 26.5889 123.412L27.0811 123.925H54.3359H81.5908L82.0215 123.453C82.2676 123.187 82.4727 122.715 82.4727 122.366C82.4727 122.038 81.7959 117.875 80.9551 113.097Z" fill="#222222"/>
<path d="M84.3184 107.047C83.6416 107.109 83.0879 107.232 83.0879 107.293L82.5547 104.074L83.8057 103.991C84.585 103.909 85.6104 103.622 86.5742 103.192C88.7481 102.228 90.3682 102.248 92.5215 103.233C93.9365 103.868 94.2236 103.93 96.0078 103.93C97.8125 103.93 98.0791 103.868 99.3301 103.253C102.119 101.879 103.657 99.4182 103.657 96.3421C103.657 93.1839 102.14 90.846 99.0635 89.2464C97.3613 88.344 97.1563 88.18 96.0078 86.2727C95.1055 84.8167 93.5469 83.6067 91.8858 83.094C90.6348 82.7044 88.8506 82.6223 87.6816 82.8889C85.7949 83.3401 83.5801 85.0628 82.7188 86.7239C82.1445 87.8313 81.1602 88.7132 79.7656 89.3489C78.3301 90.0257 76.915 91.3587 76.2588 92.6712C75.4733 94.2422 75.44 94.4405 76.0147 95.1927C75.4825 94.553 73.6629 93.0508 72.7725 92.343C72.8545 92.343 73.2031 91.8098 73.5518 91.1536C74.3926 89.554 76.2998 87.7083 78.166 86.7034C79.417 86.0266 79.7861 85.719 80.1963 84.9602C80.9141 83.6477 82.9854 81.679 84.4414 80.9202C89.4658 78.2747 95.4131 79.8128 98.5713 84.5706C99.3711 85.7395 99.7402 86.1087 100.704 86.5803C105.031 88.7747 107.451 93.43 106.672 98.0852C106.036 101.838 103.247 105.16 99.5967 106.534C97.8535 107.191 94.1826 107.191 92.5215 106.555C91.9063 106.309 90.9629 105.94 90.4502 105.755L89.5068 105.386L87.5176 106.145C86.4307 106.575 84.9746 106.965 84.3184 107.047Z" fill="#7557E9"/>
<path d="M49.2296 106.021C48.1632 106.186 46.5226 107.375 45.8868 108.4C45.1691 109.59 44.964 111.312 45.3536 112.81C45.5997 113.65 46.0919 114.245 49.3527 117.547L53.0851 121.32L54.1515 121.423L55.2179 121.525L59.0118 117.752C63.1544 113.63 63.5236 113.076 63.4825 111.005C63.4415 109.672 63.0724 108.667 62.1905 107.683C60.4064 105.652 56.838 105.427 54.9513 107.252L54.4181 107.765L53.7208 107.252C52.3058 106.186 50.7267 105.755 49.2296 106.021ZM52.2237 110.205C53.9874 111.907 54.6437 111.928 56.2023 110.308C57.4122 109.057 58.2325 108.79 59.2374 109.303C60.2218 109.774 60.714 110.902 60.3448 111.784C60.2013 112.092 58.7862 113.671 57.1866 115.271L54.254 118.183L51.2394 115.147C48.3478 112.215 48.2247 112.071 48.2247 111.271C48.2247 110.656 48.3683 110.246 48.7374 109.795C49.7013 108.667 50.7677 108.79 52.2237 110.205Z" fill="#7557E9"/>
<path d="M68.4659 30.9629C68.3018 31.168 68.0762 31.5781 68.0147 31.8857C67.8917 32.3369 67.9942 32.5625 68.4864 33.0752L69.1016 33.6904H81.3448C91.6602 33.6904 93.6495 33.6494 94.1417 33.3828C95.085 32.9111 95.2491 32.0293 94.5518 31.1475L94.1417 30.6143H81.4678C69.6553 30.6143 68.7735 30.6348 68.4659 30.9629Z" fill="#222222"/>
<path d="M99.0839 31.0244C98.5302 31.5781 98.5507 32.6855 99.1044 33.1982C99.5145 33.5674 99.9042 33.5879 104.826 33.5879C109.748 33.5879 110.138 33.5674 110.548 33.1982C111.101 32.6855 111.122 31.5781 110.568 31.0244C110.179 30.6348 109.892 30.6143 104.826 30.6143C99.7606 30.6143 99.4735 30.6348 99.0839 31.0244Z" fill="#222222"/>
<path d="M80.4424 61.7249C79.9092 61.9095 79.1094 62.4632 78.5557 63.0169C77.2227 64.3499 76.9355 65.3958 76.9355 68.9642C76.9355 72.5531 77.2227 73.5579 78.5762 74.9114C79.2734 75.6292 79.8477 75.9984 80.6475 76.2239C81.9805 76.6341 82.5342 76.6341 83.8262 76.2445C85.1387 75.8548 86.2461 74.9114 86.9434 73.5989C87.4766 72.5736 87.4971 72.471 87.4971 68.9642C87.4971 65.4573 87.4766 65.3548 86.9434 64.3294C85.6514 61.889 82.9854 60.8226 80.4424 61.7249ZM83.3135 64.7806C84.2568 65.2523 84.5234 66.1341 84.5234 68.8001C84.5234 71.6917 84.2979 72.5531 83.4365 73.0657C82.6367 73.5579 82.042 73.5784 81.2217 73.1478C80.2578 72.6556 80.0117 71.7943 80.0117 69.0052C80.0117 66.1956 80.2168 65.3958 81.1191 64.8421C81.8984 64.3704 82.4932 64.3499 83.3135 64.7806Z" fill="#7557E9"/>
<path d="M95.3926 61.5605C93.6904 62.0938 92.2959 63.4678 91.8242 65.0879C91.373 66.585 91.373 71.3633 91.8242 72.8398C92.3984 74.8291 94.6953 76.5518 96.7256 76.5518C97.7715 76.5518 99.3301 75.998 100.15 75.3213C100.561 74.9727 101.155 74.1729 101.483 73.5166C102.037 72.3887 102.058 72.2656 102.058 68.9639C102.058 65.6621 102.037 65.5391 101.483 64.4111C101.155 63.7549 100.561 62.9551 100.15 62.6064C98.9199 61.6016 96.8076 61.1299 95.3926 61.5605ZM97.8125 64.7393C98.8174 65.252 98.9814 65.8877 98.9814 68.9639C98.9814 72.0605 98.8174 72.6758 97.8125 73.1885C97.0947 73.5576 96.541 73.5576 95.8027 73.168C94.7773 72.6348 94.5723 71.958 94.5723 68.9639C94.5723 65.9902 94.7568 65.3135 95.7617 64.7803C96.459 64.3906 97.1152 64.3701 97.8125 64.7393Z" fill="#7557E9"/>
<path d="M69.3483 71.0351C67.9538 71.3017 66.6823 72.204 65.9235 73.455C65.0006 74.9931 64.8981 75.9774 65.4313 78.1513C66.7233 83.3192 67.359 84.4882 69.3688 85.37C71.5426 86.2929 73.86 85.8212 75.3571 84.1395C76.9772 82.3554 77.1002 80.9608 76.0133 76.9208C75.193 73.9061 74.9674 73.3729 74.0241 72.4296C72.8346 71.2606 71.0709 70.7274 69.3483 71.0351ZM71.7887 74.6444C72.2809 75.1161 72.527 75.6698 73.0192 77.6181C73.8395 80.6942 73.8395 81.33 73.0602 82.1093C72.568 82.5809 72.2809 82.704 71.5426 82.704C69.943 82.704 69.6559 82.2323 68.528 77.8231C68.0563 75.9364 68.1178 75.4852 68.8971 74.6444C69.3073 74.2138 69.6149 74.0907 70.3122 74.0907C70.9889 74.0907 71.3375 74.2138 71.7887 74.6444Z" fill="#7557E9"/>
<path d="M107.759 71.0358C106.139 71.3229 104.806 72.2868 104.129 73.6403C103.391 75.1169 102.283 79.362 102.304 80.695C102.304 85.0427 107.328 87.3806 110.876 84.6735C111.84 83.9353 112.496 82.4587 113.317 79.28C113.952 76.737 114.014 76.2243 113.85 75.322C113.604 74.0505 113.255 73.3532 112.394 72.4919C111.184 71.2614 109.502 70.7487 107.759 71.0358ZM110.179 74.6862C111.04 75.5476 111.02 75.9987 110.117 79.321C109.707 80.8591 109.338 81.7614 108.99 82.1101C107.739 83.4636 105.401 82.5407 105.38 80.7155C105.36 79.403 106.652 75.1989 107.246 74.6042C108.005 73.8454 109.359 73.8864 110.179 74.6862Z" fill="#7557E9"/>
<path d="M103.432 115.455C103.288 115.517 103.042 115.824 102.857 116.173C102.591 116.686 102.591 116.891 102.796 117.383C102.919 117.731 103.206 118.08 103.411 118.183C103.616 118.306 106.118 118.388 109.194 118.388C114.588 118.388 114.608 118.388 115.039 117.916C115.634 117.28 115.634 116.275 115.039 115.722C114.608 115.332 114.362 115.312 109.153 115.332C106.159 115.332 103.575 115.394 103.432 115.455Z" fill="#222222"/>
</g>
<defs>
<filter id="filter0_d_283_504" x="-4" y="0" width="158" height="158" filterUnits="userSpaceOnUse" color-interpolation-filters="sRGB">
<feFlood flood-opacity="0" result="BackgroundImageFix"/>
<feColorMatrix in="SourceAlpha" type="matrix" values="0 0 0 0 0 0 0 0 0 0 0 0 0 0 0 0 0 0 127 0" result="hardAlpha"/>
<feOffset dy="4"/>
<feGaussianBlur stdDeviation="2"/>
<feComposite in2="hardAlpha" operator="out"/>
<feColorMatrix type="matrix" values="0 0 0 0 0 0 0 0 0 0 0 0 0 0 0 0 0 0 0.25 0"/>
<feBlend mode="normal" in2="BackgroundImageFix" result="effect1_dropShadow_283_504"/>
<feBlend mode="normal" in="SourceGraphic" in2="effect1_dropShadow_283_504" result="shape"/>
</filter>
</defs>
</svg>
