<svg width="350" height="139" viewBox="0 0 350 139" fill="none" xmlns="http://www.w3.org/2000/svg">
<rect width="350" height="139" rx="4" fill="#7658EA"/>
<path d="M25.552 18.384C25.552 19.0347 25.4027 19.632 25.104 20.176C24.8053 20.7093 24.3467 21.1413 23.728 21.472C23.1093 21.8027 22.3413 21.968 21.424 21.968H19.728V26H16.992V14.768H21.424C22.32 14.768 23.0773 14.9227 23.696 15.232C24.3147 15.5413 24.7787 15.968 25.088 16.512C25.3973 17.056 25.552 17.68 25.552 18.384ZM21.216 19.792C21.7387 19.792 22.128 19.6693 22.384 19.424C22.64 19.1787 22.768 18.832 22.768 18.384C22.768 17.936 22.64 17.5893 22.384 17.344C22.128 17.0987 21.7387 16.976 21.216 16.976H19.728V19.792H21.216ZM29.7124 18.56C30.0324 18.0693 30.4324 17.6853 30.9124 17.408C31.3924 17.12 31.9257 16.976 32.5124 16.976V19.872H31.7604C31.0777 19.872 30.5657 20.0213 30.2244 20.32C29.883 20.608 29.7124 21.12 29.7124 21.856V26H26.9764V17.072H29.7124V18.56ZM37.8841 26.128C37.0095 26.128 36.2201 25.9413 35.5161 25.568C34.8228 25.1947 34.2735 24.6613 33.8681 23.968C33.4735 23.2747 33.2761 22.464 33.2761 21.536C33.2761 20.6187 33.4788 19.8133 33.8841 19.12C34.2895 18.416 34.8441 17.8773 35.5481 17.504C36.2521 17.1307 37.0415 16.944 37.9161 16.944C38.7908 16.944 39.5801 17.1307 40.2841 17.504C40.9881 17.8773 41.5428 18.416 41.9481 19.12C42.3535 19.8133 42.5561 20.6187 42.5561 21.536C42.5561 22.4533 42.3481 23.264 41.9321 23.968C41.5268 24.6613 40.9668 25.1947 40.2521 25.568C39.5481 25.9413 38.7588 26.128 37.8841 26.128ZM37.8841 23.76C38.4068 23.76 38.8495 23.568 39.2121 23.184C39.5855 22.8 39.7721 22.2507 39.7721 21.536C39.7721 20.8213 39.5908 20.272 39.2281 19.888C38.8761 19.504 38.4388 19.312 37.9161 19.312C37.3828 19.312 36.9401 19.504 36.5881 19.888C36.2361 20.2613 36.0601 20.8107 36.0601 21.536C36.0601 22.2507 36.2308 22.8 36.5721 23.184C36.9241 23.568 37.3615 23.76 37.8841 23.76ZM43.4636 21.536C43.4636 20.608 43.6503 19.7973 44.0236 19.104C44.4076 18.4107 44.9356 17.8773 45.6076 17.504C46.2903 17.1307 47.069 16.944 47.9436 16.944C49.0636 16.944 49.997 17.2373 50.7436 17.824C51.501 18.4107 51.997 19.2373 52.2316 20.304H49.3196C49.0743 19.6213 48.5996 19.28 47.8956 19.28C47.3943 19.28 46.9943 19.4773 46.6956 19.872C46.397 20.256 46.2476 20.8107 46.2476 21.536C46.2476 22.2613 46.397 22.8213 46.6956 23.216C46.9943 23.6 47.3943 23.792 47.8956 23.792C48.5996 23.792 49.0743 23.4507 49.3196 22.768H52.2316C51.997 23.8133 51.501 24.6347 50.7436 25.232C49.9863 25.8293 49.053 26.128 47.9436 26.128C47.069 26.128 46.2903 25.9413 45.6076 25.568C44.9356 25.1947 44.4076 24.6613 44.0236 23.968C43.6503 23.2747 43.4636 22.464 43.4636 21.536ZM62.5111 17.072V26H59.7751V24.784C59.4978 25.1787 59.1191 25.4987 58.6391 25.744C58.1698 25.9787 57.6471 26.096 57.0711 26.096C56.3885 26.096 55.7858 25.9467 55.2631 25.648C54.7405 25.3387 54.3351 24.896 54.0471 24.32C53.7591 23.744 53.6151 23.0667 53.6151 22.288V17.072H56.3351V21.92C56.3351 22.5173 56.4898 22.9813 56.7991 23.312C57.1085 23.6427 57.5245 23.808 58.0471 23.808C58.5805 23.808 59.0018 23.6427 59.3111 23.312C59.6205 22.9813 59.7751 22.5173 59.7751 21.92V17.072H62.5111ZM67.2124 18.56C67.5324 18.0693 67.9324 17.6853 68.4124 17.408C68.8924 17.12 69.4257 16.976 70.0124 16.976V19.872H69.2604C68.5777 19.872 68.0657 20.0213 67.7244 20.32C67.383 20.608 67.2124 21.12 67.2124 21.856V26H64.4764V17.072H67.2124V18.56ZM70.7761 21.52C70.7761 20.6027 70.9468 19.7973 71.2881 19.104C71.6401 18.4107 72.1148 17.8773 72.7121 17.504C73.3095 17.1307 73.9761 16.944 74.7121 16.944C75.3415 16.944 75.8908 17.072 76.3601 17.328C76.8401 17.584 77.2081 17.92 77.4641 18.336V17.072H80.2001V26H77.4641V24.736C77.1975 25.152 76.8241 25.488 76.3441 25.744C75.8748 26 75.3255 26.128 74.6961 26.128C73.9708 26.128 73.3095 25.9413 72.7121 25.568C72.1148 25.184 71.6401 24.6453 71.2881 23.952C70.9468 23.248 70.7761 22.4373 70.7761 21.52ZM77.4641 21.536C77.4641 20.8533 77.2721 20.3147 76.8881 19.92C76.5148 19.5253 76.0561 19.328 75.5121 19.328C74.9681 19.328 74.5041 19.5253 74.1201 19.92C73.7468 20.304 73.5601 20.8373 73.5601 21.52C73.5601 22.2027 73.7468 22.7467 74.1201 23.152C74.5041 23.5467 74.9681 23.744 75.5121 23.744C76.0561 23.744 76.5148 23.5467 76.8881 23.152C77.2721 22.7573 77.4641 22.2187 77.4641 21.536ZM87.6195 16.976C88.6648 16.976 89.4968 17.3173 90.1155 18C90.7448 18.672 91.0595 19.6 91.0595 20.784V26H88.3395V21.152C88.3395 20.5547 88.1848 20.0907 87.8755 19.76C87.5662 19.4293 87.1502 19.264 86.6275 19.264C86.1048 19.264 85.6888 19.4293 85.3795 19.76C85.0702 20.0907 84.9155 20.5547 84.9155 21.152V26H82.1795V17.072H84.9155V18.256C85.1928 17.8613 85.5662 17.552 86.0355 17.328C86.5048 17.0933 87.0328 16.976 87.6195 16.976ZM92.4168 21.52C92.4168 20.6027 92.5874 19.7973 92.9288 19.104C93.2808 18.4107 93.7554 17.8773 94.3528 17.504C94.9501 17.1307 95.6168 16.944 96.3528 16.944C96.9394 16.944 97.4728 17.0667 97.9528 17.312C98.4434 17.5573 98.8274 17.888 99.1048 18.304V14.16H101.841V26H99.1048V24.72C98.8488 25.1467 98.4808 25.488 98.0008 25.744C97.5314 26 96.9821 26.128 96.3528 26.128C95.6168 26.128 94.9501 25.9413 94.3528 25.568C93.7554 25.184 93.2808 24.6453 92.9288 23.952C92.5874 23.248 92.4168 22.4373 92.4168 21.52ZM99.1048 21.536C99.1048 20.8533 98.9128 20.3147 98.5288 19.92C98.1554 19.5253 97.6968 19.328 97.1528 19.328C96.6088 19.328 96.1448 19.5253 95.7608 19.92C95.3874 20.304 95.2008 20.8373 95.2008 21.52C95.2008 22.2027 95.3874 22.7467 95.7608 23.152C96.1448 23.5467 96.6088 23.744 97.1528 23.744C97.6968 23.744 98.1554 23.5467 98.5288 23.152C98.9128 22.7573 99.1048 22.2187 99.1048 21.536ZM107.884 26.128C107.009 26.128 106.22 25.9413 105.516 25.568C104.823 25.1947 104.273 24.6613 103.868 23.968C103.473 23.2747 103.276 22.464 103.276 21.536C103.276 20.6187 103.479 19.8133 103.884 19.12C104.289 18.416 104.844 17.8773 105.548 17.504C106.252 17.1307 107.041 16.944 107.916 16.944C108.791 16.944 109.58 17.1307 110.284 17.504C110.988 17.8773 111.543 18.416 111.948 19.12C112.353 19.8133 112.556 20.6187 112.556 21.536C112.556 22.4533 112.348 23.264 111.932 23.968C111.527 24.6613 110.967 25.1947 110.252 25.568C109.548 25.9413 108.759 26.128 107.884 26.128ZM107.884 23.76C108.407 23.76 108.849 23.568 109.212 23.184C109.585 22.8 109.772 22.2507 109.772 21.536C109.772 20.8213 109.591 20.272 109.228 19.888C108.876 19.504 108.439 19.312 107.916 19.312C107.383 19.312 106.94 19.504 106.588 19.888C106.236 20.2613 106.06 20.8107 106.06 21.536C106.06 22.2507 106.231 22.8 106.572 23.184C106.924 23.568 107.361 23.76 107.884 23.76ZM120.134 18.336C120.401 17.92 120.769 17.584 121.238 17.328C121.708 17.072 122.257 16.944 122.886 16.944C123.622 16.944 124.289 17.1307 124.886 17.504C125.484 17.8773 125.953 18.4107 126.294 19.104C126.646 19.7973 126.822 20.6027 126.822 21.52C126.822 22.4373 126.646 23.248 126.294 23.952C125.953 24.6453 125.484 25.184 124.886 25.568C124.289 25.9413 123.622 26.128 122.886 26.128C122.268 26.128 121.718 26 121.238 25.744C120.769 25.488 120.401 25.1573 120.134 24.752V30.256H117.398V17.072H120.134V18.336ZM124.038 21.52C124.038 20.8373 123.846 20.304 123.462 19.92C123.089 19.5253 122.625 19.328 122.07 19.328C121.526 19.328 121.062 19.5253 120.678 19.92C120.305 20.3147 120.118 20.8533 120.118 21.536C120.118 22.2187 120.305 22.7573 120.678 23.152C121.062 23.5467 121.526 23.744 122.07 23.744C122.614 23.744 123.078 23.5467 123.462 23.152C123.846 22.7467 124.038 22.2027 124.038 21.52ZM132.322 26.128C131.447 26.128 130.658 25.9413 129.954 25.568C129.26 25.1947 128.711 24.6613 128.306 23.968C127.911 23.2747 127.714 22.464 127.714 21.536C127.714 20.6187 127.916 19.8133 128.322 19.12C128.727 18.416 129.282 17.8773 129.986 17.504C130.69 17.1307 131.479 16.944 132.354 16.944C133.228 16.944 134.018 17.1307 134.722 17.504C135.426 17.8773 135.98 18.416 136.386 19.12C136.791 19.8133 136.994 20.6187 136.994 21.536C136.994 22.4533 136.786 23.264 136.37 23.968C135.964 24.6613 135.404 25.1947 134.69 25.568C133.986 25.9413 133.196 26.128 132.322 26.128ZM132.322 23.76C132.844 23.76 133.287 23.568 133.65 23.184C134.023 22.8 134.21 22.2507 134.21 21.536C134.21 20.8213 134.028 20.272 133.666 19.888C133.314 19.504 132.876 19.312 132.354 19.312C131.82 19.312 131.378 19.504 131.026 19.888C130.674 20.2613 130.498 20.8107 130.498 21.536C130.498 22.2507 130.668 22.8 131.01 23.184C131.362 23.568 131.799 23.76 132.322 23.76ZM141.181 18.56C141.501 18.0693 141.901 17.6853 142.381 17.408C142.861 17.12 143.394 16.976 143.981 16.976V19.872H143.229C142.546 19.872 142.034 20.0213 141.693 20.32C141.352 20.608 141.181 21.12 141.181 21.856V26H138.445V17.072H141.181V18.56ZM148.136 21.52C148.136 20.6027 148.306 19.7973 148.648 19.104C149 18.4107 149.474 17.8773 150.072 17.504C150.669 17.1307 151.336 16.944 152.072 16.944C152.701 16.944 153.25 17.072 153.72 17.328C154.2 17.584 154.568 17.92 154.824 18.336V17.072H157.56V26H154.824V24.736C154.557 25.152 154.184 25.488 153.704 25.744C153.234 26 152.685 26.128 152.056 26.128C151.33 26.128 150.669 25.9413 150.072 25.568C149.474 25.184 149 24.6453 148.648 23.952C148.306 23.248 148.136 22.4373 148.136 21.52ZM154.824 21.536C154.824 20.8533 154.632 20.3147 154.248 19.92C153.874 19.5253 153.416 19.328 152.872 19.328C152.328 19.328 151.864 19.5253 151.48 19.92C151.106 20.304 150.92 20.8373 150.92 21.52C150.92 22.2027 151.106 22.7467 151.48 23.152C151.864 23.5467 152.328 23.744 152.872 23.744C153.416 23.744 153.874 23.5467 154.248 23.152C154.632 22.7573 154.824 22.2187 154.824 21.536ZM162.275 14.16V26H159.539V14.16H162.275ZM167.65 16.944C168.279 16.944 168.828 17.072 169.298 17.328C169.778 17.584 170.146 17.92 170.402 18.336V17.072H173.138V25.984C173.138 26.8053 172.972 27.5467 172.642 28.208C172.322 28.88 171.826 29.4133 171.154 29.808C170.492 30.2027 169.666 30.4 168.674 30.4C167.351 30.4 166.279 30.0853 165.458 29.456C164.636 28.8373 164.167 27.9947 164.05 26.928H166.754C166.839 27.2693 167.042 27.536 167.362 27.728C167.682 27.9307 168.076 28.032 168.546 28.032C169.111 28.032 169.559 27.8667 169.89 27.536C170.231 27.216 170.402 26.6987 170.402 25.984V24.72C170.135 25.136 169.767 25.4773 169.298 25.744C168.828 26 168.279 26.128 167.65 26.128C166.914 26.128 166.247 25.9413 165.65 25.568C165.052 25.184 164.578 24.6453 164.226 23.952C163.884 23.248 163.714 22.4373 163.714 21.52C163.714 20.6027 163.884 19.7973 164.226 19.104C164.578 18.4107 165.052 17.8773 165.65 17.504C166.247 17.1307 166.914 16.944 167.65 16.944ZM170.402 21.536C170.402 20.8533 170.21 20.3147 169.826 19.92C169.452 19.5253 168.994 19.328 168.45 19.328C167.906 19.328 167.442 19.5253 167.058 19.92C166.684 20.304 166.498 20.8373 166.498 21.52C166.498 22.2027 166.684 22.7467 167.058 23.152C167.442 23.5467 167.906 23.744 168.45 23.744C168.994 23.744 169.452 23.5467 169.826 23.152C170.21 22.7573 170.402 22.2187 170.402 21.536ZM179.181 26.128C178.306 26.128 177.517 25.9413 176.813 25.568C176.12 25.1947 175.57 24.6613 175.165 23.968C174.77 23.2747 174.573 22.464 174.573 21.536C174.573 20.6187 174.776 19.8133 175.181 19.12C175.586 18.416 176.141 17.8773 176.845 17.504C177.549 17.1307 178.338 16.944 179.213 16.944C180.088 16.944 180.877 17.1307 181.581 17.504C182.285 17.8773 182.84 18.416 183.245 19.12C183.65 19.8133 183.853 20.6187 183.853 21.536C183.853 22.4533 183.645 23.264 183.229 23.968C182.824 24.6613 182.264 25.1947 181.549 25.568C180.845 25.9413 180.056 26.128 179.181 26.128ZM179.181 23.76C179.704 23.76 180.146 23.568 180.509 23.184C180.882 22.8 181.069 22.2507 181.069 21.536C181.069 20.8213 180.888 20.272 180.525 19.888C180.173 19.504 179.736 19.312 179.213 19.312C178.68 19.312 178.237 19.504 177.885 19.888C177.533 20.2613 177.357 20.8107 177.357 21.536C177.357 22.2507 177.528 22.8 177.869 23.184C178.221 23.568 178.658 23.76 179.181 23.76ZM25.408 45.392C25.408 45.648 25.392 45.9147 25.36 46.192H19.168C19.2107 46.7467 19.3867 47.1733 19.696 47.472C20.016 47.76 20.4053 47.904 20.864 47.904C21.5467 47.904 22.0213 47.616 22.288 47.04H25.2C25.0507 47.6267 24.7787 48.1547 24.384 48.624C24 49.0933 23.5147 49.4613 22.928 49.728C22.3413 49.9947 21.6853 50.128 20.96 50.128C20.0853 50.128 19.3067 49.9413 18.624 49.568C17.9413 49.1947 17.408 48.6613 17.024 47.968C16.64 47.2747 16.448 46.464 16.448 45.536C16.448 44.608 16.6347 43.7973 17.008 43.104C17.392 42.4107 17.9253 41.8773 18.608 41.504C19.2907 41.1307 20.0747 40.944 20.96 40.944C21.824 40.944 22.592 41.1253 23.264 41.488C23.936 41.8507 24.4587 42.368 24.832 43.04C25.216 43.712 25.408 44.496 25.408 45.392ZM22.608 44.672C22.608 44.2027 22.448 43.8293 22.128 43.552C21.808 43.2747 21.408 43.136 20.928 43.136C20.4693 43.136 20.08 43.2693 19.76 43.536C19.4507 43.8027 19.2587 44.1813 19.184 44.672H22.608ZM30.4834 50.128C29.7047 50.128 29.0114 49.9947 28.4034 49.728C27.7954 49.4613 27.3154 49.0987 26.9634 48.64C26.6114 48.1707 26.414 47.648 26.3714 47.072H29.0754C29.1074 47.3813 29.2514 47.632 29.5074 47.824C29.7634 48.016 30.078 48.112 30.4514 48.112C30.7927 48.112 31.054 48.048 31.2354 47.92C31.4274 47.7813 31.5234 47.6053 31.5234 47.392C31.5234 47.136 31.39 46.9493 31.1234 46.832C30.8567 46.704 30.4247 46.5653 29.8274 46.416C29.1874 46.2667 28.654 46.112 28.2274 45.952C27.8007 45.7813 27.4327 45.52 27.1234 45.168C26.814 44.8053 26.6594 44.32 26.6594 43.712C26.6594 43.2 26.798 42.736 27.0754 42.32C27.3634 41.8933 27.7794 41.5573 28.3234 41.312C28.878 41.0667 29.534 40.944 30.2914 40.944C31.4114 40.944 32.2914 41.2213 32.9314 41.776C33.582 42.3307 33.9554 43.0667 34.0514 43.984H31.5234C31.4807 43.6747 31.342 43.4293 31.1074 43.248C30.8834 43.0667 30.5847 42.976 30.2114 42.976C29.8914 42.976 29.646 43.04 29.4754 43.168C29.3047 43.2853 29.2194 43.4507 29.2194 43.664C29.2194 43.92 29.3527 44.112 29.6194 44.24C29.8967 44.368 30.3234 44.496 30.8994 44.624C31.5607 44.7947 32.0994 44.9653 32.5154 45.136C32.9314 45.296 33.294 45.5627 33.6034 45.936C33.9234 46.2987 34.0887 46.7893 34.0994 47.408C34.0994 47.9307 33.95 48.4 33.6514 48.816C33.3634 49.2213 32.942 49.5413 32.3874 49.776C31.8434 50.0107 31.2087 50.128 30.4834 50.128ZM38.5093 42.336C38.7759 41.92 39.1439 41.584 39.6133 41.328C40.0826 41.072 40.6319 40.944 41.2613 40.944C41.9973 40.944 42.6639 41.1307 43.2613 41.504C43.8586 41.8773 44.3279 42.4107 44.6693 43.104C45.0213 43.7973 45.1973 44.6027 45.1973 45.52C45.1973 46.4373 45.0213 47.248 44.6693 47.952C44.3279 48.6453 43.8586 49.184 43.2613 49.568C42.6639 49.9413 41.9973 50.128 41.2613 50.128C40.6426 50.128 40.0933 50 39.6133 49.744C39.1439 49.488 38.7759 49.1573 38.5093 48.752V54.256H35.7733V41.072H38.5093V42.336ZM42.4133 45.52C42.4133 44.8373 42.2213 44.304 41.8373 43.92C41.4639 43.5253 40.9999 43.328 40.4453 43.328C39.9013 43.328 39.4373 43.5253 39.0533 43.92C38.6799 44.3147 38.4933 44.8533 38.4933 45.536C38.4933 46.2187 38.6799 46.7573 39.0533 47.152C39.4373 47.5467 39.9013 47.744 40.4453 47.744C40.9893 47.744 41.4533 47.5467 41.8373 47.152C42.2213 46.7467 42.4133 46.2027 42.4133 45.52ZM55.0486 45.392C55.0486 45.648 55.0326 45.9147 55.0006 46.192H48.8086C48.8513 46.7467 49.0273 47.1733 49.3366 47.472C49.6566 47.76 50.046 47.904 50.5046 47.904C51.1873 47.904 51.662 47.616 51.9286 47.04H54.8406C54.6913 47.6267 54.4193 48.1547 54.0246 48.624C53.6406 49.0933 53.1553 49.4613 52.5686 49.728C51.982 49.9947 51.326 50.128 50.6006 50.128C49.726 50.128 48.9473 49.9413 48.2646 49.568C47.582 49.1947 47.0486 48.6613 46.6646 47.968C46.2806 47.2747 46.0886 46.464 46.0886 45.536C46.0886 44.608 46.2753 43.7973 46.6486 43.104C47.0326 42.4107 47.566 41.8773 48.2486 41.504C48.9313 41.1307 49.7153 40.944 50.6006 40.944C51.4646 40.944 52.2326 41.1253 52.9046 41.488C53.5766 41.8507 54.0993 42.368 54.4726 43.04C54.8566 43.712 55.0486 44.496 55.0486 45.392ZM52.2486 44.672C52.2486 44.2027 52.0886 43.8293 51.7686 43.552C51.4486 43.2747 51.0486 43.136 50.5686 43.136C50.11 43.136 49.7206 43.2693 49.4006 43.536C49.0913 43.8027 48.8993 44.1813 48.8246 44.672H52.2486ZM55.948 45.536C55.948 44.608 56.1347 43.7973 56.508 43.104C56.892 42.4107 57.42 41.8773 58.092 41.504C58.7747 41.1307 59.5533 40.944 60.428 40.944C61.548 40.944 62.4813 41.2373 63.228 41.824C63.9853 42.4107 64.4813 43.2373 64.716 44.304H61.804C61.5587 43.6213 61.084 43.28 60.38 43.28C59.8787 43.28 59.4787 43.4773 59.18 43.872C58.8813 44.256 58.732 44.8107 58.732 45.536C58.732 46.2613 58.8813 46.8213 59.18 47.216C59.4787 47.6 59.8787 47.792 60.38 47.792C61.084 47.792 61.5587 47.4507 61.804 46.768H64.716C64.4813 47.8133 63.9853 48.6347 63.228 49.232C62.4707 49.8293 61.5373 50.128 60.428 50.128C59.5533 50.128 58.7747 49.9413 58.092 49.568C57.42 49.1947 56.892 48.6613 56.508 47.968C56.1347 47.2747 55.948 46.464 55.948 45.536ZM69.1235 41.072V50H66.3875V41.072H69.1235ZM69.6195 38.848L65.7635 40.464V38.576L69.6195 36.72V38.848ZM75.8001 43.344H74.3281V50H71.5921V43.344H70.6001V41.072H71.5921V40.816C71.5921 39.7173 71.9068 38.8853 72.5361 38.32C73.1655 37.744 74.0881 37.456 75.3041 37.456C75.5068 37.456 75.6561 37.4613 75.7521 37.472V39.792C75.2295 39.76 74.8615 39.8347 74.6481 40.016C74.4348 40.1973 74.3281 40.5227 74.3281 40.992V41.072H75.8001V43.344ZM78.4618 40.144C77.9818 40.144 77.5871 40.0053 77.2778 39.728C76.9791 39.44 76.8298 39.088 76.8298 38.672C76.8298 38.2453 76.9791 37.8933 77.2778 37.616C77.5871 37.328 77.9818 37.184 78.4618 37.184C78.9311 37.184 79.3151 37.328 79.6138 37.616C79.9231 37.8933 80.0778 38.2453 80.0778 38.672C80.0778 39.088 79.9231 39.44 79.6138 39.728C79.3151 40.0053 78.9311 40.144 78.4618 40.144ZM79.8218 41.072V50H77.0858V41.072H79.8218ZM81.2605 45.536C81.2605 44.608 81.4472 43.7973 81.8205 43.104C82.2045 42.4107 82.7325 41.8773 83.4045 41.504C84.0872 41.1307 84.8658 40.944 85.7405 40.944C86.8605 40.944 87.7938 41.2373 88.5405 41.824C89.2978 42.4107 89.7938 43.2373 90.0285 44.304H87.1165C86.8712 43.6213 86.3965 43.28 85.6925 43.28C85.1912 43.28 84.7912 43.4773 84.4925 43.872C84.1938 44.256 84.0445 44.8107 84.0445 45.536C84.0445 46.2613 84.1938 46.8213 84.4925 47.216C84.7912 47.6 85.1912 47.792 85.6925 47.792C86.3965 47.792 86.8712 47.4507 87.1165 46.768H90.0285C89.7938 47.8133 89.2978 48.6347 88.5405 49.232C87.7832 49.8293 86.8498 50.128 85.7405 50.128C84.8658 50.128 84.0872 49.9413 83.4045 49.568C82.7325 49.1947 82.2045 48.6613 81.8205 47.968C81.4472 47.2747 81.2605 46.464 81.2605 45.536ZM95.556 50.128C94.6813 50.128 93.892 49.9413 93.188 49.568C92.4947 49.1947 91.9453 48.6613 91.54 47.968C91.1453 47.2747 90.948 46.464 90.948 45.536C90.948 44.6187 91.1507 43.8133 91.556 43.12C91.9613 42.416 92.516 41.8773 93.22 41.504C93.924 41.1307 94.7133 40.944 95.588 40.944C96.4627 40.944 97.252 41.1307 97.956 41.504C98.66 41.8773 99.2147 42.416 99.62 43.12C100.025 43.8133 100.228 44.6187 100.228 45.536C100.228 46.4533 100.02 47.264 99.604 47.968C99.1987 48.6613 98.6387 49.1947 97.924 49.568C97.22 49.9413 96.4307 50.128 95.556 50.128ZM95.556 47.76C96.0787 47.76 96.5213 47.568 96.884 47.184C97.2573 46.8 97.444 46.2507 97.444 45.536C97.444 44.8213 97.2627 44.272 96.9 43.888C96.548 43.504 96.1107 43.312 95.588 43.312C95.0547 43.312 94.612 43.504 94.26 43.888C93.908 44.2613 93.732 44.8107 93.732 45.536C93.732 46.2507 93.9027 46.8 94.244 47.184C94.596 47.568 95.0333 47.76 95.556 47.76ZM113.486 45.392C113.486 45.648 113.47 45.9147 113.438 46.192H107.246C107.289 46.7467 107.465 47.1733 107.774 47.472C108.094 47.76 108.483 47.904 108.942 47.904C109.625 47.904 110.099 47.616 110.366 47.04H113.278C113.129 47.6267 112.857 48.1547 112.462 48.624C112.078 49.0933 111.593 49.4613 111.006 49.728C110.419 49.9947 109.763 50.128 109.038 50.128C108.163 50.128 107.385 49.9413 106.702 49.568C106.019 49.1947 105.486 48.6613 105.102 47.968C104.718 47.2747 104.526 46.464 104.526 45.536C104.526 44.608 104.713 43.7973 105.086 43.104C105.47 42.4107 106.003 41.8773 106.686 41.504C107.369 41.1307 108.153 40.944 109.038 40.944C109.902 40.944 110.67 41.1253 111.342 41.488C112.014 41.8507 112.537 42.368 112.91 43.04C113.294 43.712 113.486 44.496 113.486 45.392ZM110.686 44.672C110.686 44.2027 110.526 43.8293 110.206 43.552C109.886 43.2747 109.486 43.136 109.006 43.136C108.547 43.136 108.158 43.2693 107.838 43.536C107.529 43.8027 107.337 44.1813 107.262 44.672H110.686ZM123.76 40.976C124.805 40.976 125.637 41.3173 126.256 42C126.885 42.672 127.2 43.6 127.2 44.784V50H124.48V45.152C124.48 44.5547 124.325 44.0907 124.016 43.76C123.707 43.4293 123.291 43.264 122.768 43.264C122.245 43.264 121.829 43.4293 121.52 43.76C121.211 44.0907 121.056 44.5547 121.056 45.152V50H118.32V41.072H121.056V42.256C121.333 41.8613 121.707 41.552 122.176 41.328C122.645 41.0933 123.173 40.976 123.76 40.976ZM128.557 45.52C128.557 44.6027 128.728 43.7973 129.069 43.104C129.421 42.4107 129.896 41.8773 130.493 41.504C131.091 41.1307 131.757 40.944 132.493 40.944C133.123 40.944 133.672 41.072 134.141 41.328C134.621 41.584 134.989 41.92 135.245 42.336V41.072H137.981V50H135.245V48.736C134.979 49.152 134.605 49.488 134.125 49.744C133.656 50 133.107 50.128 132.477 50.128C131.752 50.128 131.091 49.9413 130.493 49.568C129.896 49.184 129.421 48.6453 129.069 47.952C128.728 47.248 128.557 46.4373 128.557 45.52ZM135.245 45.536C135.245 44.8533 135.053 44.3147 134.669 43.92C134.296 43.5253 133.837 43.328 133.293 43.328C132.749 43.328 132.285 43.5253 131.901 43.92C131.528 44.304 131.341 44.8373 131.341 45.52C131.341 46.2027 131.528 46.7467 131.901 47.152C132.285 47.5467 132.749 47.744 133.293 47.744C133.837 47.744 134.296 47.5467 134.669 47.152C135.053 46.7573 135.245 46.2187 135.245 45.536ZM130.397 40.32C130.653 38.7413 131.389 37.952 132.605 37.952C132.84 37.952 133.043 37.9893 133.213 38.064C133.395 38.128 133.613 38.2293 133.869 38.368C134.061 38.4747 134.216 38.5547 134.333 38.608C134.451 38.6507 134.573 38.672 134.701 38.672C135.096 38.672 135.325 38.432 135.389 37.952H136.797C136.541 39.5307 135.805 40.32 134.589 40.32C134.355 40.32 134.147 40.288 133.965 40.224C133.795 40.1493 133.581 40.0427 133.325 39.904C133.133 39.7973 132.979 39.7227 132.861 39.68C132.744 39.6267 132.621 39.6 132.493 39.6C132.099 39.6 131.864 39.84 131.789 40.32H130.397ZM144.025 50.128C143.15 50.128 142.361 49.9413 141.657 49.568C140.963 49.1947 140.414 48.6613 140.009 47.968C139.614 47.2747 139.417 46.464 139.417 45.536C139.417 44.6187 139.619 43.8133 140.025 43.12C140.43 42.416 140.985 41.8773 141.689 41.504C142.393 41.1307 143.182 40.944 144.057 40.944C144.931 40.944 145.721 41.1307 146.425 41.504C147.129 41.8773 147.683 42.416 148.089 43.12C148.494 43.8133 148.697 44.6187 148.697 45.536C148.697 46.4533 148.489 47.264 148.073 47.968C147.667 48.6613 147.107 49.1947 146.393 49.568C145.689 49.9413 144.899 50.128 144.025 50.128ZM144.025 47.76C144.547 47.76 144.99 47.568 145.353 47.184C145.726 46.8 145.913 46.2507 145.913 45.536C145.913 44.8213 145.731 44.272 145.369 43.888C145.017 43.504 144.579 43.312 144.057 43.312C143.523 43.312 143.081 43.504 142.729 43.888C142.377 44.2613 142.201 44.8107 142.201 45.536C142.201 46.2507 142.371 46.8 142.713 47.184C143.065 47.568 143.502 47.76 144.025 47.76ZM161.955 45.392C161.955 45.648 161.939 45.9147 161.907 46.192H155.715C155.758 46.7467 155.934 47.1733 156.243 47.472C156.563 47.76 156.952 47.904 157.411 47.904C158.094 47.904 158.568 47.616 158.835 47.04H161.747C161.598 47.6267 161.326 48.1547 160.931 48.624C160.547 49.0933 160.062 49.4613 159.475 49.728C158.888 49.9947 158.232 50.128 157.507 50.128C156.632 50.128 155.854 49.9413 155.171 49.568C154.488 49.1947 153.955 48.6613 153.571 47.968C153.187 47.2747 152.995 46.464 152.995 45.536C152.995 44.608 153.182 43.7973 153.555 43.104C153.939 42.4107 154.472 41.8773 155.155 41.504C155.838 41.1307 156.622 40.944 157.507 40.944C158.371 40.944 159.139 41.1253 159.811 41.488C160.483 41.8507 161.006 42.368 161.379 43.04C161.763 43.712 161.955 44.496 161.955 45.392ZM159.155 44.672C159.155 44.2027 158.995 43.8293 158.675 43.552C158.355 43.2747 157.955 43.136 157.475 43.136C157.016 43.136 156.627 43.2693 156.307 43.536C155.998 43.8027 155.806 44.1813 155.731 44.672H159.155ZM168.838 40.976C169.884 40.976 170.716 41.3173 171.334 42C171.964 42.672 172.278 43.6 172.278 44.784V50H169.558V45.152C169.558 44.5547 169.404 44.0907 169.094 43.76C168.785 43.4293 168.369 43.264 167.846 43.264C167.324 43.264 166.908 43.4293 166.598 43.76C166.289 44.0907 166.134 44.5547 166.134 45.152V50H163.398V41.072H166.134V42.256C166.412 41.8613 166.785 41.552 167.254 41.328C167.724 41.0933 168.252 40.976 168.838 40.976ZM173.636 45.536C173.636 44.608 173.822 43.7973 174.196 43.104C174.58 42.4107 175.108 41.8773 175.78 41.504C176.462 41.1307 177.241 40.944 178.116 40.944C179.236 40.944 180.169 41.2373 180.916 41.824C181.673 42.4107 182.169 43.2373 182.404 44.304H179.492C179.246 43.6213 178.772 43.28 178.068 43.28C177.566 43.28 177.166 43.4773 176.868 43.872C176.569 44.256 176.42 44.8107 176.42 45.536C176.42 46.2613 176.569 46.8213 176.868 47.216C177.166 47.6 177.566 47.792 178.068 47.792C178.772 47.792 179.246 47.4507 179.492 46.768H182.404C182.169 47.8133 181.673 48.6347 180.916 49.232C180.158 49.8293 179.225 50.128 178.116 50.128C177.241 50.128 176.462 49.9413 175.78 49.568C175.108 49.1947 174.58 48.6613 174.196 47.968C173.822 47.2747 173.636 46.464 173.636 45.536ZM187.931 50.128C187.056 50.128 186.267 49.9413 185.563 49.568C184.87 49.1947 184.32 48.6613 183.915 47.968C183.52 47.2747 183.323 46.464 183.323 45.536C183.323 44.6187 183.526 43.8133 183.931 43.12C184.336 42.416 184.891 41.8773 185.595 41.504C186.299 41.1307 187.088 40.944 187.963 40.944C188.838 40.944 189.627 41.1307 190.331 41.504C191.035 41.8773 191.59 42.416 191.995 43.12C192.4 43.8133 192.603 44.6187 192.603 45.536C192.603 46.4533 192.395 47.264 191.979 47.968C191.574 48.6613 191.014 49.1947 190.299 49.568C189.595 49.9413 188.806 50.128 187.931 50.128ZM187.931 47.76C188.454 47.76 188.896 47.568 189.259 47.184C189.632 46.8 189.819 46.2507 189.819 45.536C189.819 44.8213 189.638 44.272 189.275 43.888C188.923 43.504 188.486 43.312 187.963 43.312C187.43 43.312 186.987 43.504 186.635 43.888C186.283 44.2613 186.107 44.8107 186.107 45.536C186.107 46.2507 186.278 46.8 186.619 47.184C186.971 47.568 187.408 47.76 187.931 47.76ZM199.495 40.976C200.54 40.976 201.372 41.3173 201.991 42C202.62 42.672 202.935 43.6 202.935 44.784V50H200.215V45.152C200.215 44.5547 200.06 44.0907 199.751 43.76C199.441 43.4293 199.025 43.264 198.503 43.264C197.98 43.264 197.564 43.4293 197.255 43.76C196.945 44.0907 196.791 44.5547 196.791 45.152V50H194.055V41.072H196.791V42.256C197.068 41.8613 197.441 41.552 197.911 41.328C198.38 41.0933 198.908 40.976 199.495 40.976ZM209.812 47.68V50H208.42C207.428 50 206.654 49.76 206.1 49.28C205.545 48.7893 205.268 47.9947 205.268 46.896V43.344H204.18V41.072H205.268V38.896H208.004V41.072H209.796V43.344H208.004V46.928C208.004 47.1947 208.068 47.3867 208.196 47.504C208.324 47.6213 208.537 47.68 208.836 47.68H209.812ZM214.072 42.56C214.392 42.0693 214.792 41.6853 215.272 41.408C215.752 41.12 216.285 40.976 216.872 40.976V43.872H216.12C215.437 43.872 214.925 44.0213 214.584 44.32C214.242 44.608 214.072 45.12 214.072 45.856V50H211.336V41.072H214.072V42.56ZM222.244 50.128C221.369 50.128 220.58 49.9413 219.876 49.568C219.182 49.1947 218.633 48.6613 218.228 47.968C217.833 47.2747 217.636 46.464 217.636 45.536C217.636 44.6187 217.838 43.8133 218.243 43.12C218.649 42.416 219.204 41.8773 219.908 41.504C220.612 41.1307 221.401 40.944 222.276 40.944C223.15 40.944 223.94 41.1307 224.644 41.504C225.348 41.8773 225.902 42.416 226.308 43.12C226.713 43.8133 226.916 44.6187 226.916 45.536C226.916 46.4533 226.708 47.264 226.292 47.968C225.886 48.6613 225.326 49.1947 224.612 49.568C223.908 49.9413 223.118 50.128 222.244 50.128ZM222.244 47.76C222.766 47.76 223.209 47.568 223.572 47.184C223.945 46.8 224.132 46.2507 224.132 45.536C224.132 44.8213 223.95 44.272 223.588 43.888C223.236 43.504 222.798 43.312 222.276 43.312C221.742 43.312 221.3 43.504 220.948 43.888C220.596 44.2613 220.42 44.8107 220.42 45.536C220.42 46.2507 220.59 46.8 220.932 47.184C221.284 47.568 221.721 47.76 222.244 47.76ZM237.183 41.072V50H234.447V48.784C234.17 49.1787 233.791 49.4987 233.311 49.744C232.842 49.9787 232.319 50.096 231.743 50.096C231.06 50.096 230.458 49.9467 229.935 49.648C229.412 49.3387 229.007 48.896 228.719 48.32C228.431 47.744 228.287 47.0667 228.287 46.288V41.072H231.007V45.92C231.007 46.5173 231.162 46.9813 231.471 47.312C231.78 47.6427 232.196 47.808 232.719 47.808C233.252 47.808 233.674 47.6427 233.983 47.312C234.292 46.9813 234.447 46.5173 234.447 45.92V41.072H237.183ZM242.428 38.144C243.57 38.144 244.482 38.4427 245.164 39.04C245.858 39.6373 246.204 40.48 246.204 41.568C246.204 42.5707 245.874 43.3547 245.212 43.92C244.562 44.4747 243.698 44.7573 242.62 44.768L242.54 45.968H240.14L240.06 42.992H241.02C241.842 42.992 242.466 42.8907 242.892 42.688C243.33 42.4853 243.548 42.1173 243.548 41.584C243.548 41.2107 243.447 40.9173 243.244 40.704C243.042 40.4907 242.759 40.384 242.396 40.384C242.012 40.384 241.714 40.496 241.5 40.72C241.287 40.9333 241.18 41.2267 241.18 41.6H238.604C238.583 40.9493 238.716 40.3627 239.004 39.84C239.303 39.3173 239.74 38.9067 240.316 38.608C240.903 38.2987 241.607 38.144 242.428 38.144ZM241.372 50.128C240.892 50.128 240.498 49.9893 240.188 49.712C239.89 49.424 239.74 49.072 239.74 48.656C239.74 48.2293 239.89 47.872 240.188 47.584C240.498 47.296 240.892 47.152 241.372 47.152C241.842 47.152 242.226 47.296 242.524 47.584C242.834 47.872 242.988 48.2293 242.988 48.656C242.988 49.072 242.834 49.424 242.524 49.712C242.226 49.9893 241.842 50.128 241.372 50.128ZM24.992 75.92L23.552 73.984C23.1253 74.0693 22.7093 74.112 22.304 74.112C21.248 74.112 20.2773 73.8667 19.392 73.376C18.5173 72.8853 17.8187 72.2027 17.296 71.328C16.784 70.4427 16.528 69.4507 16.528 68.352C16.528 67.2533 16.784 66.2667 17.296 65.392C17.8187 64.5173 18.5173 63.8347 19.392 63.344C20.2773 62.8533 21.248 62.608 22.304 62.608C23.36 62.608 24.3253 62.8533 25.2 63.344C26.0853 63.8347 26.7787 64.5173 27.28 65.392C27.792 66.2667 28.048 67.2533 28.048 68.352C28.048 69.312 27.8507 70.192 27.456 70.992C27.072 71.7813 26.5333 72.4373 25.84 72.96L28.304 75.92H24.992ZM19.328 68.352C19.328 69.344 19.5947 70.1387 20.128 70.736C20.672 71.3227 21.3973 71.616 22.304 71.616C23.2 71.616 23.9147 71.3173 24.448 70.72C24.992 70.1227 25.264 69.3333 25.264 68.352C25.264 67.36 24.992 66.5707 24.448 65.984C23.9147 65.3867 23.2 65.088 22.304 65.088C21.3973 65.088 20.672 65.3813 20.128 65.968C19.5947 66.5547 19.328 67.3493 19.328 68.352ZM38.4174 65.072V74H35.6814V72.784C35.404 73.1787 35.0254 73.4987 34.5454 73.744C34.076 73.9787 33.5534 74.096 32.9774 74.096C32.2947 74.096 31.692 73.9467 31.1694 73.648C30.6467 73.3387 30.2414 72.896 29.9534 72.32C29.6654 71.744 29.5214 71.0667 29.5214 70.288V65.072H32.2414V69.92C32.2414 70.5173 32.396 70.9813 32.7054 71.312C33.0147 71.6427 33.4307 71.808 33.9534 71.808C34.4867 71.808 34.908 71.6427 35.2174 71.312C35.5267 70.9813 35.6814 70.5173 35.6814 69.92V65.072H38.4174ZM48.7986 69.392C48.7986 69.648 48.7826 69.9147 48.7506 70.192H42.5586C42.6013 70.7467 42.7773 71.1733 43.0866 71.472C43.4066 71.76 43.796 71.904 44.2546 71.904C44.9373 71.904 45.412 71.616 45.6786 71.04H48.5906C48.4413 71.6267 48.1693 72.1547 47.7746 72.624C47.3906 73.0933 46.9053 73.4613 46.3186 73.728C45.732 73.9947 45.076 74.128 44.3506 74.128C43.476 74.128 42.6973 73.9413 42.0146 73.568C41.332 73.1947 40.7986 72.6613 40.4146 71.968C40.0306 71.2747 39.8386 70.464 39.8386 69.536C39.8386 68.608 40.0253 67.7973 40.3986 67.104C40.7826 66.4107 41.316 65.8773 41.9986 65.504C42.6813 65.1307 43.4653 64.944 44.3506 64.944C45.2146 64.944 45.9826 65.1253 46.6546 65.488C47.3266 65.8507 47.8493 66.368 48.2226 67.04C48.6066 67.712 48.7986 68.496 48.7986 69.392ZM45.9986 68.672C45.9986 68.2027 45.8386 67.8293 45.5186 67.552C45.1986 67.2747 44.7986 67.136 44.3186 67.136C43.86 67.136 43.4706 67.2693 43.1506 67.536C42.8413 67.8027 42.6493 68.1813 42.5746 68.672H45.9986ZM58.6086 71.68V74H57.2166C56.2246 74 55.4513 73.76 54.8966 73.28C54.342 72.7893 54.0646 71.9947 54.0646 70.896V67.344H52.9766V65.072H54.0646V62.896H56.8006V65.072H58.5926V67.344H56.8006V70.928C56.8006 71.1947 56.8646 71.3867 56.9926 71.504C57.1206 71.6213 57.334 71.68 57.6326 71.68H58.6086ZM59.5886 69.52C59.5886 68.6027 59.7593 67.7973 60.1006 67.104C60.4526 66.4107 60.9273 65.8773 61.5246 65.504C62.122 65.1307 62.7886 64.944 63.5246 64.944C64.154 64.944 64.7033 65.072 65.1726 65.328C65.6526 65.584 66.0206 65.92 66.2766 66.336V65.072H69.0126V74H66.2766V72.736C66.01 73.152 65.6366 73.488 65.1566 73.744C64.6873 74 64.138 74.128 63.5086 74.128C62.7833 74.128 62.122 73.9413 61.5246 73.568C60.9273 73.184 60.4526 72.6453 60.1006 71.952C59.7593 71.248 59.5886 70.4373 59.5886 69.52ZM66.2766 69.536C66.2766 68.8533 66.0846 68.3147 65.7006 67.92C65.3273 67.5253 64.8686 67.328 64.3246 67.328C63.7806 67.328 63.3166 67.5253 62.9326 67.92C62.5593 68.304 62.3726 68.8373 62.3726 69.52C62.3726 70.2027 62.5593 70.7467 62.9326 71.152C63.3166 71.5467 63.7806 71.744 64.3246 71.744C64.8686 71.744 65.3273 71.5467 65.7006 71.152C66.0846 70.7573 66.2766 70.2187 66.2766 69.536ZM73.728 62.16V74H70.992V62.16H73.728ZM78.5574 69.52C78.5574 68.6027 78.728 67.7973 79.0694 67.104C79.4214 66.4107 79.896 65.8773 80.4934 65.504C81.0907 65.1307 81.7574 64.944 82.4934 64.944C83.1227 64.944 83.672 65.072 84.1414 65.328C84.6214 65.584 84.9894 65.92 85.2454 66.336V65.072H87.9814V74H85.2454V72.736C84.9787 73.152 84.6054 73.488 84.1254 73.744C83.656 74 83.1067 74.128 82.4774 74.128C81.752 74.128 81.0907 73.9413 80.4934 73.568C79.896 73.184 79.4214 72.6453 79.0694 71.952C78.728 71.248 78.5574 70.4373 78.5574 69.52ZM85.2454 69.536C85.2454 68.8533 85.0534 68.3147 84.6694 67.92C84.296 67.5253 83.8374 67.328 83.2934 67.328C82.7494 67.328 82.2854 67.5253 81.9014 67.92C81.528 68.304 81.3414 68.8373 81.3414 69.52C81.3414 70.2027 81.528 70.7467 81.9014 71.152C82.2854 71.5467 82.7494 71.744 83.2934 71.744C83.8374 71.744 84.296 71.5467 84.6694 71.152C85.0534 70.7573 85.2454 70.2187 85.2454 69.536ZM95.4008 64.976C96.4461 64.976 97.2781 65.3173 97.8968 66C98.5261 66.672 98.8408 67.6 98.8408 68.784V74H96.1208V69.152C96.1208 68.5547 95.9661 68.0907 95.6568 67.76C95.3474 67.4293 94.9314 67.264 94.4088 67.264C93.8861 67.264 93.4701 67.4293 93.1608 67.76C92.8514 68.0907 92.6968 68.5547 92.6968 69.152V74H89.9608V65.072H92.6968V66.256C92.9741 65.8613 93.3474 65.552 93.8168 65.328C94.2861 65.0933 94.8141 64.976 95.4008 64.976ZM109.558 65.072V74H106.822V72.784C106.545 73.1787 106.166 73.4987 105.686 73.744C105.217 73.9787 104.694 74.096 104.118 74.096C103.435 74.096 102.833 73.9467 102.31 73.648C101.787 73.3387 101.382 72.896 101.094 72.32C100.806 71.744 100.662 71.0667 100.662 70.288V65.072H103.382V69.92C103.382 70.5173 103.537 70.9813 103.846 71.312C104.155 71.6427 104.571 71.808 105.094 71.808C105.627 71.808 106.049 71.6427 106.358 71.312C106.667 70.9813 106.822 70.5173 106.822 69.92V65.072H109.558ZM116.963 64.976C118.009 64.976 118.841 65.3173 119.459 66C120.089 66.672 120.403 67.6 120.403 68.784V74H117.683V69.152C117.683 68.5547 117.529 68.0907 117.219 67.76C116.91 67.4293 116.494 67.264 115.971 67.264C115.449 67.264 115.033 67.4293 114.723 67.76C114.414 68.0907 114.259 68.5547 114.259 69.152V74H111.523V65.072H114.259V66.256C114.537 65.8613 114.91 65.552 115.379 65.328C115.849 65.0933 116.377 64.976 116.963 64.976ZM121.761 69.536C121.761 68.608 121.947 67.7973 122.321 67.104C122.705 66.4107 123.233 65.8773 123.905 65.504C124.587 65.1307 125.366 64.944 126.241 64.944C127.361 64.944 128.294 65.2373 129.041 65.824C129.798 66.4107 130.294 67.2373 130.529 68.304H127.617C127.371 67.6213 126.897 67.28 126.193 67.28C125.691 67.28 125.291 67.4773 124.993 67.872C124.694 68.256 124.545 68.8107 124.545 69.536C124.545 70.2613 124.694 70.8213 124.993 71.216C125.291 71.6 125.691 71.792 126.193 71.792C126.897 71.792 127.371 71.4507 127.617 70.768H130.529C130.294 71.8133 129.798 72.6347 129.041 73.232C128.283 73.8293 127.35 74.128 126.241 74.128C125.366 74.128 124.587 73.9413 123.905 73.568C123.233 73.1947 122.705 72.6613 122.321 71.968C121.947 71.2747 121.761 70.464 121.761 69.536ZM133.368 64.144C132.888 64.144 132.493 64.0053 132.184 63.728C131.885 63.44 131.736 63.088 131.736 62.672C131.736 62.2453 131.885 61.8933 132.184 61.616C132.493 61.328 132.888 61.184 133.368 61.184C133.837 61.184 134.221 61.328 134.52 61.616C134.829 61.8933 134.984 62.2453 134.984 62.672C134.984 63.088 134.829 63.44 134.52 63.728C134.221 64.0053 133.837 64.144 133.368 64.144ZM134.728 65.072V74H131.992V65.072H134.728ZM136.167 69.52C136.167 68.6027 136.337 67.7973 136.679 67.104C137.031 66.4107 137.505 65.8773 138.103 65.504C138.7 65.1307 139.367 64.944 140.103 64.944C140.732 64.944 141.281 65.072 141.751 65.328C142.231 65.584 142.599 65.92 142.855 66.336V65.072H145.591V74H142.855V72.736C142.588 73.152 142.215 73.488 141.735 73.744C141.265 74 140.716 74.128 140.087 74.128C139.361 74.128 138.7 73.9413 138.103 73.568C137.505 73.184 137.031 72.6453 136.679 71.952C136.337 71.248 136.167 70.4373 136.167 69.52ZM142.855 69.536C142.855 68.8533 142.663 68.3147 142.279 67.92C141.905 67.5253 141.447 67.328 140.903 67.328C140.359 67.328 139.895 67.5253 139.511 67.92C139.137 68.304 138.951 68.8373 138.951 69.52C138.951 70.2027 139.137 70.7467 139.511 71.152C139.895 71.5467 140.359 71.744 140.903 71.744C141.447 71.744 141.905 71.5467 142.279 71.152C142.663 70.7573 142.855 70.2187 142.855 69.536ZM150.306 66.56C150.626 66.0693 151.026 65.6853 151.506 65.408C151.986 65.12 152.519 64.976 153.106 64.976V67.872H152.354C151.671 67.872 151.159 68.0213 150.818 68.32C150.477 68.608 150.306 69.12 150.306 69.856V74H147.57V65.072H150.306V66.56ZM157.694 62.144C158.835 62.144 159.747 62.4427 160.43 63.04C161.123 63.6373 161.47 64.48 161.47 65.568C161.47 66.5707 161.139 67.3547 160.478 67.92C159.827 68.4747 158.963 68.7573 157.886 68.768L157.806 69.968H155.406L155.326 66.992H156.286C157.107 66.992 157.731 66.8907 158.158 66.688C158.595 66.4853 158.814 66.1173 158.814 65.584C158.814 65.2107 158.713 64.9173 158.51 64.704C158.307 64.4907 158.025 64.384 157.662 64.384C157.278 64.384 156.979 64.496 156.766 64.72C156.553 64.9333 156.446 65.2267 156.446 65.6H153.87C153.849 64.9493 153.982 64.3627 154.27 63.84C154.569 63.3173 155.006 62.9067 155.582 62.608C156.169 62.2987 156.873 62.144 157.694 62.144ZM156.638 74.128C156.158 74.128 155.763 73.9893 155.454 73.712C155.155 73.424 155.006 73.072 155.006 72.656C155.006 72.2293 155.155 71.872 155.454 71.584C155.763 71.296 156.158 71.152 156.638 71.152C157.107 71.152 157.491 71.296 157.79 71.584C158.099 71.872 158.254 72.2293 158.254 72.656C158.254 73.072 158.099 73.424 157.79 73.712C157.491 73.9893 157.107 74.128 156.638 74.128Z" fill="white"/>
<path d="M16.43 87.51C16.43 86.83 16.5833 86.22 16.89 85.68C17.1967 85.1333 17.6133 84.7067 18.14 84.4C18.6733 84.0933 19.2633 83.94 19.91 83.94C20.67 83.94 21.3333 84.1233 21.9 84.49C22.4667 84.8567 22.88 85.3767 23.14 86.05H22.05C21.8567 85.63 21.5767 85.3067 21.21 85.08C20.85 84.8533 20.4167 84.74 19.91 84.74C19.4233 84.74 18.9867 84.8533 18.6 85.08C18.2133 85.3067 17.91 85.63 17.69 86.05C17.47 86.4633 17.36 86.95 17.36 87.51C17.36 88.0633 17.47 88.55 17.69 88.97C17.91 89.3833 18.2133 89.7033 18.6 89.93C18.9867 90.1567 19.4233 90.27 19.91 90.27C20.4167 90.27 20.85 90.16 21.21 89.94C21.5767 89.7133 21.8567 89.39 22.05 88.97H23.14C22.88 89.6367 22.4667 90.1533 21.9 90.52C21.3333 90.88 20.67 91.06 19.91 91.06C19.2633 91.06 18.6733 90.91 18.14 90.61C17.6133 90.3033 17.1967 89.88 16.89 89.34C16.5833 88.8 16.43 88.19 16.43 87.51ZM26.8846 91.09C26.3713 91.09 25.9046 90.9733 25.4846 90.74C25.0713 90.5067 24.7446 90.1767 24.5046 89.75C24.2713 89.3167 24.1546 88.8167 24.1546 88.25C24.1546 87.69 24.2746 87.1967 24.5146 86.77C24.7613 86.3367 25.0946 86.0067 25.5146 85.78C25.9346 85.5467 26.4046 85.43 26.9246 85.43C27.4446 85.43 27.9146 85.5467 28.3346 85.78C28.7546 86.0067 29.0846 86.3333 29.3246 86.76C29.5713 87.1867 29.6946 87.6833 29.6946 88.25C29.6946 88.8167 29.5679 89.3167 29.3146 89.75C29.0679 90.1767 28.7313 90.5067 28.3046 90.74C27.8779 90.9733 27.4046 91.09 26.8846 91.09ZM26.8846 90.29C27.2113 90.29 27.5179 90.2133 27.8046 90.06C28.0913 89.9067 28.3213 89.6767 28.4946 89.37C28.6746 89.0633 28.7646 88.69 28.7646 88.25C28.7646 87.81 28.6779 87.4367 28.5046 87.13C28.3313 86.8233 28.1046 86.5967 27.8246 86.45C27.5446 86.2967 27.2413 86.22 26.9146 86.22C26.5813 86.22 26.2746 86.2967 25.9946 86.45C25.7213 86.5967 25.5013 86.8233 25.3346 87.13C25.1679 87.4367 25.0846 87.81 25.0846 88.25C25.0846 88.6967 25.1646 89.0733 25.3246 89.38C25.4913 89.6867 25.7113 89.9167 25.9846 90.07C26.2579 90.2167 26.5579 90.29 26.8846 90.29ZM37.4811 85.42C37.9078 85.42 38.2878 85.51 38.6211 85.69C38.9544 85.8633 39.2178 86.1267 39.4111 86.48C39.6044 86.8333 39.7011 87.2633 39.7011 87.77V91H38.8011V87.9C38.8011 87.3533 38.6644 86.9367 38.3911 86.65C38.1244 86.3567 37.7611 86.21 37.3011 86.21C36.8278 86.21 36.4511 86.3633 36.1711 86.67C35.8911 86.97 35.7511 87.4067 35.7511 87.98V91H34.8511V87.9C34.8511 87.3533 34.7144 86.9367 34.4411 86.65C34.1744 86.3567 33.8111 86.21 33.3511 86.21C32.8778 86.21 32.5011 86.3633 32.2211 86.67C31.9411 86.97 31.8011 87.4067 31.8011 87.98V91H30.8911V85.52H31.8011V86.31C31.9811 86.0233 32.2211 85.8033 32.5211 85.65C32.8278 85.4967 33.1644 85.42 33.5311 85.42C33.9911 85.42 34.3978 85.5233 34.7511 85.73C35.1044 85.9367 35.3678 86.24 35.5411 86.64C35.6944 86.2533 35.9478 85.9533 36.3011 85.74C36.6544 85.5267 37.0478 85.42 37.4811 85.42ZM42.1038 86.53C42.2838 86.2167 42.5505 85.9567 42.9038 85.75C43.2638 85.5367 43.6805 85.43 44.1538 85.43C44.6405 85.43 45.0805 85.5467 45.4738 85.78C45.8738 86.0133 46.1872 86.3433 46.4138 86.77C46.6405 87.19 46.7538 87.68 46.7538 88.24C46.7538 88.7933 46.6405 89.2867 46.4138 89.72C46.1872 90.1533 45.8738 90.49 45.4738 90.73C45.0805 90.97 44.6405 91.09 44.1538 91.09C43.6872 91.09 43.2738 90.9867 42.9138 90.78C42.5605 90.5667 42.2905 90.3033 42.1038 89.99V93.6H41.1938V85.52H42.1038V86.53ZM45.8238 88.24C45.8238 87.8267 45.7405 87.4667 45.5738 87.16C45.4072 86.8533 45.1805 86.62 44.8938 86.46C44.6138 86.3 44.3038 86.22 43.9638 86.22C43.6305 86.22 43.3205 86.3033 43.0338 86.47C42.7538 86.63 42.5272 86.8667 42.3538 87.18C42.1872 87.4867 42.1038 87.8433 42.1038 88.25C42.1038 88.6633 42.1872 89.0267 42.3538 89.34C42.5272 89.6467 42.7538 89.8833 43.0338 90.05C43.3205 90.21 43.6305 90.29 43.9638 90.29C44.3038 90.29 44.6138 90.21 44.8938 90.05C45.1805 89.8833 45.4072 89.6467 45.5738 89.34C45.7405 89.0267 45.8238 88.66 45.8238 88.24ZM47.6116 88.24C47.6116 87.68 47.725 87.19 47.9516 86.77C48.1783 86.3433 48.4883 86.0133 48.8816 85.78C49.2816 85.5467 49.725 85.43 50.2116 85.43C50.6916 85.43 51.1083 85.5333 51.4616 85.74C51.815 85.9467 52.0783 86.2067 52.2516 86.52V85.52H53.1716V91H52.2516V89.98C52.0716 90.3 51.8016 90.5667 51.4416 90.78C51.0883 90.9867 50.675 91.09 50.2016 91.09C49.715 91.09 49.275 90.97 48.8816 90.73C48.4883 90.49 48.1783 90.1533 47.9516 89.72C47.725 89.2867 47.6116 88.7933 47.6116 88.24ZM52.2516 88.25C52.2516 87.8367 52.1683 87.4767 52.0016 87.17C51.835 86.8633 51.6083 86.63 51.3216 86.47C51.0416 86.3033 50.7316 86.22 50.3916 86.22C50.0516 86.22 49.7416 86.3 49.4616 86.46C49.1816 86.62 48.9583 86.8533 48.7916 87.16C48.625 87.4667 48.5416 87.8267 48.5416 88.24C48.5416 88.66 48.625 89.0267 48.7916 89.34C48.9583 89.6467 49.1816 89.8833 49.4616 90.05C49.7416 90.21 50.0516 90.29 50.3916 90.29C50.7316 90.29 51.0416 90.21 51.3216 90.05C51.6083 89.8833 51.835 89.6467 52.0016 89.34C52.1683 89.0267 52.2516 88.6633 52.2516 88.25ZM55.6195 86.41C55.7795 86.0967 56.0061 85.8533 56.2995 85.68C56.5995 85.5067 56.9628 85.42 57.3895 85.42V86.36H57.1495C56.1295 86.36 55.6195 86.9133 55.6195 88.02V91H54.7095V85.52H55.6195V86.41ZM59.5499 86.27V89.5C59.5499 89.7667 59.6066 89.9567 59.7199 90.07C59.8333 90.1767 60.0299 90.23 60.3099 90.23H60.9799V91H60.1599C59.6533 91 59.2733 90.8833 59.0199 90.65C58.7666 90.4167 58.6399 90.0333 58.6399 89.5V86.27H57.9299V85.52H58.6399V84.14H59.5499V85.52H60.9799V86.27H59.5499ZM62.5525 84.63C62.3792 84.63 62.2325 84.57 62.1125 84.45C61.9925 84.33 61.9325 84.1833 61.9325 84.01C61.9325 83.8367 61.9925 83.69 62.1125 83.57C62.2325 83.45 62.3792 83.39 62.5525 83.39C62.7192 83.39 62.8592 83.45 62.9725 83.57C63.0925 83.69 63.1525 83.8367 63.1525 84.01C63.1525 84.1833 63.0925 84.33 62.9725 84.45C62.8592 84.57 62.7192 84.63 62.5525 84.63ZM62.9925 85.52V91H62.0825V85.52H62.9925ZM65.4534 83.6V91H64.5434V83.6H65.4534ZM69.7244 85.42C70.1377 85.42 70.511 85.51 70.8444 85.69C71.1777 85.8633 71.4377 86.1267 71.6244 86.48C71.8177 86.8333 71.9144 87.2633 71.9144 87.77V91H71.0144V87.9C71.0144 87.3533 70.8777 86.9367 70.6044 86.65C70.331 86.3567 69.9577 86.21 69.4844 86.21C69.0044 86.21 68.621 86.36 68.3344 86.66C68.0544 86.96 67.9144 87.3967 67.9144 87.97V91H67.0044V83.6H67.9144V86.3C68.0944 86.02 68.341 85.8033 68.6544 85.65C68.9744 85.4967 69.331 85.42 69.7244 85.42ZM78.4009 88.05C78.4009 88.2233 78.3909 88.4067 78.3709 88.6H73.9909C74.0242 89.14 74.2075 89.5633 74.5409 89.87C74.8809 90.17 75.2909 90.32 75.7709 90.32C76.1642 90.32 76.4909 90.23 76.7509 90.05C77.0175 89.8633 77.2042 89.6167 77.3109 89.31H78.2909C78.1442 89.8367 77.8509 90.2667 77.4109 90.6C76.9709 90.9267 76.4242 91.09 75.7709 91.09C75.2509 91.09 74.7842 90.9733 74.3709 90.74C73.9642 90.5067 73.6442 90.1767 73.4109 89.75C73.1775 89.3167 73.0609 88.8167 73.0609 88.25C73.0609 87.6833 73.1742 87.1867 73.4009 86.76C73.6275 86.3333 73.9442 86.0067 74.3509 85.78C74.7642 85.5467 75.2375 85.43 75.7709 85.43C76.2909 85.43 76.7509 85.5433 77.1509 85.77C77.5509 85.9967 77.8575 86.31 78.0709 86.71C78.2909 87.1033 78.4009 87.55 78.4009 88.05ZM77.4609 87.86C77.4609 87.5133 77.3842 87.2167 77.2309 86.97C77.0775 86.7167 76.8675 86.5267 76.6009 86.4C76.3409 86.2667 76.0509 86.2 75.7309 86.2C75.2709 86.2 74.8775 86.3467 74.5509 86.64C74.2309 86.9333 74.0475 87.34 74.0009 87.86H77.4609ZM84.658 91.09C84.1447 91.09 83.678 90.9733 83.258 90.74C82.8447 90.5067 82.518 90.1767 82.278 89.75C82.0447 89.3167 81.928 88.8167 81.928 88.25C81.928 87.69 82.048 87.1967 82.288 86.77C82.5347 86.3367 82.868 86.0067 83.288 85.78C83.708 85.5467 84.178 85.43 84.698 85.43C85.218 85.43 85.688 85.5467 86.108 85.78C86.528 86.0067 86.858 86.3333 87.098 86.76C87.3447 87.1867 87.468 87.6833 87.468 88.25C87.468 88.8167 87.3414 89.3167 87.088 89.75C86.8414 90.1767 86.5047 90.5067 86.078 90.74C85.6514 90.9733 85.178 91.09 84.658 91.09ZM84.658 90.29C84.9847 90.29 85.2914 90.2133 85.578 90.06C85.8647 89.9067 86.0947 89.6767 86.268 89.37C86.448 89.0633 86.538 88.69 86.538 88.25C86.538 87.81 86.4514 87.4367 86.278 87.13C86.1047 86.8233 85.878 86.5967 85.598 86.45C85.318 86.2967 85.0147 86.22 84.688 86.22C84.3547 86.22 84.048 86.2967 83.768 86.45C83.4947 86.5967 83.2747 86.8233 83.108 87.13C82.9414 87.4367 82.858 87.81 82.858 88.25C82.858 88.6967 82.938 89.0733 83.098 89.38C83.2647 89.6867 83.4847 89.9167 83.758 90.07C84.0314 90.2167 84.3314 90.29 84.658 90.29ZM90.9905 88.24C90.9905 87.68 91.1039 87.19 91.3305 86.77C91.5572 86.3433 91.8672 86.0133 92.2605 85.78C92.6605 85.5467 93.1072 85.43 93.6005 85.43C94.0739 85.43 94.4872 85.5367 94.8405 85.75C95.2005 85.9567 95.4639 86.2133 95.6305 86.52V85.52H96.5505V93.6H95.6305V89.99C95.4572 90.2967 95.1905 90.5567 94.8305 90.77C94.4705 90.9833 94.0505 91.09 93.5705 91.09C93.0905 91.09 92.6539 90.97 92.2605 90.73C91.8672 90.49 91.5572 90.1533 91.3305 89.72C91.1039 89.2867 90.9905 88.7933 90.9905 88.24ZM95.6305 88.25C95.6305 87.8367 95.5472 87.4767 95.3805 87.17C95.2139 86.8633 94.9872 86.63 94.7005 86.47C94.4205 86.3033 94.1105 86.22 93.7705 86.22C93.4305 86.22 93.1205 86.3 92.8405 86.46C92.5605 86.62 92.3372 86.8533 92.1705 87.16C92.0039 87.4667 91.9205 87.8267 91.9205 88.24C91.9205 88.66 92.0039 89.0267 92.1705 89.34C92.3372 89.6467 92.5605 89.8833 92.8405 90.05C93.1205 90.21 93.4305 90.29 93.7705 90.29C94.1105 90.29 94.4205 90.21 94.7005 90.05C94.9872 89.8833 95.2139 89.6467 95.3805 89.34C95.5472 89.0267 95.6305 88.6633 95.6305 88.25ZM102.948 85.52V91H102.038V90.19C101.865 90.47 101.622 90.69 101.308 90.85C101.002 91.0033 100.662 91.08 100.288 91.08C99.8617 91.08 99.4784 90.9933 99.1384 90.82C98.7984 90.64 98.5284 90.3733 98.3284 90.02C98.135 89.6667 98.0384 89.2367 98.0384 88.73V85.52H98.9384V88.61C98.9384 89.15 99.075 89.5667 99.3484 89.86C99.6217 90.1467 99.995 90.29 100.468 90.29C100.955 90.29 101.338 90.14 101.618 89.84C101.898 89.54 102.038 89.1033 102.038 88.53V85.52H102.948ZM109.485 88.05C109.485 88.2233 109.475 88.4067 109.455 88.6H105.075C105.108 89.14 105.292 89.5633 105.625 89.87C105.965 90.17 106.375 90.32 106.855 90.32C107.248 90.32 107.575 90.23 107.835 90.05C108.102 89.8633 108.288 89.6167 108.395 89.31H109.375C109.228 89.8367 108.935 90.2667 108.495 90.6C108.055 90.9267 107.508 91.09 106.855 91.09C106.335 91.09 105.868 90.9733 105.455 90.74C105.048 90.5067 104.728 90.1767 104.495 89.75C104.262 89.3167 104.145 88.8167 104.145 88.25C104.145 87.6833 104.258 87.1867 104.485 86.76C104.712 86.3333 105.028 86.0067 105.435 85.78C105.848 85.5467 106.322 85.43 106.855 85.43C107.375 85.43 107.835 85.5433 108.235 85.77C108.635 85.9967 108.942 86.31 109.155 86.71C109.375 87.1033 109.485 87.55 109.485 88.05ZM108.545 87.86C108.545 87.5133 108.468 87.2167 108.315 86.97C108.162 86.7167 107.952 86.5267 107.685 86.4C107.425 86.2667 107.135 86.2 106.815 86.2C106.355 86.2 105.962 86.3467 105.635 86.64C105.315 86.9333 105.132 87.34 105.085 87.86H108.545ZM113.012 88.24C113.012 87.68 113.125 87.19 113.352 86.77C113.579 86.3433 113.889 86.0133 114.282 85.78C114.682 85.5467 115.129 85.43 115.622 85.43C116.049 85.43 116.445 85.53 116.812 85.73C117.179 85.9233 117.459 86.18 117.652 86.5V83.6H118.572V91H117.652V89.97C117.472 90.2967 117.205 90.5667 116.852 90.78C116.499 90.9867 116.085 91.09 115.612 91.09C115.125 91.09 114.682 90.97 114.282 90.73C113.889 90.49 113.579 90.1533 113.352 89.72C113.125 89.2867 113.012 88.7933 113.012 88.24ZM117.652 88.25C117.652 87.8367 117.569 87.4767 117.402 87.17C117.235 86.8633 117.009 86.63 116.722 86.47C116.442 86.3033 116.132 86.22 115.792 86.22C115.452 86.22 115.142 86.3 114.862 86.46C114.582 86.62 114.359 86.8533 114.192 87.16C114.025 87.4667 113.942 87.8267 113.942 88.24C113.942 88.66 114.025 89.0267 114.192 89.34C114.359 89.6467 114.582 89.8833 114.862 90.05C115.142 90.21 115.452 90.29 115.792 90.29C116.132 90.29 116.442 90.21 116.722 90.05C117.009 89.8833 117.235 89.6467 117.402 89.34C117.569 89.0267 117.652 88.6633 117.652 88.25ZM125.11 88.05C125.11 88.2233 125.1 88.4067 125.08 88.6H120.7C120.733 89.14 120.917 89.5633 121.25 89.87C121.59 90.17 122 90.32 122.48 90.32C122.873 90.32 123.2 90.23 123.46 90.05C123.727 89.8633 123.913 89.6167 124.02 89.31H125C124.853 89.8367 124.56 90.2667 124.12 90.6C123.68 90.9267 123.133 91.09 122.48 91.09C121.96 91.09 121.493 90.9733 121.08 90.74C120.673 90.5067 120.353 90.1767 120.12 89.75C119.887 89.3167 119.77 88.8167 119.77 88.25C119.77 87.6833 119.883 87.1867 120.11 86.76C120.337 86.3333 120.653 86.0067 121.06 85.78C121.473 85.5467 121.947 85.43 122.48 85.43C123 85.43 123.46 85.5433 123.86 85.77C124.26 85.9967 124.567 86.31 124.78 86.71C125 87.1033 125.11 87.55 125.11 88.05ZM124.17 87.86C124.17 87.5133 124.093 87.2167 123.94 86.97C123.787 86.7167 123.577 86.5267 123.31 86.4C123.05 86.2667 122.76 86.2 122.44 86.2C121.98 86.2 121.587 86.3467 121.26 86.64C120.94 86.9333 120.757 87.34 120.71 87.86H124.17ZM128.251 91.09C127.831 91.09 127.454 91.02 127.121 90.88C126.788 90.7333 126.524 90.5333 126.331 90.28C126.138 90.02 126.031 89.7233 126.011 89.39H126.951C126.978 89.6633 127.104 89.8867 127.331 90.06C127.564 90.2333 127.868 90.32 128.241 90.32C128.588 90.32 128.861 90.2433 129.061 90.09C129.261 89.9367 129.361 89.7433 129.361 89.51C129.361 89.27 129.254 89.0933 129.041 88.98C128.828 88.86 128.498 88.7433 128.051 88.63C127.644 88.5233 127.311 88.4167 127.051 88.31C126.798 88.1967 126.578 88.0333 126.391 87.82C126.211 87.6 126.121 87.3133 126.121 86.96C126.121 86.68 126.204 86.4233 126.371 86.19C126.538 85.9567 126.774 85.7733 127.081 85.64C127.388 85.5 127.738 85.43 128.131 85.43C128.738 85.43 129.228 85.5833 129.601 85.89C129.974 86.1967 130.174 86.6167 130.201 87.15H129.291C129.271 86.8633 129.154 86.6333 128.941 86.46C128.734 86.2867 128.454 86.2 128.101 86.2C127.774 86.2 127.514 86.27 127.321 86.41C127.128 86.55 127.031 86.7333 127.031 86.96C127.031 87.14 127.088 87.29 127.201 87.41C127.321 87.5233 127.468 87.6167 127.641 87.69C127.821 87.7567 128.068 87.8333 128.381 87.92C128.774 88.0267 129.094 88.1333 129.341 88.24C129.588 88.34 129.798 88.4933 129.971 88.7C130.151 88.9067 130.244 89.1767 130.251 89.51C130.251 89.81 130.168 90.08 130.001 90.32C129.834 90.56 129.598 90.75 129.291 90.89C128.991 91.0233 128.644 91.09 128.251 91.09ZM136.536 88.05C136.536 88.2233 136.526 88.4067 136.506 88.6H132.126C132.159 89.14 132.342 89.5633 132.676 89.87C133.016 90.17 133.426 90.32 133.906 90.32C134.299 90.32 134.626 90.23 134.886 90.05C135.152 89.8633 135.339 89.6167 135.446 89.31H136.426C136.279 89.8367 135.986 90.2667 135.546 90.6C135.106 90.9267 134.559 91.09 133.906 91.09C133.386 91.09 132.919 90.9733 132.506 90.74C132.099 90.5067 131.779 90.1767 131.546 89.75C131.312 89.3167 131.196 88.8167 131.196 88.25C131.196 87.6833 131.309 87.1867 131.536 86.76C131.762 86.3333 132.079 86.0067 132.486 85.78C132.899 85.5467 133.372 85.43 133.906 85.43C134.426 85.43 134.886 85.5433 135.286 85.77C135.686 85.9967 135.992 86.31 136.206 86.71C136.426 87.1033 136.536 87.55 136.536 88.05ZM135.596 87.86C135.596 87.5133 135.519 87.2167 135.366 86.97C135.212 86.7167 135.002 86.5267 134.736 86.4C134.476 86.2667 134.186 86.2 133.866 86.2C133.406 86.2 133.012 86.3467 132.686 86.64C132.366 86.9333 132.182 87.34 132.136 87.86H135.596ZM138.227 84.63C138.053 84.63 137.907 84.57 137.787 84.45C137.673 84.33 137.617 84.1833 137.617 84.01C137.617 83.8367 137.673 83.69 137.787 83.57C137.907 83.45 138.053 83.39 138.227 83.39C138.4 83.39 138.543 83.45 138.657 83.57C138.777 83.69 138.837 83.8367 138.837 84.01C138.837 84.1833 138.777 84.33 138.657 84.45C138.543 84.57 138.4 84.63 138.227 84.63ZM138.677 92.19C138.677 92.6767 138.553 93.0333 138.307 93.26C138.06 93.4867 137.7 93.6 137.227 93.6H136.697V92.83H137.077C137.33 92.83 137.507 92.78 137.607 92.68C137.713 92.58 137.767 92.41 137.767 92.17V85.52H138.677V92.19ZM139.877 88.24C139.877 87.68 139.991 87.19 140.217 86.77C140.444 86.3433 140.754 86.0133 141.147 85.78C141.547 85.5467 141.991 85.43 142.477 85.43C142.957 85.43 143.374 85.5333 143.727 85.74C144.081 85.9467 144.344 86.2067 144.517 86.52V85.52H145.437V91H144.517V89.98C144.337 90.3 144.067 90.5667 143.707 90.78C143.354 90.9867 142.941 91.09 142.467 91.09C141.981 91.09 141.541 90.97 141.147 90.73C140.754 90.49 140.444 90.1533 140.217 89.72C139.991 89.2867 139.877 88.7933 139.877 88.24ZM144.517 88.25C144.517 87.8367 144.434 87.4767 144.267 87.17C144.101 86.8633 143.874 86.63 143.587 86.47C143.307 86.3033 142.997 86.22 142.657 86.22C142.317 86.22 142.007 86.3 141.727 86.46C141.447 86.62 141.224 86.8533 141.057 87.16C140.891 87.4667 140.807 87.8267 140.807 88.24C140.807 88.66 140.891 89.0267 141.057 89.34C141.224 89.6467 141.447 89.8833 141.727 90.05C142.007 90.21 142.317 90.29 142.657 90.29C142.997 90.29 143.307 90.21 143.587 90.05C143.874 89.8833 144.101 89.6467 144.267 89.34C144.434 89.0267 144.517 88.6633 144.517 88.25ZM149.301 88.25C149.301 87.6833 149.414 87.19 149.641 86.77C149.868 86.3433 150.181 86.0133 150.581 85.78C150.988 85.5467 151.451 85.43 151.971 85.43C152.644 85.43 153.198 85.5933 153.631 85.92C154.071 86.2467 154.361 86.7 154.501 87.28H153.521C153.428 86.9467 153.244 86.6833 152.971 86.49C152.704 86.2967 152.371 86.2 151.971 86.2C151.451 86.2 151.031 86.38 150.711 86.74C150.391 87.0933 150.231 87.5967 150.231 88.25C150.231 88.91 150.391 89.42 150.711 89.78C151.031 90.14 151.451 90.32 151.971 90.32C152.371 90.32 152.704 90.2267 152.971 90.04C153.238 89.8533 153.421 89.5867 153.521 89.24H154.501C154.354 89.8 154.061 90.25 153.621 90.59C153.181 90.9233 152.631 91.09 151.971 91.09C151.451 91.09 150.988 90.9733 150.581 90.74C150.181 90.5067 149.868 90.1767 149.641 89.75C149.414 89.3233 149.301 88.8233 149.301 88.25ZM158.105 91.09C157.592 91.09 157.125 90.9733 156.705 90.74C156.292 90.5067 155.965 90.1767 155.725 89.75C155.492 89.3167 155.375 88.8167 155.375 88.25C155.375 87.69 155.495 87.1967 155.735 86.77C155.982 86.3367 156.315 86.0067 156.735 85.78C157.155 85.5467 157.625 85.43 158.145 85.43C158.665 85.43 159.135 85.5467 159.555 85.78C159.975 86.0067 160.305 86.3333 160.545 86.76C160.792 87.1867 160.915 87.6833 160.915 88.25C160.915 88.8167 160.789 89.3167 160.535 89.75C160.289 90.1767 159.952 90.5067 159.525 90.74C159.099 90.9733 158.625 91.09 158.105 91.09ZM158.105 90.29C158.432 90.29 158.739 90.2133 159.025 90.06C159.312 89.9067 159.542 89.6767 159.715 89.37C159.895 89.0633 159.985 88.69 159.985 88.25C159.985 87.81 159.899 87.4367 159.725 87.13C159.552 86.8233 159.325 86.5967 159.045 86.45C158.765 86.2967 158.462 86.22 158.135 86.22C157.802 86.22 157.495 86.2967 157.215 86.45C156.942 86.5967 156.722 86.8233 156.555 87.13C156.389 87.4367 156.305 87.81 156.305 88.25C156.305 88.6967 156.385 89.0733 156.545 89.38C156.712 89.6867 156.932 89.9167 157.205 90.07C157.479 90.2167 157.779 90.29 158.105 90.29ZM168.702 85.42C169.128 85.42 169.508 85.51 169.842 85.69C170.175 85.8633 170.438 86.1267 170.632 86.48C170.825 86.8333 170.922 87.2633 170.922 87.77V91H170.022V87.9C170.022 87.3533 169.885 86.9367 169.612 86.65C169.345 86.3567 168.982 86.21 168.522 86.21C168.048 86.21 167.672 86.3633 167.392 86.67C167.112 86.97 166.972 87.4067 166.972 87.98V91H166.072V87.9C166.072 87.3533 165.935 86.9367 165.662 86.65C165.395 86.3567 165.032 86.21 164.572 86.21C164.098 86.21 163.722 86.3633 163.442 86.67C163.162 86.97 163.022 87.4067 163.022 87.98V91H162.112V85.52H163.022V86.31C163.202 86.0233 163.442 85.8033 163.742 85.65C164.048 85.4967 164.385 85.42 164.752 85.42C165.212 85.42 165.618 85.5233 165.972 85.73C166.325 85.9367 166.588 86.24 166.762 86.64C166.915 86.2533 167.168 85.9533 167.522 85.74C167.875 85.5267 168.268 85.42 168.702 85.42ZM173.325 86.53C173.505 86.2167 173.771 85.9567 174.125 85.75C174.485 85.5367 174.901 85.43 175.375 85.43C175.861 85.43 176.301 85.5467 176.695 85.78C177.095 86.0133 177.408 86.3433 177.635 86.77C177.861 87.19 177.975 87.68 177.975 88.24C177.975 88.7933 177.861 89.2867 177.635 89.72C177.408 90.1533 177.095 90.49 176.695 90.73C176.301 90.97 175.861 91.09 175.375 91.09C174.908 91.09 174.495 90.9867 174.135 90.78C173.781 90.5667 173.511 90.3033 173.325 89.99V93.6H172.415V85.52H173.325V86.53ZM177.045 88.24C177.045 87.8267 176.961 87.4667 176.795 87.16C176.628 86.8533 176.401 86.62 176.115 86.46C175.835 86.3 175.525 86.22 175.185 86.22C174.851 86.22 174.541 86.3033 174.255 86.47C173.975 86.63 173.748 86.8667 173.575 87.18C173.408 87.4867 173.325 87.8433 173.325 88.25C173.325 88.6633 173.408 89.0267 173.575 89.34C173.748 89.6467 173.975 89.8833 174.255 90.05C174.541 90.21 174.851 90.29 175.185 90.29C175.525 90.29 175.835 90.21 176.115 90.05C176.401 89.8833 176.628 89.6467 176.795 89.34C176.961 89.0267 177.045 88.66 177.045 88.24ZM180.082 86.41C180.242 86.0967 180.469 85.8533 180.762 85.68C181.062 85.5067 181.426 85.42 181.852 85.42V86.36H181.612C180.592 86.36 180.082 86.9133 180.082 88.02V91H179.172V85.52H180.082V86.41ZM182.563 88.24C182.563 87.68 182.676 87.19 182.903 86.77C183.129 86.3433 183.439 86.0133 183.833 85.78C184.233 85.5467 184.676 85.43 185.163 85.43C185.643 85.43 186.059 85.5333 186.413 85.74C186.766 85.9467 187.029 86.2067 187.203 86.52V85.52H188.123V91H187.203V89.98C187.023 90.3 186.753 90.5667 186.393 90.78C186.039 90.9867 185.626 91.09 185.153 91.09C184.666 91.09 184.226 90.97 183.833 90.73C183.439 90.49 183.129 90.1533 182.903 89.72C182.676 89.2867 182.563 88.7933 182.563 88.24ZM187.203 88.25C187.203 87.8367 187.119 87.4767 186.953 87.17C186.786 86.8633 186.559 86.63 186.273 86.47C185.993 86.3033 185.683 86.22 185.343 86.22C185.003 86.22 184.693 86.3 184.413 86.46C184.133 86.62 183.909 86.8533 183.743 87.16C183.576 87.4667 183.493 87.8267 183.493 88.24C183.493 88.66 183.576 89.0267 183.743 89.34C183.909 89.6467 184.133 89.8833 184.413 90.05C184.693 90.21 185.003 90.29 185.343 90.29C185.683 90.29 185.993 90.21 186.273 90.05C186.559 89.8833 186.786 89.6467 186.953 89.34C187.119 89.0267 187.203 88.6633 187.203 88.25ZM190.571 86.41C190.731 86.0967 190.957 85.8533 191.251 85.68C191.551 85.5067 191.914 85.42 192.341 85.42V86.36H192.101C191.081 86.36 190.571 86.9133 190.571 88.02V91H189.661V85.52H190.571V86.41ZM201.057 88.05C201.057 88.2233 201.047 88.4067 201.027 88.6H196.647C196.68 89.14 196.864 89.5633 197.197 89.87C197.537 90.17 197.947 90.32 198.427 90.32C198.82 90.32 199.147 90.23 199.407 90.05C199.674 89.8633 199.86 89.6167 199.967 89.31H200.947C200.8 89.8367 200.507 90.2667 200.067 90.6C199.627 90.9267 199.08 91.09 198.427 91.09C197.907 91.09 197.44 90.9733 197.027 90.74C196.62 90.5067 196.3 90.1767 196.067 89.75C195.834 89.3167 195.717 88.8167 195.717 88.25C195.717 87.6833 195.83 87.1867 196.057 86.76C196.284 86.3333 196.6 86.0067 197.007 85.78C197.42 85.5467 197.894 85.43 198.427 85.43C198.947 85.43 199.407 85.5433 199.807 85.77C200.207 85.9967 200.514 86.31 200.727 86.71C200.947 87.1033 201.057 87.55 201.057 88.05ZM200.117 87.86C200.117 87.5133 200.04 87.2167 199.887 86.97C199.734 86.7167 199.524 86.5267 199.257 86.4C198.997 86.2667 198.707 86.2 198.387 86.2C197.927 86.2 197.534 86.3467 197.207 86.64C196.887 86.9333 196.704 87.34 196.657 87.86H200.117ZM16.43 103.24C16.43 102.68 16.5433 102.19 16.77 101.77C16.9967 101.343 17.3067 101.013 17.7 100.78C18.1 100.547 18.5467 100.43 19.04 100.43C19.4667 100.43 19.8633 100.53 20.23 100.73C20.5967 100.923 20.8767 101.18 21.07 101.5V98.6H21.99V106H21.07V104.97C20.89 105.297 20.6233 105.567 20.27 105.78C19.9167 105.987 19.5033 106.09 19.03 106.09C18.5433 106.09 18.1 105.97 17.7 105.73C17.3067 105.49 16.9967 105.153 16.77 104.72C16.5433 104.287 16.43 103.793 16.43 103.24ZM21.07 103.25C21.07 102.837 20.9867 102.477 20.82 102.17C20.6533 101.863 20.4267 101.63 20.14 101.47C19.86 101.303 19.55 101.22 19.21 101.22C18.87 101.22 18.56 101.3 18.28 101.46C18 101.62 17.7767 101.853 17.61 102.16C17.4433 102.467 17.36 102.827 17.36 103.24C17.36 103.66 17.4433 104.027 17.61 104.34C17.7767 104.647 18 104.883 18.28 105.05C18.56 105.21 18.87 105.29 19.21 105.29C19.55 105.29 19.86 105.21 20.14 105.05C20.4267 104.883 20.6533 104.647 20.82 104.34C20.9867 104.027 21.07 103.663 21.07 103.25ZM28.5278 103.05C28.5278 103.223 28.5178 103.407 28.4978 103.6H24.1178C24.1511 104.14 24.3345 104.563 24.6678 104.87C25.0078 105.17 25.4178 105.32 25.8978 105.32C26.2911 105.32 26.6178 105.23 26.8778 105.05C27.1445 104.863 27.3311 104.617 27.4378 104.31H28.4178C28.2711 104.837 27.9778 105.267 27.5378 105.6C27.0978 105.927 26.5511 106.09 25.8978 106.09C25.3778 106.09 24.9111 105.973 24.4978 105.74C24.0911 105.507 23.7711 105.177 23.5378 104.75C23.3045 104.317 23.1878 103.817 23.1878 103.25C23.1878 102.683 23.3011 102.187 23.5278 101.76C23.7545 101.333 24.0711 101.007 24.4778 100.78C24.8911 100.547 25.3645 100.43 25.8978 100.43C26.4178 100.43 26.8778 100.543 27.2778 100.77C27.6778 100.997 27.9845 101.31 28.1978 101.71C28.4178 102.103 28.5278 102.55 28.5278 103.05ZM27.5878 102.86C27.5878 102.513 27.5111 102.217 27.3578 101.97C27.2045 101.717 26.9945 101.527 26.7278 101.4C26.4678 101.267 26.1778 101.2 25.8578 101.2C25.3978 101.2 25.0045 101.347 24.6778 101.64C24.3578 101.933 24.1745 102.34 24.1278 102.86H27.5878ZM30.199 99.63C30.0257 99.63 29.879 99.57 29.759 99.45C29.639 99.33 29.579 99.1833 29.579 99.01C29.579 98.8367 29.639 98.69 29.759 98.57C29.879 98.45 30.0257 98.39 30.199 98.39C30.3657 98.39 30.5057 98.45 30.619 98.57C30.739 98.69 30.799 98.8367 30.799 99.01C30.799 99.1833 30.739 99.33 30.619 99.45C30.5057 99.57 30.3657 99.63 30.199 99.63ZM30.639 100.52V106H29.729V100.52H30.639ZM35.0499 106L33.7499 103.96L32.4999 106H31.5499L33.3199 103.28L31.5499 100.52H32.5799L33.8799 102.55L35.1199 100.52H36.0699L34.3099 103.23L36.0799 106H35.0499ZM41.9751 103.05C41.9751 103.223 41.9651 103.407 41.9451 103.6H37.5651C37.5984 104.14 37.7817 104.563 38.1151 104.87C38.4551 105.17 38.8651 105.32 39.3451 105.32C39.7384 105.32 40.0651 105.23 40.3251 105.05C40.5917 104.863 40.7784 104.617 40.8851 104.31H41.8651C41.7184 104.837 41.4251 105.267 40.9851 105.6C40.5451 105.927 39.9984 106.09 39.3451 106.09C38.8251 106.09 38.3584 105.973 37.9451 105.74C37.5384 105.507 37.2184 105.177 36.9851 104.75C36.7517 104.317 36.6351 103.817 36.6351 103.25C36.6351 102.683 36.7484 102.187 36.9751 101.76C37.2017 101.333 37.5184 101.007 37.9251 100.78C38.3384 100.547 38.8117 100.43 39.3451 100.43C39.8651 100.43 40.3251 100.543 40.7251 100.77C41.1251 100.997 41.4317 101.31 41.6451 101.71C41.8651 102.103 41.9751 102.55 41.9751 103.05ZM41.0351 102.86C41.0351 102.513 40.9584 102.217 40.8051 101.97C40.6517 101.717 40.4417 101.527 40.1751 101.4C39.9151 101.267 39.6251 101.2 39.3051 101.2C38.8451 101.2 38.4517 101.347 38.1251 101.64C37.8051 101.933 37.6217 102.34 37.5751 102.86H41.0351ZM48.5123 100.42C49.1789 100.42 49.7189 100.623 50.1323 101.03C50.5456 101.43 50.7523 102.01 50.7523 102.77V106H49.8523V102.9C49.8523 102.353 49.7156 101.937 49.4423 101.65C49.1689 101.357 48.7956 101.21 48.3223 101.21C47.8423 101.21 47.4589 101.36 47.1723 101.66C46.8923 101.96 46.7523 102.397 46.7523 102.97V106H45.8423V100.52H46.7523V101.3C46.9323 101.02 47.1756 100.803 47.4823 100.65C47.7956 100.497 48.1389 100.42 48.5123 100.42ZM54.6288 106.09C54.1154 106.09 53.6488 105.973 53.2288 105.74C52.8154 105.507 52.4888 105.177 52.2488 104.75C52.0154 104.317 51.8988 103.817 51.8988 103.25C51.8988 102.69 52.0188 102.197 52.2588 101.77C52.5054 101.337 52.8388 101.007 53.2588 100.78C53.6788 100.547 54.1488 100.43 54.6688 100.43C55.1888 100.43 55.6588 100.547 56.0788 100.78C56.4988 101.007 56.8288 101.333 57.0688 101.76C57.3154 102.187 57.4388 102.683 57.4388 103.25C57.4388 103.817 57.3121 104.317 57.0588 104.75C56.8121 105.177 56.4754 105.507 56.0488 105.74C55.6221 105.973 55.1488 106.09 54.6288 106.09ZM54.6288 105.29C54.9554 105.29 55.2621 105.213 55.5488 105.06C55.8354 104.907 56.0654 104.677 56.2388 104.37C56.4188 104.063 56.5088 103.69 56.5088 103.25C56.5088 102.81 56.4221 102.437 56.2488 102.13C56.0754 101.823 55.8488 101.597 55.5688 101.45C55.2888 101.297 54.9854 101.22 54.6588 101.22C54.3254 101.22 54.0188 101.297 53.7388 101.45C53.4654 101.597 53.2454 101.823 53.0788 102.13C52.9121 102.437 52.8288 102.81 52.8288 103.25C52.8288 103.697 52.9088 104.073 53.0688 104.38C53.2354 104.687 53.4554 104.917 53.7288 105.07C54.0021 105.217 54.3021 105.29 54.6288 105.29ZM60.5752 106.09C60.1552 106.09 59.7786 106.02 59.4452 105.88C59.1119 105.733 58.8486 105.533 58.6552 105.28C58.4619 105.02 58.3552 104.723 58.3352 104.39H59.2752C59.3019 104.663 59.4286 104.887 59.6552 105.06C59.8886 105.233 60.1919 105.32 60.5652 105.32C60.9119 105.32 61.1852 105.243 61.3852 105.09C61.5852 104.937 61.6852 104.743 61.6852 104.51C61.6852 104.27 61.5786 104.093 61.3652 103.98C61.1519 103.86 60.8219 103.743 60.3752 103.63C59.9686 103.523 59.6352 103.417 59.3752 103.31C59.1219 103.197 58.9019 103.033 58.7152 102.82C58.5352 102.6 58.4452 102.313 58.4452 101.96C58.4452 101.68 58.5286 101.423 58.6952 101.19C58.8619 100.957 59.0986 100.773 59.4052 100.64C59.7119 100.5 60.0619 100.43 60.4552 100.43C61.0619 100.43 61.5519 100.583 61.9252 100.89C62.2986 101.197 62.4986 101.617 62.5252 102.15H61.6152C61.5952 101.863 61.4786 101.633 61.2652 101.46C61.0586 101.287 60.7786 101.2 60.4252 101.2C60.0986 101.2 59.8386 101.27 59.6452 101.41C59.4519 101.55 59.3552 101.733 59.3552 101.96C59.3552 102.14 59.4119 102.29 59.5252 102.41C59.6452 102.523 59.7919 102.617 59.9652 102.69C60.1452 102.757 60.3919 102.833 60.7052 102.92C61.0986 103.027 61.4186 103.133 61.6652 103.24C61.9119 103.34 62.1219 103.493 62.2952 103.7C62.4752 103.907 62.5686 104.177 62.5752 104.51C62.5752 104.81 62.4919 105.08 62.3252 105.32C62.1586 105.56 61.9219 105.75 61.6152 105.89C61.3152 106.023 60.9686 106.09 60.5752 106.09ZM65.7998 106.09C65.3798 106.09 65.0032 106.02 64.6698 105.88C64.3365 105.733 64.0732 105.533 63.8798 105.28C63.6865 105.02 63.5798 104.723 63.5598 104.39H64.4998C64.5265 104.663 64.6532 104.887 64.8798 105.06C65.1132 105.233 65.4165 105.32 65.7898 105.32C66.1365 105.32 66.4098 105.243 66.6098 105.09C66.8098 104.937 66.9098 104.743 66.9098 104.51C66.9098 104.27 66.8032 104.093 66.5898 103.98C66.3765 103.86 66.0465 103.743 65.5998 103.63C65.1932 103.523 64.8598 103.417 64.5998 103.31C64.3465 103.197 64.1265 103.033 63.9398 102.82C63.7598 102.6 63.6698 102.313 63.6698 101.96C63.6698 101.68 63.7532 101.423 63.9198 101.19C64.0865 100.957 64.3232 100.773 64.6298 100.64C64.9365 100.5 65.2865 100.43 65.6798 100.43C66.2865 100.43 66.7765 100.583 67.1498 100.89C67.5232 101.197 67.7232 101.617 67.7498 102.15H66.8398C66.8198 101.863 66.7032 101.633 66.4898 101.46C66.2832 101.287 66.0032 101.2 65.6498 101.2C65.3232 101.2 65.0632 101.27 64.8698 101.41C64.6765 101.55 64.5798 101.733 64.5798 101.96C64.5798 102.14 64.6365 102.29 64.7498 102.41C64.8698 102.523 65.0165 102.617 65.1898 102.69C65.3698 102.757 65.6165 102.833 65.9298 102.92C66.3232 103.027 66.6432 103.133 66.8898 103.24C67.1365 103.34 67.3465 103.493 67.5198 103.7C67.6998 103.907 67.7932 104.177 67.7998 104.51C67.7998 104.81 67.7165 105.08 67.5498 105.32C67.3832 105.56 67.1465 105.75 66.8398 105.89C66.5398 106.023 66.1932 106.09 65.7998 106.09ZM68.7445 103.24C68.7445 102.68 68.8578 102.19 69.0845 101.77C69.3111 101.343 69.6211 101.013 70.0145 100.78C70.4145 100.547 70.8578 100.43 71.3445 100.43C71.8245 100.43 72.2411 100.533 72.5945 100.74C72.9478 100.947 73.2111 101.207 73.3845 101.52V100.52H74.3045V106H73.3845V104.98C73.2045 105.3 72.9345 105.567 72.5745 105.78C72.2211 105.987 71.8078 106.09 71.3345 106.09C70.8478 106.09 70.4078 105.97 70.0145 105.73C69.6211 105.49 69.3111 105.153 69.0845 104.72C68.8578 104.287 68.7445 103.793 68.7445 103.24ZM73.3845 103.25C73.3845 102.837 73.3011 102.477 73.1345 102.17C72.9678 101.863 72.7411 101.63 72.4545 101.47C72.1745 101.303 71.8645 101.22 71.5245 101.22C71.1845 101.22 70.8745 101.3 70.5945 101.46C70.3145 101.62 70.0911 101.853 69.9245 102.16C69.7578 102.467 69.6745 102.827 69.6745 103.24C69.6745 103.66 69.7578 104.027 69.9245 104.34C70.0911 104.647 70.3145 104.883 70.5945 105.05C70.8745 105.21 71.1845 105.29 71.5245 105.29C71.8645 105.29 72.1745 105.21 72.4545 105.05C72.7411 104.883 72.9678 104.647 73.1345 104.34C73.3011 104.027 73.3845 103.663 73.3845 103.25ZM78.1683 103.25C78.1683 102.683 78.2816 102.19 78.5083 101.77C78.7349 101.343 79.0483 101.013 79.4483 100.78C79.8549 100.547 80.3183 100.43 80.8383 100.43C81.5116 100.43 82.0649 100.593 82.4983 100.92C82.9383 101.247 83.2283 101.7 83.3683 102.28H82.3883C82.2949 101.947 82.1116 101.683 81.8383 101.49C81.5716 101.297 81.2383 101.2 80.8383 101.2C80.3183 101.2 79.8983 101.38 79.5783 101.74C79.2583 102.093 79.0983 102.597 79.0983 103.25C79.0983 103.91 79.2583 104.42 79.5783 104.78C79.8983 105.14 80.3183 105.32 80.8383 105.32C81.2383 105.32 81.5716 105.227 81.8383 105.04C82.1049 104.853 82.2883 104.587 82.3883 104.24H83.3683C83.2216 104.8 82.9283 105.25 82.4883 105.59C82.0483 105.923 81.4983 106.09 80.8383 106.09C80.3183 106.09 79.8549 105.973 79.4483 105.74C79.0483 105.507 78.7349 105.177 78.5083 104.75C78.2816 104.323 78.1683 103.823 78.1683 103.25ZM86.9725 106.09C86.4592 106.09 85.9925 105.973 85.5725 105.74C85.1592 105.507 84.8325 105.177 84.5925 104.75C84.3592 104.317 84.2425 103.817 84.2425 103.25C84.2425 102.69 84.3625 102.197 84.6025 101.77C84.8492 101.337 85.1825 101.007 85.6025 100.78C86.0225 100.547 86.4925 100.43 87.0125 100.43C87.5325 100.43 88.0025 100.547 88.4225 100.78C88.8425 101.007 89.1725 101.333 89.4125 101.76C89.6592 102.187 89.7825 102.683 89.7825 103.25C89.7825 103.817 89.6558 104.317 89.4025 104.75C89.1558 105.177 88.8192 105.507 88.3925 105.74C87.9658 105.973 87.4925 106.09 86.9725 106.09ZM86.9725 105.29C87.2992 105.29 87.6058 105.213 87.8925 105.06C88.1792 104.907 88.4092 104.677 88.5825 104.37C88.7625 104.063 88.8525 103.69 88.8525 103.25C88.8525 102.81 88.7658 102.437 88.5925 102.13C88.4192 101.823 88.1925 101.597 87.9125 101.45C87.6325 101.297 87.3292 101.22 87.0025 101.22C86.6692 101.22 86.3625 101.297 86.0825 101.45C85.8092 101.597 85.5892 101.823 85.4225 102.13C85.2558 102.437 85.1725 102.81 85.1725 103.25C85.1725 103.697 85.2525 104.073 85.4125 104.38C85.5792 104.687 85.7992 104.917 86.0725 105.07C86.3458 105.217 86.6458 105.29 86.9725 105.29ZM97.569 100.42C97.9957 100.42 98.3757 100.51 98.709 100.69C99.0423 100.863 99.3057 101.127 99.499 101.48C99.6923 101.833 99.789 102.263 99.789 102.77V106H98.889V102.9C98.889 102.353 98.7523 101.937 98.479 101.65C98.2123 101.357 97.849 101.21 97.389 101.21C96.9157 101.21 96.539 101.363 96.259 101.67C95.979 101.97 95.839 102.407 95.839 102.98V106H94.939V102.9C94.939 102.353 94.8023 101.937 94.529 101.65C94.2623 101.357 93.899 101.21 93.439 101.21C92.9657 101.21 92.589 101.363 92.309 101.67C92.029 101.97 91.889 102.407 91.889 102.98V106H90.979V100.52H91.889V101.31C92.069 101.023 92.309 100.803 92.609 100.65C92.9157 100.497 93.2523 100.42 93.619 100.42C94.079 100.42 94.4857 100.523 94.839 100.73C95.1923 100.937 95.4557 101.24 95.629 101.64C95.7823 101.253 96.0357 100.953 96.389 100.74C96.7423 100.527 97.1357 100.42 97.569 100.42ZM106.142 100.52V106H105.232V105.19C105.058 105.47 104.815 105.69 104.502 105.85C104.195 106.003 103.855 106.08 103.482 106.08C103.055 106.08 102.672 105.993 102.332 105.82C101.992 105.64 101.722 105.373 101.522 105.02C101.328 104.667 101.232 104.237 101.232 103.73V100.52H102.132V103.61C102.132 104.15 102.268 104.567 102.542 104.86C102.815 105.147 103.188 105.29 103.662 105.29C104.148 105.29 104.532 105.14 104.812 104.84C105.092 104.54 105.232 104.103 105.232 103.53V100.52H106.142ZM110.348 100.42C111.015 100.42 111.555 100.623 111.968 101.03C112.382 101.43 112.588 102.01 112.588 102.77V106H111.688V102.9C111.688 102.353 111.552 101.937 111.278 101.65C111.005 101.357 110.632 101.21 110.158 101.21C109.678 101.21 109.295 101.36 109.008 101.66C108.728 101.96 108.588 102.397 108.588 102.97V106H107.678V100.52H108.588V101.3C108.768 101.02 109.012 100.803 109.318 100.65C109.632 100.497 109.975 100.42 110.348 100.42ZM114.545 99.63C114.371 99.63 114.225 99.57 114.105 99.45C113.985 99.33 113.925 99.1833 113.925 99.01C113.925 98.8367 113.985 98.69 114.105 98.57C114.225 98.45 114.371 98.39 114.545 98.39C114.711 98.39 114.851 98.45 114.965 98.57C115.085 98.69 115.145 98.8367 115.145 99.01C115.145 99.1833 115.085 99.33 114.965 99.45C114.851 99.57 114.711 99.63 114.545 99.63ZM114.985 100.52V106H114.075V100.52H114.985ZM116.196 103.24C116.196 102.68 116.309 102.19 116.536 101.77C116.762 101.343 117.072 101.013 117.466 100.78C117.866 100.547 118.312 100.43 118.806 100.43C119.232 100.43 119.629 100.53 119.996 100.73C120.362 100.923 120.642 101.18 120.836 101.5V98.6H121.756V106H120.836V104.97C120.656 105.297 120.389 105.567 120.036 105.78C119.682 105.987 119.269 106.09 118.796 106.09C118.309 106.09 117.866 105.97 117.466 105.73C117.072 105.49 116.762 105.153 116.536 104.72C116.309 104.287 116.196 103.793 116.196 103.24ZM120.836 103.25C120.836 102.837 120.752 102.477 120.586 102.17C120.419 101.863 120.192 101.63 119.906 101.47C119.626 101.303 119.316 101.22 118.976 101.22C118.636 101.22 118.326 101.3 118.046 101.46C117.766 101.62 117.542 101.853 117.376 102.16C117.209 102.467 117.126 102.827 117.126 103.24C117.126 103.66 117.209 104.027 117.376 104.34C117.542 104.647 117.766 104.883 118.046 105.05C118.326 105.21 118.636 105.29 118.976 105.29C119.316 105.29 119.626 105.21 119.906 105.05C120.192 104.883 120.419 104.647 120.586 104.34C120.752 104.027 120.836 103.663 120.836 103.25ZM122.953 103.24C122.953 102.68 123.067 102.19 123.293 101.77C123.52 101.343 123.83 101.013 124.223 100.78C124.623 100.547 125.067 100.43 125.553 100.43C126.033 100.43 126.45 100.533 126.803 100.74C127.157 100.947 127.42 101.207 127.593 101.52V100.52H128.513V106H127.593V104.98C127.413 105.3 127.143 105.567 126.783 105.78C126.43 105.987 126.017 106.09 125.543 106.09C125.057 106.09 124.617 105.97 124.223 105.73C123.83 105.49 123.52 105.153 123.293 104.72C123.067 104.287 122.953 103.793 122.953 103.24ZM127.593 103.25C127.593 102.837 127.51 102.477 127.343 102.17C127.177 101.863 126.95 101.63 126.663 101.47C126.383 101.303 126.073 101.22 125.733 101.22C125.393 101.22 125.083 101.3 124.803 101.46C124.523 101.62 124.3 101.853 124.133 102.16C123.967 102.467 123.883 102.827 123.883 103.24C123.883 103.66 123.967 104.027 124.133 104.34C124.3 104.647 124.523 104.883 124.803 105.05C125.083 105.21 125.393 105.29 125.733 105.29C126.073 105.29 126.383 105.21 126.663 105.05C126.95 104.883 127.177 104.647 127.343 104.34C127.51 104.027 127.593 103.663 127.593 103.25ZM129.711 103.24C129.711 102.68 129.825 102.19 130.051 101.77C130.278 101.343 130.588 101.013 130.981 100.78C131.381 100.547 131.828 100.43 132.321 100.43C132.748 100.43 133.145 100.53 133.511 100.73C133.878 100.923 134.158 101.18 134.351 101.5V98.6H135.271V106H134.351V104.97C134.171 105.297 133.905 105.567 133.551 105.78C133.198 105.987 132.785 106.09 132.311 106.09C131.825 106.09 131.381 105.97 130.981 105.73C130.588 105.49 130.278 105.153 130.051 104.72C129.825 104.287 129.711 103.793 129.711 103.24ZM134.351 103.25C134.351 102.837 134.268 102.477 134.101 102.17C133.935 101.863 133.708 101.63 133.421 101.47C133.141 101.303 132.831 101.22 132.491 101.22C132.151 101.22 131.841 101.3 131.561 101.46C131.281 101.62 131.058 101.853 130.891 102.16C130.725 102.467 130.641 102.827 130.641 103.24C130.641 103.66 130.725 104.027 130.891 104.34C131.058 104.647 131.281 104.883 131.561 105.05C131.841 105.21 132.151 105.29 132.491 105.29C132.831 105.29 133.141 105.21 133.421 105.05C133.708 104.883 133.935 104.647 134.101 104.34C134.268 104.027 134.351 103.663 134.351 103.25ZM141.809 103.05C141.809 103.223 141.799 103.407 141.779 103.6H137.399C137.432 104.14 137.616 104.563 137.949 104.87C138.289 105.17 138.699 105.32 139.179 105.32C139.572 105.32 139.899 105.23 140.159 105.05C140.426 104.863 140.612 104.617 140.719 104.31H141.699C141.552 104.837 141.259 105.267 140.819 105.6C140.379 105.927 139.832 106.09 139.179 106.09C138.659 106.09 138.192 105.973 137.779 105.74C137.372 105.507 137.052 105.177 136.819 104.75C136.586 104.317 136.469 103.817 136.469 103.25C136.469 102.683 136.582 102.187 136.809 101.76C137.036 101.333 137.352 101.007 137.759 100.78C138.172 100.547 138.646 100.43 139.179 100.43C139.699 100.43 140.159 100.543 140.559 100.77C140.959 100.997 141.266 101.31 141.479 101.71C141.699 102.103 141.809 102.55 141.809 103.05ZM140.869 102.86C140.869 102.513 140.792 102.217 140.639 101.97C140.486 101.717 140.276 101.527 140.009 101.4C139.749 101.267 139.459 101.2 139.139 101.2C138.679 101.2 138.286 101.347 137.959 101.64C137.639 101.933 137.456 102.34 137.409 102.86H140.869ZM150.676 103.05C150.676 103.223 150.666 103.407 150.646 103.6H146.266C146.3 104.14 146.483 104.563 146.816 104.87C147.156 105.17 147.566 105.32 148.046 105.32C148.44 105.32 148.766 105.23 149.026 105.05C149.293 104.863 149.48 104.617 149.586 104.31H150.566C150.42 104.837 150.126 105.267 149.686 105.6C149.246 105.927 148.7 106.09 148.046 106.09C147.526 106.09 147.06 105.973 146.646 105.74C146.24 105.507 145.92 105.177 145.686 104.75C145.453 104.317 145.336 103.817 145.336 103.25C145.336 102.683 145.45 102.187 145.676 101.76C145.903 101.333 146.22 101.007 146.626 100.78C147.04 100.547 147.513 100.43 148.046 100.43C148.566 100.43 149.026 100.543 149.426 100.77C149.826 100.997 150.133 101.31 150.346 101.71C150.566 102.103 150.676 102.55 150.676 103.05ZM149.736 102.86C149.736 102.513 149.66 102.217 149.506 101.97C149.353 101.717 149.143 101.527 148.876 101.4C148.616 101.267 148.326 101.2 148.006 101.2C147.546 101.2 147.153 101.347 146.826 101.64C146.506 101.933 146.323 102.34 146.276 102.86H149.736ZM154.547 100.42C155.214 100.42 155.754 100.623 156.167 101.03C156.581 101.43 156.787 102.01 156.787 102.77V106H155.887V102.9C155.887 102.353 155.751 101.937 155.477 101.65C155.204 101.357 154.831 101.21 154.357 101.21C153.877 101.21 153.494 101.36 153.207 101.66C152.927 101.96 152.787 102.397 152.787 102.97V106H151.877V100.52H152.787V101.3C152.967 101.02 153.211 100.803 153.517 100.65C153.831 100.497 154.174 100.42 154.547 100.42ZM157.934 103.25C157.934 102.683 158.047 102.19 158.274 101.77C158.501 101.343 158.814 101.013 159.214 100.78C159.621 100.547 160.084 100.43 160.604 100.43C161.277 100.43 161.831 100.593 162.264 100.92C162.704 101.247 162.994 101.7 163.134 102.28H162.154C162.061 101.947 161.877 101.683 161.604 101.49C161.337 101.297 161.004 101.2 160.604 101.2C160.084 101.2 159.664 101.38 159.344 101.74C159.024 102.093 158.864 102.597 158.864 103.25C158.864 103.91 159.024 104.42 159.344 104.78C159.664 105.14 160.084 105.32 160.604 105.32C161.004 105.32 161.337 105.227 161.604 105.04C161.871 104.853 162.054 104.587 162.154 104.24H163.134C162.987 104.8 162.694 105.25 162.254 105.59C161.814 105.923 161.264 106.09 160.604 106.09C160.084 106.09 159.621 105.973 159.214 105.74C158.814 105.507 158.501 105.177 158.274 104.75C158.047 104.323 157.934 103.823 157.934 103.25ZM166.738 106.09C166.225 106.09 165.758 105.973 165.338 105.74C164.925 105.507 164.598 105.177 164.358 104.75C164.125 104.317 164.008 103.817 164.008 103.25C164.008 102.69 164.128 102.197 164.368 101.77C164.615 101.337 164.948 101.007 165.368 100.78C165.788 100.547 166.258 100.43 166.778 100.43C167.298 100.43 167.768 100.547 168.188 100.78C168.608 101.007 168.938 101.333 169.178 101.76C169.425 102.187 169.548 102.683 169.548 103.25C169.548 103.817 169.421 104.317 169.168 104.75C168.921 105.177 168.585 105.507 168.158 105.74C167.731 105.973 167.258 106.09 166.738 106.09ZM166.738 105.29C167.065 105.29 167.371 105.213 167.658 105.06C167.945 104.907 168.175 104.677 168.348 104.37C168.528 104.063 168.618 103.69 168.618 103.25C168.618 102.81 168.531 102.437 168.358 102.13C168.185 101.823 167.958 101.597 167.678 101.45C167.398 101.297 167.095 101.22 166.768 101.22C166.435 101.22 166.128 101.297 165.848 101.45C165.575 101.597 165.355 101.823 165.188 102.13C165.021 102.437 164.938 102.81 164.938 103.25C164.938 103.697 165.018 104.073 165.178 104.38C165.345 104.687 165.565 104.917 165.838 105.07C166.111 105.217 166.411 105.29 166.738 105.29ZM173.415 100.42C174.081 100.42 174.621 100.623 175.035 101.03C175.448 101.43 175.655 102.01 175.655 102.77V106H174.755V102.9C174.755 102.353 174.618 101.937 174.345 101.65C174.071 101.357 173.698 101.21 173.225 101.21C172.745 101.21 172.361 101.36 172.075 101.66C171.795 101.96 171.655 102.397 171.655 102.97V106H170.745V100.52H171.655V101.3C171.835 101.02 172.078 100.803 172.385 100.65C172.698 100.497 173.041 100.42 173.415 100.42ZM178.251 101.27V104.5C178.251 104.767 178.308 104.957 178.421 105.07C178.534 105.177 178.731 105.23 179.011 105.23H179.681V106H178.861C178.354 106 177.974 105.883 177.721 105.65C177.468 105.417 177.341 105.033 177.341 104.5V101.27H176.631V100.52H177.341V99.14H178.251V100.52H179.681V101.27H178.251ZM181.694 101.41C181.854 101.097 182.08 100.853 182.374 100.68C182.674 100.507 183.037 100.42 183.464 100.42V101.36H183.224C182.204 101.36 181.694 101.913 181.694 103.02V106H180.784V100.52H181.694V101.41ZM184.174 103.24C184.174 102.68 184.287 102.19 184.514 101.77C184.741 101.343 185.051 101.013 185.444 100.78C185.844 100.547 186.287 100.43 186.774 100.43C187.254 100.43 187.671 100.533 188.024 100.74C188.377 100.947 188.641 101.207 188.814 101.52V100.52H189.734V106H188.814V104.98C188.634 105.3 188.364 105.567 188.004 105.78C187.651 105.987 187.237 106.09 186.764 106.09C186.277 106.09 185.837 105.97 185.444 105.73C185.051 105.49 184.741 105.153 184.514 104.72C184.287 104.287 184.174 103.793 184.174 103.24ZM188.814 103.25C188.814 102.837 188.731 102.477 188.564 102.17C188.397 101.863 188.171 101.63 187.884 101.47C187.604 101.303 187.294 101.22 186.954 101.22C186.614 101.22 186.304 101.3 186.024 101.46C185.744 101.62 185.521 101.853 185.354 102.16C185.187 102.467 185.104 102.827 185.104 103.24C185.104 103.66 185.187 104.027 185.354 104.34C185.521 104.647 185.744 104.883 186.024 105.05C186.304 105.21 186.614 105.29 186.954 105.29C187.294 105.29 187.604 105.21 187.884 105.05C188.171 104.883 188.397 104.647 188.564 104.34C188.731 104.027 188.814 103.663 188.814 103.25ZM192.182 101.41C192.342 101.097 192.569 100.853 192.862 100.68C193.162 100.507 193.525 100.42 193.952 100.42V101.36H193.712C192.692 101.36 192.182 101.913 192.182 103.02V106H191.272V100.52H192.182V101.41ZM17.68 116.53C17.86 116.217 18.1267 115.957 18.48 115.75C18.84 115.537 19.2567 115.43 19.73 115.43C20.2167 115.43 20.6567 115.547 21.05 115.78C21.45 116.013 21.7633 116.343 21.99 116.77C22.2167 117.19 22.33 117.68 22.33 118.24C22.33 118.793 22.2167 119.287 21.99 119.72C21.7633 120.153 21.45 120.49 21.05 120.73C20.6567 120.97 20.2167 121.09 19.73 121.09C19.2633 121.09 18.85 120.987 18.49 120.78C18.1367 120.567 17.8667 120.303 17.68 119.99V123.6H16.77V115.52H17.68V116.53ZM21.4 118.24C21.4 117.827 21.3167 117.467 21.15 117.16C20.9833 116.853 20.7567 116.62 20.47 116.46C20.19 116.3 19.88 116.22 19.54 116.22C19.2067 116.22 18.8967 116.303 18.61 116.47C18.33 116.63 18.1033 116.867 17.93 117.18C17.7633 117.487 17.68 117.843 17.68 118.25C17.68 118.663 17.7633 119.027 17.93 119.34C18.1033 119.647 18.33 119.883 18.61 120.05C18.8967 120.21 19.2067 120.29 19.54 120.29C19.88 120.29 20.19 120.21 20.47 120.05C20.7567 119.883 20.9833 119.647 21.15 119.34C21.3167 119.027 21.4 118.66 21.4 118.24ZM23.1878 118.24C23.1878 117.68 23.3011 117.19 23.5278 116.77C23.7545 116.343 24.0645 116.013 24.4578 115.78C24.8578 115.547 25.3011 115.43 25.7878 115.43C26.2678 115.43 26.6845 115.533 27.0378 115.74C27.3911 115.947 27.6545 116.207 27.8278 116.52V115.52H28.7478V121H27.8278V119.98C27.6478 120.3 27.3778 120.567 27.0178 120.78C26.6645 120.987 26.2511 121.09 25.7778 121.09C25.2911 121.09 24.8511 120.97 24.4578 120.73C24.0645 120.49 23.7545 120.153 23.5278 119.72C23.3011 119.287 23.1878 118.793 23.1878 118.24ZM27.8278 118.25C27.8278 117.837 27.7445 117.477 27.5778 117.17C27.4111 116.863 27.1845 116.63 26.8978 116.47C26.6178 116.303 26.3078 116.22 25.9678 116.22C25.6278 116.22 25.3178 116.3 25.0378 116.46C24.7578 116.62 24.5345 116.853 24.3678 117.16C24.2011 117.467 24.1178 117.827 24.1178 118.24C24.1178 118.66 24.2011 119.027 24.3678 119.34C24.5345 119.647 24.7578 119.883 25.0378 120.05C25.3178 120.21 25.6278 120.29 25.9678 120.29C26.3078 120.29 26.6178 120.21 26.8978 120.05C27.1845 119.883 27.4111 119.647 27.5778 119.34C27.7445 119.027 27.8278 118.663 27.8278 118.25ZM31.1956 116.41C31.3556 116.097 31.5823 115.853 31.8756 115.68C32.1756 115.507 32.539 115.42 32.9656 115.42V116.36H32.7256C31.7056 116.36 31.1956 116.913 31.1956 118.02V121H30.2856V115.52H31.1956V116.41ZM33.6761 118.24C33.6761 117.68 33.7894 117.19 34.0161 116.77C34.2428 116.343 34.5528 116.013 34.9461 115.78C35.3461 115.547 35.7894 115.43 36.2761 115.43C36.7561 115.43 37.1728 115.533 37.5261 115.74C37.8794 115.947 38.1428 116.207 38.3161 116.52V115.52H39.2361V121H38.3161V119.98C38.1361 120.3 37.8661 120.567 37.5061 120.78C37.1528 120.987 36.7394 121.09 36.2661 121.09C35.7794 121.09 35.3394 120.97 34.9461 120.73C34.5528 120.49 34.2428 120.153 34.0161 119.72C33.7894 119.287 33.6761 118.793 33.6761 118.24ZM38.3161 118.25C38.3161 117.837 38.2328 117.477 38.0661 117.17C37.8994 116.863 37.6728 116.63 37.3861 116.47C37.1061 116.303 36.7961 116.22 36.4561 116.22C36.1161 116.22 35.8061 116.3 35.5261 116.46C35.2461 116.62 35.0228 116.853 34.8561 117.16C34.6894 117.467 34.6061 117.827 34.6061 118.24C34.6061 118.66 34.6894 119.027 34.8561 119.34C35.0228 119.647 35.2461 119.883 35.5261 120.05C35.8061 120.21 36.1161 120.29 36.4561 120.29C36.7961 120.29 37.1061 120.21 37.3861 120.05C37.6728 119.883 37.8994 119.647 38.0661 119.34C38.2328 119.027 38.3161 118.663 38.3161 118.25ZM45.4799 120.16L47.1799 115.52H48.1499L45.9999 121H44.9399L42.7899 115.52H43.7699L45.4799 120.16ZM51.4354 121.09C50.9221 121.09 50.4554 120.973 50.0354 120.74C49.6221 120.507 49.2954 120.177 49.0554 119.75C48.8221 119.317 48.7054 118.817 48.7054 118.25C48.7054 117.69 48.8254 117.197 49.0654 116.77C49.3121 116.337 49.6454 116.007 50.0654 115.78C50.4854 115.547 50.9554 115.43 51.4754 115.43C51.9954 115.43 52.4654 115.547 52.8854 115.78C53.3054 116.007 53.6354 116.333 53.8754 116.76C54.1221 117.187 54.2454 117.683 54.2454 118.25C54.2454 118.817 54.1187 119.317 53.8654 119.75C53.6187 120.177 53.2821 120.507 52.8554 120.74C52.4287 120.973 51.9554 121.09 51.4354 121.09ZM51.4354 120.29C51.7621 120.29 52.0687 120.213 52.3554 120.06C52.6421 119.907 52.8721 119.677 53.0454 119.37C53.2254 119.063 53.3154 118.69 53.3154 118.25C53.3154 117.81 53.2287 117.437 53.0554 117.13C52.8821 116.823 52.6554 116.597 52.3754 116.45C52.0954 116.297 51.7921 116.22 51.4654 116.22C51.1321 116.22 50.8254 116.297 50.5454 116.45C50.2721 116.597 50.0521 116.823 49.8854 117.13C49.7187 117.437 49.6354 117.81 49.6354 118.25C49.6354 118.697 49.7154 119.073 49.8754 119.38C50.0421 119.687 50.2621 119.917 50.5354 120.07C50.8087 120.217 51.1087 120.29 51.4354 120.29ZM55.1019 118.25C55.1019 117.683 55.2152 117.19 55.4419 116.77C55.6685 116.343 55.9819 116.013 56.3819 115.78C56.7885 115.547 57.2519 115.43 57.7719 115.43C58.4452 115.43 58.9985 115.593 59.4319 115.92C59.8719 116.247 60.1619 116.7 60.3019 117.28H59.3219C59.2285 116.947 59.0452 116.683 58.7719 116.49C58.5052 116.297 58.1719 116.2 57.7719 116.2C57.2519 116.2 56.8319 116.38 56.5119 116.74C56.1919 117.093 56.0319 117.597 56.0319 118.25C56.0319 118.91 56.1919 119.42 56.5119 119.78C56.8319 120.14 57.2519 120.32 57.7719 120.32C58.1719 120.32 58.5052 120.227 58.7719 120.04C59.0385 119.853 59.2219 119.587 59.3219 119.24H60.3019C60.1552 119.8 59.8619 120.25 59.4219 120.59C58.9819 120.923 58.4319 121.09 57.7719 121.09C57.2519 121.09 56.7885 120.973 56.3819 120.74C55.9819 120.507 55.6685 120.177 55.4419 119.75C55.2152 119.323 55.1019 118.823 55.1019 118.25ZM66.5161 118.05C66.5161 118.223 66.5061 118.407 66.4861 118.6H62.1061C62.1394 119.14 62.3228 119.563 62.6561 119.87C62.9961 120.17 63.4061 120.32 63.8861 120.32C64.2794 120.32 64.6061 120.23 64.8661 120.05C65.1328 119.863 65.3194 119.617 65.4261 119.31H66.4061C66.2594 119.837 65.9661 120.267 65.5261 120.6C65.0861 120.927 64.5394 121.09 63.8861 121.09C63.3661 121.09 62.8994 120.973 62.4861 120.74C62.0794 120.507 61.7594 120.177 61.5261 119.75C61.2928 119.317 61.1761 118.817 61.1761 118.25C61.1761 117.683 61.2894 117.187 61.5161 116.76C61.7428 116.333 62.0594 116.007 62.4661 115.78C62.8794 115.547 63.3528 115.43 63.8861 115.43C64.4061 115.43 64.8661 115.543 65.2661 115.77C65.6661 115.997 65.9728 116.31 66.1861 116.71C66.4061 117.103 66.5161 117.55 66.5161 118.05ZM65.5761 117.86C65.5761 117.513 65.4994 117.217 65.3461 116.97C65.1928 116.717 64.9828 116.527 64.7161 116.4C64.4561 116.267 64.1661 116.2 63.8461 116.2C63.3861 116.2 62.9928 116.347 62.6661 116.64C62.3461 116.933 62.1628 117.34 62.1161 117.86H65.5761ZM63.8561 114.18L62.4661 115.03V114.31L63.8561 113.48L65.2361 114.31V115.03L63.8561 114.18ZM68.0073 121.06C67.8339 121.06 67.6873 121 67.5673 120.88C67.4473 120.76 67.3873 120.613 67.3873 120.44C67.3873 120.267 67.4473 120.12 67.5673 120C67.6873 119.88 67.8339 119.82 68.0073 119.82C68.1739 119.82 68.3139 119.88 68.4273 120C68.5473 120.12 68.6073 120.267 68.6073 120.44C68.6073 120.613 68.5473 120.76 68.4273 120.88C68.3139 121 68.1739 121.06 68.0073 121.06Z" fill="white"/>
<rect x="223" y="90" width="111" height="34" rx="4" fill="white"/>
<path d="M236.928 109.296H233.436L232.836 111H231.408L234.396 102.648H235.98L238.968 111H237.528L236.928 109.296ZM236.544 108.18L235.188 104.304L233.82 108.18H236.544ZM243.603 104.28C244.123 104.28 244.587 104.388 244.995 104.604C245.411 104.82 245.735 105.14 245.967 105.564C246.199 105.988 246.315 106.5 246.315 107.1V111H244.959V107.304C244.959 106.712 244.811 106.26 244.515 105.948C244.219 105.628 243.815 105.468 243.303 105.468C242.791 105.468 242.383 105.628 242.079 105.948C241.783 106.26 241.635 106.712 241.635 107.304V111H240.267V104.388H241.635V105.144C241.859 104.872 242.143 104.66 242.487 104.508C242.839 104.356 243.211 104.28 243.603 104.28ZM254.048 104.388V111H252.68V110.22C252.464 110.492 252.18 110.708 251.828 110.868C251.484 111.02 251.116 111.096 250.724 111.096C250.204 111.096 249.736 110.988 249.32 110.772C248.912 110.556 248.588 110.236 248.348 109.812C248.116 109.388 248 108.876 248 108.276V104.388H249.356V108.072C249.356 108.664 249.504 109.12 249.8 109.44C250.096 109.752 250.5 109.908 251.012 109.908C251.524 109.908 251.928 109.752 252.224 109.44C252.528 109.12 252.68 108.664 252.68 108.072V104.388H254.048ZM259.189 104.28C259.709 104.28 260.173 104.388 260.581 104.604C260.997 104.82 261.321 105.14 261.553 105.564C261.785 105.988 261.901 106.5 261.901 107.1V111H260.545V107.304C260.545 106.712 260.397 106.26 260.101 105.948C259.805 105.628 259.401 105.468 258.889 105.468C258.377 105.468 257.969 105.628 257.665 105.948C257.369 106.26 257.221 106.712 257.221 107.304V111H255.853V104.388H257.221V105.144C257.445 104.872 257.729 104.66 258.073 104.508C258.425 104.356 258.797 104.28 259.189 104.28ZM263.19 107.688C263.19 107.008 263.326 106.412 263.598 105.9C263.878 105.38 264.262 104.98 264.75 104.7C265.238 104.42 265.798 104.28 266.43 104.28C267.23 104.28 267.89 104.472 268.41 104.856C268.938 105.232 269.294 105.772 269.478 106.476H268.002C267.882 106.148 267.69 105.892 267.426 105.708C267.162 105.524 266.83 105.432 266.43 105.432C265.87 105.432 265.422 105.632 265.086 106.032C264.758 106.424 264.594 106.976 264.594 107.688C264.594 108.4 264.758 108.956 265.086 109.356C265.422 109.756 265.87 109.956 266.43 109.956C267.222 109.956 267.746 109.608 268.002 108.912H269.478C269.286 109.584 268.926 110.12 268.398 110.52C267.87 110.912 267.214 111.108 266.43 111.108C265.798 111.108 265.238 110.968 264.75 110.688C264.262 110.4 263.878 110 263.598 109.488C263.326 108.968 263.19 108.368 263.19 107.688ZM271.537 103.512C271.289 103.512 271.081 103.428 270.913 103.26C270.745 103.092 270.661 102.884 270.661 102.636C270.661 102.388 270.745 102.18 270.913 102.012C271.081 101.844 271.289 101.76 271.537 101.76C271.777 101.76 271.981 101.844 272.149 102.012C272.317 102.18 272.401 102.388 272.401 102.636C272.401 102.884 272.317 103.092 272.149 103.26C271.981 103.428 271.777 103.512 271.537 103.512ZM272.209 104.388V111H270.841V104.388H272.209ZM273.549 107.664C273.549 107 273.685 106.412 273.957 105.9C274.237 105.388 274.613 104.992 275.085 104.712C275.565 104.424 276.093 104.28 276.669 104.28C277.189 104.28 277.641 104.384 278.025 104.592C278.417 104.792 278.729 105.044 278.961 105.348V104.388H280.341V111H278.961V110.016C278.729 110.328 278.413 110.588 278.013 110.796C277.613 111.004 277.157 111.108 276.645 111.108C276.077 111.108 275.557 110.964 275.085 110.676C274.613 110.38 274.237 109.972 273.957 109.452C273.685 108.924 273.549 108.328 273.549 107.664ZM278.961 107.688C278.961 107.232 278.865 106.836 278.673 106.5C278.489 106.164 278.245 105.908 277.941 105.732C277.637 105.556 277.309 105.468 276.957 105.468C276.605 105.468 276.277 105.556 275.973 105.732C275.669 105.9 275.421 106.152 275.229 106.488C275.045 106.816 274.953 107.208 274.953 107.664C274.953 108.12 275.045 108.52 275.229 108.864C275.421 109.208 275.669 109.472 275.973 109.656C276.285 109.832 276.613 109.92 276.957 109.92C277.309 109.92 277.637 109.832 277.941 109.656C278.245 109.48 278.489 109.224 278.673 108.888C278.865 108.544 278.961 108.144 278.961 107.688ZM283.506 105.348C283.706 105.012 283.97 104.752 284.298 104.568C284.634 104.376 285.03 104.28 285.486 104.28V105.696H285.138C284.602 105.696 284.194 105.832 283.914 106.104C283.642 106.376 283.506 106.848 283.506 107.52V111H282.138V104.388H283.506V105.348ZM294.889 109.296H291.397L290.797 111H289.369L292.357 102.648H293.941L296.929 111H295.489L294.889 109.296ZM294.505 108.18L293.149 104.304L291.781 108.18H294.505ZM300.892 104.28C301.404 104.28 301.856 104.384 302.248 104.592C302.648 104.792 302.96 105.044 303.184 105.348V104.388H304.564V111.108C304.564 111.716 304.436 112.256 304.18 112.728C303.924 113.208 303.552 113.584 303.064 113.856C302.584 114.128 302.008 114.264 301.336 114.264C300.44 114.264 299.696 114.052 299.104 113.628C298.512 113.212 298.176 112.644 298.096 111.924H299.452C299.556 112.268 299.776 112.544 300.112 112.752C300.456 112.968 300.864 113.076 301.336 113.076C301.888 113.076 302.332 112.908 302.668 112.572C303.012 112.236 303.184 111.748 303.184 111.108V110.004C302.952 110.316 302.636 110.58 302.236 110.796C301.844 111.004 301.396 111.108 300.892 111.108C300.316 111.108 299.788 110.964 299.308 110.676C298.836 110.38 298.46 109.972 298.18 109.452C297.908 108.924 297.772 108.328 297.772 107.664C297.772 107 297.908 106.412 298.18 105.9C298.46 105.388 298.836 104.992 299.308 104.712C299.788 104.424 300.316 104.28 300.892 104.28ZM303.184 107.688C303.184 107.232 303.088 106.836 302.896 106.5C302.712 106.164 302.468 105.908 302.164 105.732C301.86 105.556 301.532 105.468 301.18 105.468C300.828 105.468 300.5 105.556 300.196 105.732C299.892 105.9 299.644 106.152 299.452 106.488C299.268 106.816 299.176 107.208 299.176 107.664C299.176 108.12 299.268 108.52 299.452 108.864C299.644 109.208 299.892 109.472 300.196 109.656C300.508 109.832 300.836 109.92 301.18 109.92C301.532 109.92 301.86 109.832 302.164 109.656C302.468 109.48 302.712 109.224 302.896 108.888C303.088 108.544 303.184 108.144 303.184 107.688ZM309.229 111.108C308.605 111.108 308.041 110.968 307.537 110.688C307.033 110.4 306.637 110 306.349 109.488C306.061 108.968 305.917 108.368 305.917 107.688C305.917 107.016 306.065 106.42 306.361 105.9C306.657 105.38 307.061 104.98 307.573 104.7C308.085 104.42 308.657 104.28 309.289 104.28C309.921 104.28 310.493 104.42 311.005 104.7C311.517 104.98 311.921 105.38 312.217 105.9C312.513 106.42 312.661 107.016 312.661 107.688C312.661 108.36 312.509 108.956 312.205 109.476C311.901 109.996 311.485 110.4 310.957 110.688C310.437 110.968 309.861 111.108 309.229 111.108ZM309.229 109.92C309.581 109.92 309.909 109.836 310.213 109.668C310.525 109.5 310.777 109.248 310.969 108.912C311.161 108.576 311.257 108.168 311.257 107.688C311.257 107.208 311.165 106.804 310.981 106.476C310.797 106.14 310.553 105.888 310.249 105.72C309.945 105.552 309.617 105.468 309.265 105.468C308.913 105.468 308.585 105.552 308.281 105.72C307.985 105.888 307.749 106.14 307.573 106.476C307.397 106.804 307.309 107.208 307.309 107.688C307.309 108.4 307.489 108.952 307.849 109.344C308.217 109.728 308.677 109.92 309.229 109.92ZM315.381 105.348C315.581 105.012 315.845 104.752 316.173 104.568C316.509 104.376 316.905 104.28 317.361 104.28V105.696H317.013C316.477 105.696 316.069 105.832 315.789 106.104C315.517 106.376 315.381 106.848 315.381 107.52V111H314.013V104.388H315.381V105.348ZM318.163 107.664C318.163 107 318.299 106.412 318.571 105.9C318.851 105.388 319.227 104.992 319.699 104.712C320.179 104.424 320.707 104.28 321.283 104.28C321.803 104.28 322.255 104.384 322.639 104.592C323.031 104.792 323.343 105.044 323.575 105.348V104.388H324.955V111H323.575V110.016C323.343 110.328 323.027 110.588 322.627 110.796C322.227 111.004 321.771 111.108 321.259 111.108C320.691 111.108 320.171 110.964 319.699 110.676C319.227 110.38 318.851 109.972 318.571 109.452C318.299 108.924 318.163 108.328 318.163 107.664ZM323.575 107.688C323.575 107.232 323.479 106.836 323.287 106.5C323.103 106.164 322.859 105.908 322.555 105.732C322.251 105.556 321.923 105.468 321.571 105.468C321.219 105.468 320.891 105.556 320.587 105.732C320.283 105.9 320.035 106.152 319.843 106.488C319.659 106.816 319.567 107.208 319.567 107.664C319.567 108.12 319.659 108.52 319.843 108.864C320.035 109.208 320.283 109.472 320.587 109.656C320.899 109.832 321.227 109.92 321.571 109.92C321.923 109.92 322.251 109.832 322.555 109.656C322.859 109.48 323.103 109.224 323.287 108.888C323.479 108.544 323.575 108.144 323.575 107.688Z" fill="#7557E9"/>
</svg>
